%TF.GenerationSoftware,KiCad,Pcbnew,7.0.6*%
%TF.CreationDate,2023-07-17T23:29:13+02:00*%
%TF.ProjectId,bulb_driver,62756c62-5f64-4726-9976-65722e6b6963,rev?*%
%TF.SameCoordinates,Original*%
%TF.FileFunction,Legend,Top*%
%TF.FilePolarity,Positive*%
%FSLAX46Y46*%
G04 Gerber Fmt 4.6, Leading zero omitted, Abs format (unit mm)*
G04 Created by KiCad (PCBNEW 7.0.6) date 2023-07-17 23:29:13*
%MOMM*%
%LPD*%
G01*
G04 APERTURE LIST*
%ADD10C,0.200000*%
%ADD11C,0.150000*%
%ADD12C,0.120000*%
G04 APERTURE END LIST*
D10*
G36*
X95209036Y-94493928D02*
G01*
X95209036Y-94650000D01*
X94613328Y-94650000D01*
X94613328Y-93632972D01*
X94802372Y-93632972D01*
X94802372Y-94493928D01*
X95209036Y-94493928D01*
G37*
G36*
X96443196Y-93632972D02*
G01*
X96443196Y-94650000D01*
X96276378Y-94650000D01*
X96276378Y-93992986D01*
X96276443Y-93983056D01*
X96276637Y-93972928D01*
X96276962Y-93962601D01*
X96277416Y-93952076D01*
X96278000Y-93941352D01*
X96278713Y-93930430D01*
X96279557Y-93919309D01*
X96280530Y-93907990D01*
X95973272Y-94485380D01*
X95967418Y-94495111D01*
X95960846Y-94503545D01*
X95953557Y-94510682D01*
X95945551Y-94516521D01*
X95936827Y-94521062D01*
X95927385Y-94524306D01*
X95917226Y-94526252D01*
X95906350Y-94526901D01*
X95879727Y-94526901D01*
X95868797Y-94526252D01*
X95858600Y-94524306D01*
X95849136Y-94521062D01*
X95840404Y-94516521D01*
X95832405Y-94510682D01*
X95825139Y-94503545D01*
X95818606Y-94495111D01*
X95812805Y-94485380D01*
X95501884Y-93905792D01*
X95502799Y-93915908D01*
X95503620Y-93925954D01*
X95504348Y-93935930D01*
X95504982Y-93945836D01*
X95505303Y-93951465D01*
X95505944Y-93962486D01*
X95506402Y-93973080D01*
X95506677Y-93983247D01*
X95506769Y-93992986D01*
X95506769Y-94650000D01*
X95340195Y-94650000D01*
X95340195Y-93632972D01*
X95482833Y-93632972D01*
X95493245Y-93633113D01*
X95503426Y-93633616D01*
X95504570Y-93633705D01*
X95514393Y-93635027D01*
X95521179Y-93637124D01*
X95529975Y-93641914D01*
X95534612Y-93646161D01*
X95540840Y-93654080D01*
X95546336Y-93663014D01*
X95850907Y-94227948D01*
X95856049Y-94237849D01*
X95861005Y-94247890D01*
X95865773Y-94258071D01*
X95870355Y-94268393D01*
X95872889Y-94274354D01*
X95876718Y-94283381D01*
X95880514Y-94292512D01*
X95884274Y-94301745D01*
X95888001Y-94311082D01*
X95891693Y-94320522D01*
X95892916Y-94323691D01*
X95896689Y-94313960D01*
X95900496Y-94304365D01*
X95904337Y-94294909D01*
X95908212Y-94285589D01*
X95912122Y-94276407D01*
X95913433Y-94273377D01*
X95917423Y-94264287D01*
X95921516Y-94255334D01*
X95926421Y-94245062D01*
X95931467Y-94234977D01*
X95935903Y-94226482D01*
X96236322Y-93663014D01*
X96241378Y-93654619D01*
X96247499Y-93646971D01*
X96248290Y-93646161D01*
X96256175Y-93639912D01*
X96261967Y-93637124D01*
X96271794Y-93634415D01*
X96278332Y-93633705D01*
X96288468Y-93633155D01*
X96298739Y-93632975D01*
X96300314Y-93632972D01*
X96443196Y-93632972D01*
G37*
G36*
X96625645Y-93916294D02*
G01*
X96627788Y-93902758D01*
X96630279Y-93889535D01*
X96633118Y-93876626D01*
X96636304Y-93864030D01*
X96639838Y-93851747D01*
X96643720Y-93839778D01*
X96647950Y-93828123D01*
X96652527Y-93816780D01*
X96657452Y-93805751D01*
X96662725Y-93795036D01*
X96666434Y-93788066D01*
X96672243Y-93777834D01*
X96678315Y-93767928D01*
X96684648Y-93758348D01*
X96691243Y-93749094D01*
X96698100Y-93740167D01*
X96705220Y-93731566D01*
X96712600Y-93723292D01*
X96720243Y-93715343D01*
X96728148Y-93707721D01*
X96736315Y-93700425D01*
X96741905Y-93695743D01*
X96750538Y-93688989D01*
X96759404Y-93682556D01*
X96768502Y-93676446D01*
X96777831Y-93670658D01*
X96787392Y-93665192D01*
X96797186Y-93660048D01*
X96807210Y-93655226D01*
X96817467Y-93650726D01*
X96827956Y-93646548D01*
X96838676Y-93642691D01*
X96845952Y-93640300D01*
X96857066Y-93636939D01*
X96868335Y-93633908D01*
X96879758Y-93631208D01*
X96891335Y-93628839D01*
X96903068Y-93626801D01*
X96914954Y-93625093D01*
X96926996Y-93623715D01*
X96939192Y-93622668D01*
X96951542Y-93621952D01*
X96964047Y-93621566D01*
X96972470Y-93621493D01*
X96985539Y-93621671D01*
X96998367Y-93622206D01*
X97010955Y-93623096D01*
X97023303Y-93624344D01*
X97035410Y-93625947D01*
X97047277Y-93627907D01*
X97058903Y-93630223D01*
X97070289Y-93632896D01*
X97081435Y-93635925D01*
X97092340Y-93639310D01*
X97099476Y-93641765D01*
X97109955Y-93645656D01*
X97120141Y-93649816D01*
X97130036Y-93654248D01*
X97139639Y-93658950D01*
X97148950Y-93663922D01*
X97157968Y-93669165D01*
X97166695Y-93674678D01*
X97175130Y-93680462D01*
X97183273Y-93686517D01*
X97191124Y-93692841D01*
X97196196Y-93697208D01*
X97203544Y-93703958D01*
X97210565Y-93710927D01*
X97217259Y-93718115D01*
X97225678Y-93728039D01*
X97233517Y-93738352D01*
X97240775Y-93749055D01*
X97247454Y-93760147D01*
X97253552Y-93771629D01*
X97257745Y-93780495D01*
X97261587Y-93789540D01*
X97265050Y-93798722D01*
X97268135Y-93808041D01*
X97270843Y-93817498D01*
X97273173Y-93827092D01*
X97275125Y-93836823D01*
X97276699Y-93846692D01*
X97277896Y-93856699D01*
X97278714Y-93866842D01*
X97279155Y-93877124D01*
X97279239Y-93884054D01*
X97279067Y-93895968D01*
X97278552Y-93907532D01*
X97277693Y-93918744D01*
X97276491Y-93929605D01*
X97274946Y-93940115D01*
X97273056Y-93950274D01*
X97270824Y-93960082D01*
X97268248Y-93969539D01*
X97264581Y-93980832D01*
X97260448Y-93991659D01*
X97255851Y-94002022D01*
X97250788Y-94011919D01*
X97245261Y-94021351D01*
X97239268Y-94030318D01*
X97236741Y-94033775D01*
X97230161Y-94042121D01*
X97223093Y-94050061D01*
X97215535Y-94057596D01*
X97207489Y-94064725D01*
X97198953Y-94071449D01*
X97189929Y-94077767D01*
X97186182Y-94080181D01*
X97176597Y-94085979D01*
X97166619Y-94091468D01*
X97156247Y-94096646D01*
X97145482Y-94101514D01*
X97134322Y-94106072D01*
X97125112Y-94109495D01*
X97118039Y-94111933D01*
X97129276Y-94115653D01*
X97140150Y-94119611D01*
X97150662Y-94123805D01*
X97160812Y-94128236D01*
X97170598Y-94132903D01*
X97180023Y-94137807D01*
X97189085Y-94142948D01*
X97197784Y-94148325D01*
X97206121Y-94153938D01*
X97214095Y-94159789D01*
X97225376Y-94169008D01*
X97235842Y-94178760D01*
X97245492Y-94189044D01*
X97254326Y-94199860D01*
X97262401Y-94211206D01*
X97269682Y-94223081D01*
X97276168Y-94235484D01*
X97281861Y-94248415D01*
X97286759Y-94261874D01*
X97290862Y-94275860D01*
X97293157Y-94285478D01*
X97295098Y-94295331D01*
X97296687Y-94305419D01*
X97297922Y-94315741D01*
X97298805Y-94326298D01*
X97299335Y-94337089D01*
X97299511Y-94348115D01*
X97299264Y-94362247D01*
X97298524Y-94376065D01*
X97297289Y-94389570D01*
X97295561Y-94402761D01*
X97293339Y-94415639D01*
X97290624Y-94428203D01*
X97287415Y-94440454D01*
X97283712Y-94452392D01*
X97279515Y-94464016D01*
X97274824Y-94475327D01*
X97271423Y-94482693D01*
X97265983Y-94493475D01*
X97260195Y-94503931D01*
X97254059Y-94514060D01*
X97247575Y-94523863D01*
X97240744Y-94533340D01*
X97233564Y-94542491D01*
X97226038Y-94551315D01*
X97218163Y-94559813D01*
X97209940Y-94567984D01*
X97201370Y-94575830D01*
X97195464Y-94580879D01*
X97186355Y-94588130D01*
X97176979Y-94595047D01*
X97167338Y-94601628D01*
X97157430Y-94607875D01*
X97147257Y-94613787D01*
X97136817Y-94619364D01*
X97126111Y-94624606D01*
X97115138Y-94629514D01*
X97103900Y-94634086D01*
X97092395Y-94638324D01*
X97084577Y-94640963D01*
X97072698Y-94644585D01*
X97060689Y-94647852D01*
X97048552Y-94650762D01*
X97036286Y-94653316D01*
X97023891Y-94655513D01*
X97011367Y-94657354D01*
X96998715Y-94658839D01*
X96985934Y-94659968D01*
X96973024Y-94660740D01*
X96959985Y-94661155D01*
X96951221Y-94661235D01*
X96937056Y-94661080D01*
X96923231Y-94660616D01*
X96909745Y-94659844D01*
X96896598Y-94658762D01*
X96883790Y-94657371D01*
X96871322Y-94655671D01*
X96859192Y-94653661D01*
X96847402Y-94651343D01*
X96835951Y-94648715D01*
X96824839Y-94645779D01*
X96817620Y-94643649D01*
X96807078Y-94640204D01*
X96796794Y-94636462D01*
X96786768Y-94632424D01*
X96776999Y-94628090D01*
X96767488Y-94623460D01*
X96758235Y-94618533D01*
X96749239Y-94613310D01*
X96740500Y-94607791D01*
X96732019Y-94601976D01*
X96723796Y-94595864D01*
X96718457Y-94591625D01*
X96710646Y-94585033D01*
X96703059Y-94578170D01*
X96695694Y-94571037D01*
X96688553Y-94563633D01*
X96681635Y-94555959D01*
X96674940Y-94548014D01*
X96668469Y-94539799D01*
X96662220Y-94531313D01*
X96656195Y-94522556D01*
X96650394Y-94513530D01*
X96646650Y-94507362D01*
X96641184Y-94497838D01*
X96635868Y-94488045D01*
X96630702Y-94477980D01*
X96625687Y-94467646D01*
X96620822Y-94457040D01*
X96616107Y-94446165D01*
X96611543Y-94435018D01*
X96607128Y-94423602D01*
X96602864Y-94411914D01*
X96598751Y-94399957D01*
X96596092Y-94391835D01*
X96672784Y-94360083D01*
X96682153Y-94356644D01*
X96693144Y-94353713D01*
X96703860Y-94352087D01*
X96714301Y-94351767D01*
X96724468Y-94352751D01*
X96729448Y-94353733D01*
X96738833Y-94356515D01*
X96748502Y-94361237D01*
X96756792Y-94367548D01*
X96763703Y-94375449D01*
X96767794Y-94382065D01*
X96772634Y-94391290D01*
X96777629Y-94400463D01*
X96782778Y-94409585D01*
X96788082Y-94418656D01*
X96793540Y-94427675D01*
X96795394Y-94430669D01*
X96801279Y-94439382D01*
X96807575Y-94447751D01*
X96814284Y-94455777D01*
X96821406Y-94463459D01*
X96828939Y-94470798D01*
X96831542Y-94473168D01*
X96839768Y-94479888D01*
X96848509Y-94486128D01*
X96857765Y-94491887D01*
X96867537Y-94497165D01*
X96877824Y-94501962D01*
X96881367Y-94503454D01*
X96892461Y-94507355D01*
X96902283Y-94509989D01*
X96912630Y-94512063D01*
X96923502Y-94513577D01*
X96934898Y-94514530D01*
X96946820Y-94514922D01*
X96949267Y-94514933D01*
X96960143Y-94514708D01*
X96970669Y-94514033D01*
X96980843Y-94512907D01*
X96990666Y-94511331D01*
X97002451Y-94508727D01*
X97013688Y-94505420D01*
X97024376Y-94501409D01*
X97026448Y-94500523D01*
X97036554Y-94495805D01*
X97046111Y-94490658D01*
X97055120Y-94485081D01*
X97063580Y-94479075D01*
X97071492Y-94472640D01*
X97078855Y-94465776D01*
X97081646Y-94462909D01*
X97088318Y-94455533D01*
X97094441Y-94447907D01*
X97101064Y-94438424D01*
X97106897Y-94428581D01*
X97111940Y-94418377D01*
X97114863Y-94411374D01*
X97118599Y-94400649D01*
X97121561Y-94389908D01*
X97123751Y-94379148D01*
X97125167Y-94368372D01*
X97125811Y-94357579D01*
X97125854Y-94353977D01*
X97125664Y-94342695D01*
X97125091Y-94331747D01*
X97124137Y-94321133D01*
X97122801Y-94310853D01*
X97121084Y-94300907D01*
X97118985Y-94291295D01*
X97118039Y-94287543D01*
X97114515Y-94276595D01*
X97109807Y-94266283D01*
X97103914Y-94256605D01*
X97096835Y-94247564D01*
X97090032Y-94240514D01*
X97085554Y-94236496D01*
X97077391Y-94230083D01*
X97068166Y-94224122D01*
X97057880Y-94218615D01*
X97048887Y-94214535D01*
X97039215Y-94210745D01*
X97028863Y-94207246D01*
X97017832Y-94204036D01*
X97014968Y-94203279D01*
X97002943Y-94200474D01*
X96993288Y-94198616D01*
X96983088Y-94196968D01*
X96972342Y-94195531D01*
X96961051Y-94194303D01*
X96949215Y-94193287D01*
X96936834Y-94192480D01*
X96923908Y-94191884D01*
X96910436Y-94191498D01*
X96896419Y-94191323D01*
X96891625Y-94191311D01*
X96891625Y-94067480D01*
X96903431Y-94067251D01*
X96914850Y-94066836D01*
X96925882Y-94066237D01*
X96936528Y-94065454D01*
X96946788Y-94064486D01*
X96956661Y-94063333D01*
X96969224Y-94061509D01*
X96981100Y-94059356D01*
X96992290Y-94056876D01*
X96997627Y-94055512D01*
X97007919Y-94052566D01*
X97017670Y-94049345D01*
X97026879Y-94045850D01*
X97037628Y-94041093D01*
X97047530Y-94035908D01*
X97056585Y-94030293D01*
X97064794Y-94024249D01*
X97072280Y-94017794D01*
X97080271Y-94009528D01*
X97087180Y-94000695D01*
X97093008Y-93991295D01*
X97097753Y-93981329D01*
X97099720Y-93976133D01*
X97103041Y-93965403D01*
X97105674Y-93954278D01*
X97107620Y-93942757D01*
X97108717Y-93932855D01*
X97109337Y-93922679D01*
X97109490Y-93914340D01*
X97109138Y-93901179D01*
X97108082Y-93888623D01*
X97106322Y-93876673D01*
X97103857Y-93865327D01*
X97100689Y-93854588D01*
X97096816Y-93844453D01*
X97092239Y-93834924D01*
X97086959Y-93826000D01*
X97080974Y-93817682D01*
X97074285Y-93809969D01*
X97069434Y-93805163D01*
X97061690Y-93798485D01*
X97053477Y-93792464D01*
X97044797Y-93787099D01*
X97035649Y-93782392D01*
X97026032Y-93778341D01*
X97015948Y-93774947D01*
X97005396Y-93772210D01*
X96994375Y-93770130D01*
X96982887Y-93768707D01*
X96970931Y-93767940D01*
X96962700Y-93767794D01*
X96951240Y-93768103D01*
X96940123Y-93769031D01*
X96929350Y-93770576D01*
X96918920Y-93772740D01*
X96908833Y-93775522D01*
X96905547Y-93776587D01*
X96896019Y-93780133D01*
X96886851Y-93784178D01*
X96878044Y-93788720D01*
X96869598Y-93793760D01*
X96861512Y-93799299D01*
X96858897Y-93801256D01*
X96850130Y-93808458D01*
X96841994Y-93816175D01*
X96834489Y-93824407D01*
X96827615Y-93833152D01*
X96823970Y-93838381D01*
X96818207Y-93847781D01*
X96813098Y-93857601D01*
X96808643Y-93867843D01*
X96804843Y-93878505D01*
X96802965Y-93884787D01*
X96799040Y-93894331D01*
X96793843Y-93904383D01*
X96788113Y-93912907D01*
X96780754Y-93920919D01*
X96772672Y-93926852D01*
X96771458Y-93927529D01*
X96762257Y-93931353D01*
X96751536Y-93933633D01*
X96741138Y-93934360D01*
X96729623Y-93933954D01*
X96719175Y-93932749D01*
X96716992Y-93932414D01*
X96625645Y-93916294D01*
G37*
G36*
X98013677Y-94266538D02*
G01*
X98141660Y-94266538D01*
X98141660Y-94367166D01*
X98140355Y-94377241D01*
X98136440Y-94386217D01*
X98132379Y-94391591D01*
X98124502Y-94397693D01*
X98114427Y-94400979D01*
X98106489Y-94401605D01*
X98013677Y-94401605D01*
X98013677Y-94650000D01*
X97862491Y-94650000D01*
X97862491Y-94401605D01*
X97433356Y-94401605D01*
X97422771Y-94400555D01*
X97412996Y-94397407D01*
X97404033Y-94392159D01*
X97402337Y-94390858D01*
X97394919Y-94383488D01*
X97389457Y-94375116D01*
X97385951Y-94365742D01*
X97385484Y-94363747D01*
X97367166Y-94275819D01*
X97374115Y-94266538D01*
X97552791Y-94266538D01*
X97862491Y-94266538D01*
X97862491Y-93933879D01*
X97862586Y-93921942D01*
X97862872Y-93909699D01*
X97863349Y-93897151D01*
X97864017Y-93884298D01*
X97864643Y-93874458D01*
X97865377Y-93864446D01*
X97866218Y-93854262D01*
X97867166Y-93843907D01*
X97868221Y-93833379D01*
X97868597Y-93829832D01*
X97552791Y-94266538D01*
X97374115Y-94266538D01*
X97849057Y-93632240D01*
X98013677Y-93632240D01*
X98013677Y-94266538D01*
G37*
G36*
X98901500Y-94519818D02*
G01*
X98901500Y-94650000D01*
X98338764Y-94650000D01*
X98338764Y-94519818D01*
X98544905Y-94519818D01*
X98544905Y-93926796D01*
X98544953Y-93915758D01*
X98545096Y-93904624D01*
X98545335Y-93893394D01*
X98545669Y-93882069D01*
X98546098Y-93870649D01*
X98546623Y-93859134D01*
X98546859Y-93854501D01*
X98400558Y-93976866D01*
X98391884Y-93982717D01*
X98382553Y-93987125D01*
X98375645Y-93989078D01*
X98365924Y-93990337D01*
X98355906Y-93990070D01*
X98352442Y-93989567D01*
X98342675Y-93986862D01*
X98333439Y-93982557D01*
X98332903Y-93982240D01*
X98324874Y-93975885D01*
X98320446Y-93970516D01*
X98265491Y-93895289D01*
X98575680Y-93631507D01*
X98718562Y-93631507D01*
X98718562Y-94519818D01*
X98901500Y-94519818D01*
G37*
G36*
X99401820Y-93621616D02*
G01*
X99411616Y-93621985D01*
X99426154Y-93623001D01*
X99440502Y-93624570D01*
X99454661Y-93626693D01*
X99468632Y-93629370D01*
X99482413Y-93632600D01*
X99496006Y-93636385D01*
X99509410Y-93640723D01*
X99522625Y-93645616D01*
X99535651Y-93651062D01*
X99539951Y-93653000D01*
X99552658Y-93659150D01*
X99565044Y-93665874D01*
X99577107Y-93673175D01*
X99588849Y-93681050D01*
X99600268Y-93689501D01*
X99611366Y-93698527D01*
X99622141Y-93708128D01*
X99632595Y-93718305D01*
X99639385Y-93725409D01*
X99646032Y-93732768D01*
X99652536Y-93740384D01*
X99658897Y-93748255D01*
X99665100Y-93756386D01*
X99671132Y-93764783D01*
X99676992Y-93773445D01*
X99682680Y-93782373D01*
X99688197Y-93791565D01*
X99693541Y-93801023D01*
X99698714Y-93810746D01*
X99703715Y-93820734D01*
X99708545Y-93830987D01*
X99713203Y-93841506D01*
X99717689Y-93852290D01*
X99722003Y-93863339D01*
X99726146Y-93874653D01*
X99730117Y-93886233D01*
X99733916Y-93898078D01*
X99737543Y-93910188D01*
X99741004Y-93922540D01*
X99744241Y-93935173D01*
X99747255Y-93948087D01*
X99750045Y-93961280D01*
X99752613Y-93974755D01*
X99754957Y-93988510D01*
X99757078Y-94002545D01*
X99758975Y-94016861D01*
X99760650Y-94031457D01*
X99762101Y-94046334D01*
X99763329Y-94061492D01*
X99764334Y-94076929D01*
X99765115Y-94092648D01*
X99765673Y-94108647D01*
X99766008Y-94124926D01*
X99766120Y-94141486D01*
X99766008Y-94157959D01*
X99765673Y-94174161D01*
X99765115Y-94190092D01*
X99764334Y-94205752D01*
X99763329Y-94221141D01*
X99762101Y-94236260D01*
X99760650Y-94251107D01*
X99758975Y-94265683D01*
X99757078Y-94279989D01*
X99754957Y-94294023D01*
X99752613Y-94307787D01*
X99750045Y-94321279D01*
X99747255Y-94334501D01*
X99744241Y-94347451D01*
X99741004Y-94360131D01*
X99737543Y-94372540D01*
X99733916Y-94384679D01*
X99730117Y-94396552D01*
X99726146Y-94408157D01*
X99722003Y-94419495D01*
X99717689Y-94430566D01*
X99713203Y-94441370D01*
X99708545Y-94451907D01*
X99703715Y-94462177D01*
X99698714Y-94472179D01*
X99693541Y-94481915D01*
X99688197Y-94491383D01*
X99682680Y-94500584D01*
X99676992Y-94509518D01*
X99671132Y-94518185D01*
X99665100Y-94526584D01*
X99658897Y-94534717D01*
X99652536Y-94542588D01*
X99646032Y-94550203D01*
X99639385Y-94557563D01*
X99632595Y-94564667D01*
X99622141Y-94574844D01*
X99611366Y-94584445D01*
X99600268Y-94593471D01*
X99588849Y-94601922D01*
X99577107Y-94609797D01*
X99565044Y-94617097D01*
X99552658Y-94623822D01*
X99539951Y-94629972D01*
X99526988Y-94635559D01*
X99513836Y-94640596D01*
X99500495Y-94645084D01*
X99486965Y-94649023D01*
X99473247Y-94652411D01*
X99459339Y-94655251D01*
X99445243Y-94657540D01*
X99430957Y-94659281D01*
X99416483Y-94660471D01*
X99401820Y-94661113D01*
X99391939Y-94661235D01*
X99382032Y-94661113D01*
X99372217Y-94660746D01*
X99357665Y-94659739D01*
X99343320Y-94658182D01*
X99329181Y-94656075D01*
X99315247Y-94653419D01*
X99301520Y-94650213D01*
X99287999Y-94646458D01*
X99274684Y-94642153D01*
X99261575Y-94637299D01*
X99248672Y-94631895D01*
X99244417Y-94629972D01*
X99231842Y-94623822D01*
X99219581Y-94617097D01*
X99207634Y-94609797D01*
X99195999Y-94601922D01*
X99184679Y-94593471D01*
X99173671Y-94584445D01*
X99162977Y-94574844D01*
X99152597Y-94564667D01*
X99145851Y-94557563D01*
X99139244Y-94550203D01*
X99132776Y-94542588D01*
X99126448Y-94534717D01*
X99120304Y-94526584D01*
X99114331Y-94518185D01*
X99108527Y-94509518D01*
X99102893Y-94500584D01*
X99097429Y-94491383D01*
X99092135Y-94481915D01*
X99087011Y-94472179D01*
X99082056Y-94462177D01*
X99077272Y-94451907D01*
X99072657Y-94441370D01*
X99068212Y-94430566D01*
X99063937Y-94419495D01*
X99059831Y-94408157D01*
X99055896Y-94396552D01*
X99052130Y-94384679D01*
X99048534Y-94372540D01*
X99045133Y-94360131D01*
X99041951Y-94347451D01*
X99038989Y-94334501D01*
X99036246Y-94321279D01*
X99033722Y-94307787D01*
X99031418Y-94294023D01*
X99029333Y-94279989D01*
X99027468Y-94265683D01*
X99025822Y-94251107D01*
X99024396Y-94236260D01*
X99023189Y-94221141D01*
X99022202Y-94205752D01*
X99021434Y-94190092D01*
X99020885Y-94174161D01*
X99020556Y-94157959D01*
X99020446Y-94141486D01*
X99199720Y-94141486D01*
X99199782Y-94155138D01*
X99199968Y-94168494D01*
X99200278Y-94181554D01*
X99200713Y-94194319D01*
X99201271Y-94206787D01*
X99201953Y-94218960D01*
X99202759Y-94230838D01*
X99203689Y-94242419D01*
X99204744Y-94253705D01*
X99205922Y-94264695D01*
X99207224Y-94275389D01*
X99208650Y-94285788D01*
X99210201Y-94295890D01*
X99211875Y-94305697D01*
X99214619Y-94319853D01*
X99215596Y-94324424D01*
X99218667Y-94337722D01*
X99221927Y-94350504D01*
X99225376Y-94362772D01*
X99229014Y-94374524D01*
X99232841Y-94385761D01*
X99236857Y-94396483D01*
X99241061Y-94406690D01*
X99245455Y-94416381D01*
X99250037Y-94425557D01*
X99254809Y-94434219D01*
X99258094Y-94439706D01*
X99264933Y-94450052D01*
X99272016Y-94459597D01*
X99279344Y-94468340D01*
X99286915Y-94476282D01*
X99294731Y-94483422D01*
X99302791Y-94489761D01*
X99311095Y-94495298D01*
X99319644Y-94500034D01*
X99330618Y-94504960D01*
X99341711Y-94509050D01*
X99352924Y-94512306D01*
X99364256Y-94514727D01*
X99375707Y-94516313D01*
X99387278Y-94517065D01*
X99391939Y-94517131D01*
X99403704Y-94516714D01*
X99415338Y-94515462D01*
X99426841Y-94513375D01*
X99438212Y-94510453D01*
X99449452Y-94506696D01*
X99460561Y-94502105D01*
X99464968Y-94500034D01*
X99473635Y-94495298D01*
X99482050Y-94489761D01*
X99490213Y-94483422D01*
X99498124Y-94476282D01*
X99505783Y-94468340D01*
X99513191Y-94459597D01*
X99520346Y-94450052D01*
X99527250Y-94439706D01*
X99533856Y-94428502D01*
X99538585Y-94419497D01*
X99543121Y-94409977D01*
X99547464Y-94399943D01*
X99551613Y-94389392D01*
X99555570Y-94378327D01*
X99559333Y-94366746D01*
X99562903Y-94354651D01*
X99566279Y-94342040D01*
X99569463Y-94328914D01*
X99570481Y-94324424D01*
X99573362Y-94310490D01*
X99575125Y-94300831D01*
X99576762Y-94290876D01*
X99578273Y-94280625D01*
X99579659Y-94270079D01*
X99580918Y-94259237D01*
X99582052Y-94248099D01*
X99583059Y-94236665D01*
X99583941Y-94224936D01*
X99584696Y-94212911D01*
X99585326Y-94200590D01*
X99585830Y-94187973D01*
X99586207Y-94175061D01*
X99586459Y-94161853D01*
X99586585Y-94148349D01*
X99586601Y-94141486D01*
X99586538Y-94127834D01*
X99586349Y-94114478D01*
X99586034Y-94101418D01*
X99585594Y-94088653D01*
X99585027Y-94076184D01*
X99584334Y-94064011D01*
X99583516Y-94052134D01*
X99582571Y-94040553D01*
X99581501Y-94029267D01*
X99580304Y-94018277D01*
X99578982Y-94007583D01*
X99577534Y-93997184D01*
X99575959Y-93987081D01*
X99574259Y-93977275D01*
X99571473Y-93963119D01*
X99570481Y-93958548D01*
X99567362Y-93945209D01*
X99564050Y-93932393D01*
X99560544Y-93920101D01*
X99556845Y-93908333D01*
X99552953Y-93897089D01*
X99548868Y-93886369D01*
X99544590Y-93876172D01*
X99540119Y-93866499D01*
X99535454Y-93857350D01*
X99530596Y-93848725D01*
X99527250Y-93843265D01*
X99520346Y-93832923D01*
X99513191Y-93823390D01*
X99505783Y-93814666D01*
X99498124Y-93806751D01*
X99490213Y-93799645D01*
X99482050Y-93793348D01*
X99473635Y-93787860D01*
X99464968Y-93783182D01*
X99453912Y-93778186D01*
X99442724Y-93774037D01*
X99431405Y-93770735D01*
X99419955Y-93768279D01*
X99408374Y-93766670D01*
X99396661Y-93765908D01*
X99391939Y-93765840D01*
X99380321Y-93766264D01*
X99368822Y-93767534D01*
X99357443Y-93769651D01*
X99346182Y-93772614D01*
X99335041Y-93776425D01*
X99324019Y-93781082D01*
X99319644Y-93783182D01*
X99308996Y-93789157D01*
X99300753Y-93794847D01*
X99292754Y-93801346D01*
X99284999Y-93808654D01*
X99277489Y-93816771D01*
X99270223Y-93825698D01*
X99263201Y-93835433D01*
X99258094Y-93843265D01*
X99251607Y-93854417D01*
X99246961Y-93863391D01*
X99242505Y-93872889D01*
X99238237Y-93882911D01*
X99234159Y-93893457D01*
X99230269Y-93904527D01*
X99226568Y-93916120D01*
X99223056Y-93928238D01*
X99219733Y-93940879D01*
X99216599Y-93954043D01*
X99215596Y-93958548D01*
X99212759Y-93972482D01*
X99211023Y-93982141D01*
X99209410Y-93992096D01*
X99207922Y-94002346D01*
X99206557Y-94012893D01*
X99205317Y-94023735D01*
X99204201Y-94034873D01*
X99203209Y-94046306D01*
X99202340Y-94058036D01*
X99201596Y-94070061D01*
X99200976Y-94082382D01*
X99200480Y-94094998D01*
X99200108Y-94107911D01*
X99199860Y-94121119D01*
X99199736Y-94134623D01*
X99199720Y-94141486D01*
X99020446Y-94141486D01*
X99020556Y-94124926D01*
X99020885Y-94108647D01*
X99021434Y-94092648D01*
X99022202Y-94076929D01*
X99023189Y-94061492D01*
X99024396Y-94046334D01*
X99025822Y-94031457D01*
X99027468Y-94016861D01*
X99029333Y-94002545D01*
X99031418Y-93988510D01*
X99033722Y-93974755D01*
X99036246Y-93961280D01*
X99038989Y-93948087D01*
X99041951Y-93935173D01*
X99045133Y-93922540D01*
X99048534Y-93910188D01*
X99052130Y-93898078D01*
X99055896Y-93886233D01*
X99059831Y-93874653D01*
X99063937Y-93863339D01*
X99068212Y-93852290D01*
X99072657Y-93841506D01*
X99077272Y-93830987D01*
X99082056Y-93820734D01*
X99087011Y-93810746D01*
X99092135Y-93801023D01*
X99097429Y-93791565D01*
X99102893Y-93782373D01*
X99108527Y-93773445D01*
X99114331Y-93764783D01*
X99120304Y-93756386D01*
X99126448Y-93748255D01*
X99132776Y-93740384D01*
X99139244Y-93732768D01*
X99145851Y-93725409D01*
X99152597Y-93718305D01*
X99162977Y-93708128D01*
X99173671Y-93698527D01*
X99184679Y-93689501D01*
X99195999Y-93681050D01*
X99207634Y-93673175D01*
X99219581Y-93665874D01*
X99231842Y-93659150D01*
X99244417Y-93653000D01*
X99257251Y-93647369D01*
X99270291Y-93642293D01*
X99283538Y-93637770D01*
X99296990Y-93633800D01*
X99310649Y-93630385D01*
X99324513Y-93627524D01*
X99338584Y-93625216D01*
X99352861Y-93623462D01*
X99367343Y-93622262D01*
X99377113Y-93621770D01*
X99386974Y-93621524D01*
X99391939Y-93621493D01*
X99401820Y-93621616D01*
G37*
G36*
X100846161Y-94493928D02*
G01*
X100846161Y-94650000D01*
X100250453Y-94650000D01*
X100250453Y-93632972D01*
X100439497Y-93632972D01*
X100439497Y-94493928D01*
X100846161Y-94493928D01*
G37*
G36*
X101167096Y-93783426D02*
G01*
X101167096Y-94065526D01*
X101523203Y-94065526D01*
X101523203Y-94211095D01*
X101167096Y-94211095D01*
X101167096Y-94498813D01*
X101618702Y-94498813D01*
X101618702Y-94650000D01*
X100977320Y-94650000D01*
X100977320Y-93632972D01*
X101618702Y-93632972D01*
X101618702Y-93783426D01*
X101167096Y-93783426D01*
G37*
G36*
X102184377Y-93633119D02*
G01*
X102198629Y-93633560D01*
X102212716Y-93634295D01*
X102226637Y-93635323D01*
X102240392Y-93636645D01*
X102253981Y-93638262D01*
X102267404Y-93640172D01*
X102280661Y-93642376D01*
X102293752Y-93644873D01*
X102306676Y-93647665D01*
X102319435Y-93650750D01*
X102332028Y-93654130D01*
X102344455Y-93657803D01*
X102356716Y-93661770D01*
X102368810Y-93666031D01*
X102380739Y-93670586D01*
X102392508Y-93675403D01*
X102404061Y-93680451D01*
X102415398Y-93685730D01*
X102426519Y-93691239D01*
X102437425Y-93696980D01*
X102448116Y-93702952D01*
X102458591Y-93709154D01*
X102468850Y-93715587D01*
X102478893Y-93722252D01*
X102488721Y-93729147D01*
X102498334Y-93736273D01*
X102507730Y-93743630D01*
X102516911Y-93751217D01*
X102525877Y-93759036D01*
X102534627Y-93767085D01*
X102543161Y-93775366D01*
X102551499Y-93783865D01*
X102559601Y-93792570D01*
X102567467Y-93801481D01*
X102575095Y-93810598D01*
X102582488Y-93819921D01*
X102589643Y-93829450D01*
X102596562Y-93839186D01*
X102603244Y-93849127D01*
X102609690Y-93859275D01*
X102615899Y-93869628D01*
X102621872Y-93880188D01*
X102627608Y-93890954D01*
X102633107Y-93901926D01*
X102638370Y-93913104D01*
X102643396Y-93924488D01*
X102648185Y-93936078D01*
X102652710Y-93947842D01*
X102656944Y-93959750D01*
X102660885Y-93971801D01*
X102664534Y-93983995D01*
X102667892Y-93996332D01*
X102670957Y-94008812D01*
X102673730Y-94021436D01*
X102676212Y-94034202D01*
X102678402Y-94047112D01*
X102680299Y-94060164D01*
X102681905Y-94073360D01*
X102683219Y-94086699D01*
X102684241Y-94100181D01*
X102684970Y-94113806D01*
X102685408Y-94127575D01*
X102685554Y-94141486D01*
X102685408Y-94155397D01*
X102684970Y-94169165D01*
X102684241Y-94182791D01*
X102683219Y-94196273D01*
X102681905Y-94209612D01*
X102680299Y-94222807D01*
X102678402Y-94235860D01*
X102676212Y-94248770D01*
X102673730Y-94261536D01*
X102670957Y-94274159D01*
X102667892Y-94286640D01*
X102664534Y-94298977D01*
X102660885Y-94311171D01*
X102656944Y-94323222D01*
X102652710Y-94335129D01*
X102648185Y-94346894D01*
X102643396Y-94358486D01*
X102638370Y-94369876D01*
X102633107Y-94381063D01*
X102627608Y-94392049D01*
X102621872Y-94402831D01*
X102615899Y-94413412D01*
X102609690Y-94423791D01*
X102603244Y-94433967D01*
X102596562Y-94443941D01*
X102589643Y-94453712D01*
X102582488Y-94463282D01*
X102575095Y-94472649D01*
X102567467Y-94481813D01*
X102559601Y-94490776D01*
X102551499Y-94499536D01*
X102543161Y-94508094D01*
X102534627Y-94516403D01*
X102525877Y-94524478D01*
X102516911Y-94532317D01*
X102507730Y-94539922D01*
X102498334Y-94547293D01*
X102488721Y-94554428D01*
X102478893Y-94561329D01*
X102468850Y-94567995D01*
X102458591Y-94574426D01*
X102448116Y-94580623D01*
X102437425Y-94586585D01*
X102426519Y-94592312D01*
X102415398Y-94597805D01*
X102404061Y-94603063D01*
X102392508Y-94608086D01*
X102380739Y-94612875D01*
X102368810Y-94617370D01*
X102356716Y-94621576D01*
X102344455Y-94625491D01*
X102332028Y-94629117D01*
X102319435Y-94632452D01*
X102306676Y-94635498D01*
X102293752Y-94638253D01*
X102280661Y-94640718D01*
X102267404Y-94642894D01*
X102253981Y-94644779D01*
X102240392Y-94646374D01*
X102226637Y-94647679D01*
X102212716Y-94648694D01*
X102198629Y-94649419D01*
X102184377Y-94649854D01*
X102169958Y-94650000D01*
X101782344Y-94650000D01*
X101782344Y-93783426D01*
X101972121Y-93783426D01*
X101972121Y-94499546D01*
X102169958Y-94499546D01*
X102183792Y-94499329D01*
X102197361Y-94498679D01*
X102210663Y-94497595D01*
X102223699Y-94496077D01*
X102236468Y-94494126D01*
X102248972Y-94491741D01*
X102261210Y-94488922D01*
X102273181Y-94485670D01*
X102284886Y-94481984D01*
X102296325Y-94477865D01*
X102303803Y-94474877D01*
X102314820Y-94470065D01*
X102325524Y-94464880D01*
X102335915Y-94459320D01*
X102345992Y-94453388D01*
X102355756Y-94447082D01*
X102365206Y-94440402D01*
X102374343Y-94433349D01*
X102383166Y-94425922D01*
X102391676Y-94418122D01*
X102399873Y-94409948D01*
X102405163Y-94404291D01*
X102412823Y-94395458D01*
X102420139Y-94386268D01*
X102427111Y-94376722D01*
X102433740Y-94366819D01*
X102440025Y-94356560D01*
X102445967Y-94345945D01*
X102451566Y-94334973D01*
X102456821Y-94323645D01*
X102461732Y-94311961D01*
X102466301Y-94299920D01*
X102469155Y-94291695D01*
X102473127Y-94279045D01*
X102476709Y-94266098D01*
X102479899Y-94252856D01*
X102482699Y-94239317D01*
X102485108Y-94225481D01*
X102487127Y-94211350D01*
X102488755Y-94196922D01*
X102489623Y-94187139D01*
X102490318Y-94177224D01*
X102490839Y-94167178D01*
X102491186Y-94157000D01*
X102491360Y-94146690D01*
X102491381Y-94141486D01*
X102491294Y-94131082D01*
X102491034Y-94120813D01*
X102490600Y-94110680D01*
X102489992Y-94100682D01*
X102489211Y-94090820D01*
X102488256Y-94081093D01*
X102486498Y-94066757D01*
X102484349Y-94052726D01*
X102481809Y-94038999D01*
X102478879Y-94025577D01*
X102475558Y-94012461D01*
X102471847Y-93999649D01*
X102469155Y-93991277D01*
X102464816Y-93978998D01*
X102460133Y-93967076D01*
X102455107Y-93955511D01*
X102449738Y-93944302D01*
X102444025Y-93933449D01*
X102437968Y-93922952D01*
X102431568Y-93912812D01*
X102424825Y-93903029D01*
X102417738Y-93893601D01*
X102410308Y-93884530D01*
X102405163Y-93878681D01*
X102397176Y-93870216D01*
X102388875Y-93862134D01*
X102380260Y-93854434D01*
X102371332Y-93847116D01*
X102362091Y-93840180D01*
X102352536Y-93833626D01*
X102342668Y-93827455D01*
X102332486Y-93821665D01*
X102321991Y-93816258D01*
X102311182Y-93811232D01*
X102303803Y-93808094D01*
X102292541Y-93803686D01*
X102281014Y-93799711D01*
X102269220Y-93796170D01*
X102257160Y-93793062D01*
X102244834Y-93790388D01*
X102232241Y-93788148D01*
X102219383Y-93786341D01*
X102206258Y-93784968D01*
X102192867Y-93784028D01*
X102179210Y-93783522D01*
X102169958Y-93783426D01*
X101972121Y-93783426D01*
X101782344Y-93783426D01*
X101782344Y-93632972D01*
X102169958Y-93632972D01*
X102184377Y-93633119D01*
G37*
G36*
X103588284Y-93633119D02*
G01*
X103602537Y-93633560D01*
X103616624Y-93634295D01*
X103630545Y-93635323D01*
X103644300Y-93636645D01*
X103657889Y-93638262D01*
X103671312Y-93640172D01*
X103684569Y-93642376D01*
X103697659Y-93644873D01*
X103710584Y-93647665D01*
X103723343Y-93650750D01*
X103735936Y-93654130D01*
X103748363Y-93657803D01*
X103760624Y-93661770D01*
X103772718Y-93666031D01*
X103784647Y-93670586D01*
X103796416Y-93675403D01*
X103807968Y-93680451D01*
X103819306Y-93685730D01*
X103830427Y-93691239D01*
X103841333Y-93696980D01*
X103852024Y-93702952D01*
X103862499Y-93709154D01*
X103872758Y-93715587D01*
X103882801Y-93722252D01*
X103892629Y-93729147D01*
X103902241Y-93736273D01*
X103911638Y-93743630D01*
X103920819Y-93751217D01*
X103929785Y-93759036D01*
X103938534Y-93767085D01*
X103947069Y-93775366D01*
X103955407Y-93783865D01*
X103963509Y-93792570D01*
X103971375Y-93801481D01*
X103979003Y-93810598D01*
X103986396Y-93819921D01*
X103993551Y-93829450D01*
X104000470Y-93839186D01*
X104007152Y-93849127D01*
X104013598Y-93859275D01*
X104019807Y-93869628D01*
X104025780Y-93880188D01*
X104031516Y-93890954D01*
X104037015Y-93901926D01*
X104042278Y-93913104D01*
X104047304Y-93924488D01*
X104052093Y-93936078D01*
X104056618Y-93947842D01*
X104060851Y-93959750D01*
X104064793Y-93971801D01*
X104068442Y-93983995D01*
X104071799Y-93996332D01*
X104074865Y-94008812D01*
X104077638Y-94021436D01*
X104080120Y-94034202D01*
X104082309Y-94047112D01*
X104084207Y-94060164D01*
X104085813Y-94073360D01*
X104087127Y-94086699D01*
X104088148Y-94100181D01*
X104088878Y-94113806D01*
X104089316Y-94127575D01*
X104089462Y-94141486D01*
X104089316Y-94155397D01*
X104088878Y-94169165D01*
X104088148Y-94182791D01*
X104087127Y-94196273D01*
X104085813Y-94209612D01*
X104084207Y-94222807D01*
X104082309Y-94235860D01*
X104080120Y-94248770D01*
X104077638Y-94261536D01*
X104074865Y-94274159D01*
X104071799Y-94286640D01*
X104068442Y-94298977D01*
X104064793Y-94311171D01*
X104060851Y-94323222D01*
X104056618Y-94335129D01*
X104052093Y-94346894D01*
X104047304Y-94358486D01*
X104042278Y-94369876D01*
X104037015Y-94381063D01*
X104031516Y-94392049D01*
X104025780Y-94402831D01*
X104019807Y-94413412D01*
X104013598Y-94423791D01*
X104007152Y-94433967D01*
X104000470Y-94443941D01*
X103993551Y-94453712D01*
X103986396Y-94463282D01*
X103979003Y-94472649D01*
X103971375Y-94481813D01*
X103963509Y-94490776D01*
X103955407Y-94499536D01*
X103947069Y-94508094D01*
X103938534Y-94516403D01*
X103929785Y-94524478D01*
X103920819Y-94532317D01*
X103911638Y-94539922D01*
X103902241Y-94547293D01*
X103892629Y-94554428D01*
X103882801Y-94561329D01*
X103872758Y-94567995D01*
X103862499Y-94574426D01*
X103852024Y-94580623D01*
X103841333Y-94586585D01*
X103830427Y-94592312D01*
X103819306Y-94597805D01*
X103807968Y-94603063D01*
X103796416Y-94608086D01*
X103784647Y-94612875D01*
X103772718Y-94617370D01*
X103760624Y-94621576D01*
X103748363Y-94625491D01*
X103735936Y-94629117D01*
X103723343Y-94632452D01*
X103710584Y-94635498D01*
X103697659Y-94638253D01*
X103684569Y-94640718D01*
X103671312Y-94642894D01*
X103657889Y-94644779D01*
X103644300Y-94646374D01*
X103630545Y-94647679D01*
X103616624Y-94648694D01*
X103602537Y-94649419D01*
X103588284Y-94649854D01*
X103573866Y-94650000D01*
X103186252Y-94650000D01*
X103186252Y-93783426D01*
X103376029Y-93783426D01*
X103376029Y-94499546D01*
X103573866Y-94499546D01*
X103587700Y-94499329D01*
X103601268Y-94498679D01*
X103614571Y-94497595D01*
X103627607Y-94496077D01*
X103640376Y-94494126D01*
X103652880Y-94491741D01*
X103665117Y-94488922D01*
X103677089Y-94485670D01*
X103688794Y-94481984D01*
X103700233Y-94477865D01*
X103707711Y-94474877D01*
X103718728Y-94470065D01*
X103729432Y-94464880D01*
X103739823Y-94459320D01*
X103749900Y-94453388D01*
X103759663Y-94447082D01*
X103769114Y-94440402D01*
X103778251Y-94433349D01*
X103787074Y-94425922D01*
X103795584Y-94418122D01*
X103803781Y-94409948D01*
X103809071Y-94404291D01*
X103816731Y-94395458D01*
X103824047Y-94386268D01*
X103831019Y-94376722D01*
X103837648Y-94366819D01*
X103843933Y-94356560D01*
X103849875Y-94345945D01*
X103855474Y-94334973D01*
X103860729Y-94323645D01*
X103865640Y-94311961D01*
X103870208Y-94299920D01*
X103873063Y-94291695D01*
X103877035Y-94279045D01*
X103880616Y-94266098D01*
X103883807Y-94252856D01*
X103886607Y-94239317D01*
X103889016Y-94225481D01*
X103891035Y-94211350D01*
X103892663Y-94196922D01*
X103893531Y-94187139D01*
X103894226Y-94177224D01*
X103894746Y-94167178D01*
X103895094Y-94157000D01*
X103895267Y-94146690D01*
X103895289Y-94141486D01*
X103895202Y-94131082D01*
X103894942Y-94120813D01*
X103894508Y-94110680D01*
X103893900Y-94100682D01*
X103893119Y-94090820D01*
X103892164Y-94081093D01*
X103890405Y-94066757D01*
X103888257Y-94052726D01*
X103885717Y-94038999D01*
X103882787Y-94025577D01*
X103879466Y-94012461D01*
X103875754Y-93999649D01*
X103873063Y-93991277D01*
X103868724Y-93978998D01*
X103864041Y-93967076D01*
X103859015Y-93955511D01*
X103853646Y-93944302D01*
X103847933Y-93933449D01*
X103841876Y-93922952D01*
X103835476Y-93912812D01*
X103828733Y-93903029D01*
X103821646Y-93893601D01*
X103814216Y-93884530D01*
X103809071Y-93878681D01*
X103801084Y-93870216D01*
X103792782Y-93862134D01*
X103784168Y-93854434D01*
X103775240Y-93847116D01*
X103765999Y-93840180D01*
X103756444Y-93833626D01*
X103746576Y-93827455D01*
X103736394Y-93821665D01*
X103725899Y-93816258D01*
X103715090Y-93811232D01*
X103707711Y-93808094D01*
X103696449Y-93803686D01*
X103684922Y-93799711D01*
X103673128Y-93796170D01*
X103661068Y-93793062D01*
X103648742Y-93790388D01*
X103636149Y-93788148D01*
X103623291Y-93786341D01*
X103610166Y-93784968D01*
X103596775Y-93784028D01*
X103583118Y-93783522D01*
X103573866Y-93783426D01*
X103376029Y-93783426D01*
X103186252Y-93783426D01*
X103186252Y-93632972D01*
X103573866Y-93632972D01*
X103588284Y-93633119D01*
G37*
G36*
X104373761Y-94053558D02*
G01*
X104380236Y-94041667D01*
X104386930Y-94030266D01*
X104393843Y-94019353D01*
X104400975Y-94008931D01*
X104408326Y-93998997D01*
X104415896Y-93989553D01*
X104423684Y-93980599D01*
X104431692Y-93972134D01*
X104439919Y-93964158D01*
X104448365Y-93956672D01*
X104454117Y-93951953D01*
X104462966Y-93945319D01*
X104472112Y-93939337D01*
X104481553Y-93934007D01*
X104491291Y-93929330D01*
X104501325Y-93925306D01*
X104511656Y-93921934D01*
X104522283Y-93919215D01*
X104533206Y-93917149D01*
X104544425Y-93915735D01*
X104555940Y-93914974D01*
X104563782Y-93914829D01*
X104575933Y-93915172D01*
X104587473Y-93916202D01*
X104598403Y-93917920D01*
X104608722Y-93920324D01*
X104618431Y-93923415D01*
X104627529Y-93927193D01*
X104638043Y-93932882D01*
X104643893Y-93936810D01*
X104632658Y-94066748D01*
X104629012Y-94076458D01*
X104622824Y-94084479D01*
X104622400Y-94084822D01*
X104613513Y-94089166D01*
X104604570Y-94090195D01*
X104594344Y-94089631D01*
X104584174Y-94088428D01*
X104573307Y-94086775D01*
X104562988Y-94085173D01*
X104552791Y-94084028D01*
X104542716Y-94083341D01*
X104532763Y-94083112D01*
X104522178Y-94083412D01*
X104512040Y-94084314D01*
X104502349Y-94085817D01*
X104491607Y-94088329D01*
X104481472Y-94091660D01*
X104471852Y-94095656D01*
X104462652Y-94100376D01*
X104453873Y-94105820D01*
X104445515Y-94111990D01*
X104440928Y-94115840D01*
X104433326Y-94123018D01*
X104426121Y-94130874D01*
X104419314Y-94139407D01*
X104412905Y-94148619D01*
X104409420Y-94154187D01*
X104404351Y-94162836D01*
X104399403Y-94171932D01*
X104394574Y-94181475D01*
X104389866Y-94191464D01*
X104385277Y-94201900D01*
X104383775Y-94205478D01*
X104383775Y-94650000D01*
X104209874Y-94650000D01*
X104209874Y-93928262D01*
X104311967Y-93928262D01*
X104322843Y-93928718D01*
X104333384Y-93930355D01*
X104342834Y-93933620D01*
X104349092Y-93937787D01*
X104355615Y-93946125D01*
X104359663Y-93955609D01*
X104362289Y-93966051D01*
X104363258Y-93971981D01*
X104373761Y-94053558D01*
G37*
G36*
X104911828Y-93928262D02*
G01*
X104911828Y-94650000D01*
X104737194Y-94650000D01*
X104737194Y-93928262D01*
X104911828Y-93928262D01*
G37*
G36*
X104935764Y-93717969D02*
G01*
X104935184Y-93729036D01*
X104933443Y-93739767D01*
X104930543Y-93750163D01*
X104926482Y-93760223D01*
X104921582Y-93769702D01*
X104915919Y-93778602D01*
X104909492Y-93786922D01*
X104902302Y-93794661D01*
X104894395Y-93801622D01*
X104885816Y-93807850D01*
X104876565Y-93813346D01*
X104866643Y-93818108D01*
X104856324Y-93821955D01*
X104845638Y-93824703D01*
X104834586Y-93826352D01*
X104824615Y-93826893D01*
X104823168Y-93826901D01*
X104812070Y-93826352D01*
X104801247Y-93824703D01*
X104790699Y-93821955D01*
X104780425Y-93818108D01*
X104770732Y-93813346D01*
X104761680Y-93807850D01*
X104753268Y-93801622D01*
X104745498Y-93794661D01*
X104738538Y-93786922D01*
X104732309Y-93778602D01*
X104726814Y-93769702D01*
X104722051Y-93760223D01*
X104718204Y-93750163D01*
X104715457Y-93739767D01*
X104713808Y-93729036D01*
X104713258Y-93717969D01*
X104713679Y-93707958D01*
X104714941Y-93698227D01*
X104717414Y-93687450D01*
X104720986Y-93677039D01*
X104722051Y-93674494D01*
X104726814Y-93664602D01*
X104732309Y-93655443D01*
X104738538Y-93647016D01*
X104745498Y-93639323D01*
X104753268Y-93632255D01*
X104761680Y-93625950D01*
X104770732Y-93620409D01*
X104780425Y-93615631D01*
X104790699Y-93611784D01*
X104801247Y-93609036D01*
X104812070Y-93607388D01*
X104823168Y-93606838D01*
X104833179Y-93607259D01*
X104842909Y-93608521D01*
X104853687Y-93610994D01*
X104864097Y-93614566D01*
X104866643Y-93615631D01*
X104876565Y-93620409D01*
X104885816Y-93625950D01*
X104894395Y-93632255D01*
X104902302Y-93639323D01*
X104909492Y-93647016D01*
X104915919Y-93655443D01*
X104921582Y-93664602D01*
X104926482Y-93674494D01*
X104930543Y-93684813D01*
X104933443Y-93695498D01*
X104935029Y-93705149D01*
X104935727Y-93715080D01*
X104935764Y-93717969D01*
G37*
G36*
X105737857Y-93928262D02*
G01*
X105451605Y-94650000D01*
X105294068Y-94650000D01*
X105007815Y-93928262D01*
X105151186Y-93928262D01*
X105161773Y-93928996D01*
X105172268Y-93931534D01*
X105181427Y-93935884D01*
X105183914Y-93937543D01*
X105191914Y-93944362D01*
X105197778Y-93952393D01*
X105201256Y-93960746D01*
X105340474Y-94346161D01*
X105343913Y-94356665D01*
X105347210Y-94367108D01*
X105350363Y-94377492D01*
X105353373Y-94387816D01*
X105356240Y-94398081D01*
X105358964Y-94408286D01*
X105360013Y-94412351D01*
X105362631Y-94422432D01*
X105365142Y-94432525D01*
X105367545Y-94442630D01*
X105369840Y-94452747D01*
X105372029Y-94462875D01*
X105374110Y-94473016D01*
X105374912Y-94477076D01*
X105377156Y-94466930D01*
X105379458Y-94456797D01*
X105381821Y-94446675D01*
X105384243Y-94436566D01*
X105386725Y-94426468D01*
X105389266Y-94416382D01*
X105390300Y-94412351D01*
X105393054Y-94402170D01*
X105395976Y-94391929D01*
X105399065Y-94381629D01*
X105402321Y-94371269D01*
X105405744Y-94360849D01*
X105409333Y-94350370D01*
X105410816Y-94346161D01*
X105552965Y-93960746D01*
X105557247Y-93951613D01*
X105563376Y-93943692D01*
X105570551Y-93937543D01*
X105579860Y-93932259D01*
X105589324Y-93929359D01*
X105599743Y-93928271D01*
X105600837Y-93928262D01*
X105737857Y-93928262D01*
G37*
G36*
X106123501Y-93917220D02*
G01*
X106136001Y-93917800D01*
X106148316Y-93918766D01*
X106160447Y-93920118D01*
X106172393Y-93921857D01*
X106184155Y-93923982D01*
X106195732Y-93926494D01*
X106207124Y-93929392D01*
X106218332Y-93932676D01*
X106229355Y-93936347D01*
X106236601Y-93939009D01*
X106247309Y-93943260D01*
X106257724Y-93947864D01*
X106267848Y-93952820D01*
X106277680Y-93958128D01*
X106287219Y-93963788D01*
X106296467Y-93969800D01*
X106305423Y-93976164D01*
X106314087Y-93982881D01*
X106322459Y-93989949D01*
X106330539Y-93997369D01*
X106335764Y-94002512D01*
X106343390Y-94010512D01*
X106350699Y-94018852D01*
X106357690Y-94027531D01*
X106364363Y-94036549D01*
X106370719Y-94045907D01*
X106376756Y-94055603D01*
X106382477Y-94065639D01*
X106387879Y-94076014D01*
X106392964Y-94086728D01*
X106397731Y-94097781D01*
X106400732Y-94105338D01*
X106404966Y-94116891D01*
X106408784Y-94128745D01*
X106412185Y-94140900D01*
X106415169Y-94153355D01*
X106417737Y-94166110D01*
X106419889Y-94179166D01*
X106421624Y-94192523D01*
X106422943Y-94206180D01*
X106423845Y-94220137D01*
X106424331Y-94234395D01*
X106424424Y-94244068D01*
X106424215Y-94255801D01*
X106423589Y-94266269D01*
X106422287Y-94277163D01*
X106420008Y-94287571D01*
X106415875Y-94297313D01*
X106409159Y-94304526D01*
X106399389Y-94309067D01*
X106389375Y-94310777D01*
X106383635Y-94310990D01*
X105937159Y-94310990D01*
X105938037Y-94321255D01*
X105939111Y-94331258D01*
X105940384Y-94340999D01*
X105942387Y-94353579D01*
X105944742Y-94365694D01*
X105947448Y-94377343D01*
X105950504Y-94388527D01*
X105953912Y-94399245D01*
X105956699Y-94406978D01*
X105960755Y-94416893D01*
X105965110Y-94426365D01*
X105969762Y-94435394D01*
X105974712Y-94443981D01*
X105981317Y-94454091D01*
X105988388Y-94463511D01*
X105995924Y-94472238D01*
X105997487Y-94473900D01*
X106005652Y-94481816D01*
X106014269Y-94489075D01*
X106023340Y-94495678D01*
X106032864Y-94501626D01*
X106042842Y-94506917D01*
X106053272Y-94511553D01*
X106057571Y-94513224D01*
X106068665Y-94516953D01*
X106080116Y-94520050D01*
X106091925Y-94522515D01*
X106101630Y-94524032D01*
X106111563Y-94525144D01*
X106121726Y-94525852D01*
X106132118Y-94526156D01*
X106134752Y-94526168D01*
X106145132Y-94526016D01*
X106155146Y-94525558D01*
X106167148Y-94524556D01*
X106178578Y-94523077D01*
X106189435Y-94521121D01*
X106199720Y-94518688D01*
X106207536Y-94516399D01*
X106216886Y-94513228D01*
X106227602Y-94509312D01*
X106237769Y-94505276D01*
X106247386Y-94501120D01*
X106256453Y-94496844D01*
X106260781Y-94494661D01*
X106270557Y-94489530D01*
X106279795Y-94484610D01*
X106288495Y-94479900D01*
X106297780Y-94474775D01*
X106301081Y-94472923D01*
X106310739Y-94468083D01*
X106320204Y-94464826D01*
X106330493Y-94463066D01*
X106334542Y-94462909D01*
X106344709Y-94463917D01*
X106354468Y-94467459D01*
X106362449Y-94473551D01*
X106366782Y-94479030D01*
X106416852Y-94542288D01*
X106409536Y-94550604D01*
X106401999Y-94558576D01*
X106394241Y-94566205D01*
X106386261Y-94573490D01*
X106378060Y-94580432D01*
X106369637Y-94587031D01*
X106360993Y-94593286D01*
X106352128Y-94599197D01*
X106343102Y-94604734D01*
X106333978Y-94609989D01*
X106324754Y-94614962D01*
X106315430Y-94619652D01*
X106306008Y-94624060D01*
X106296486Y-94628186D01*
X106286865Y-94632029D01*
X106277145Y-94635589D01*
X106267353Y-94638883D01*
X106257514Y-94641924D01*
X106247630Y-94644714D01*
X106237700Y-94647252D01*
X106227724Y-94649538D01*
X106217703Y-94651572D01*
X106207635Y-94653354D01*
X106197522Y-94654884D01*
X106187482Y-94656201D01*
X106177510Y-94657342D01*
X106167606Y-94658308D01*
X106157772Y-94659098D01*
X106148006Y-94659712D01*
X106135895Y-94660233D01*
X106123892Y-94660480D01*
X106119120Y-94660502D01*
X106105108Y-94660283D01*
X106091279Y-94659626D01*
X106077636Y-94658531D01*
X106064177Y-94656999D01*
X106050903Y-94655028D01*
X106037813Y-94652619D01*
X106024908Y-94649773D01*
X106012188Y-94646489D01*
X105999652Y-94642766D01*
X105987301Y-94638606D01*
X105979169Y-94635589D01*
X105967181Y-94630708D01*
X105955490Y-94625405D01*
X105944095Y-94619682D01*
X105932996Y-94613539D01*
X105922193Y-94606974D01*
X105911686Y-94599989D01*
X105901476Y-94592583D01*
X105891562Y-94584756D01*
X105881944Y-94576509D01*
X105872623Y-94567840D01*
X105866573Y-94561828D01*
X105857819Y-94552421D01*
X105849417Y-94542611D01*
X105841367Y-94532397D01*
X105833669Y-94521780D01*
X105826323Y-94510759D01*
X105819329Y-94499334D01*
X105812688Y-94487506D01*
X105806398Y-94475274D01*
X105800460Y-94462639D01*
X105794874Y-94449600D01*
X105791346Y-94440683D01*
X105786458Y-94426972D01*
X105783466Y-94417607D01*
X105780687Y-94408062D01*
X105778123Y-94398338D01*
X105775772Y-94388435D01*
X105773635Y-94378352D01*
X105771711Y-94368090D01*
X105770002Y-94357649D01*
X105768506Y-94347028D01*
X105767224Y-94336228D01*
X105766155Y-94325249D01*
X105765300Y-94314090D01*
X105764659Y-94302752D01*
X105764232Y-94291234D01*
X105764018Y-94279537D01*
X105763991Y-94273621D01*
X105764201Y-94259868D01*
X105764833Y-94246270D01*
X105765884Y-94232826D01*
X105767357Y-94219537D01*
X105769250Y-94206402D01*
X105769284Y-94206210D01*
X105940579Y-94206210D01*
X106268353Y-94206210D01*
X106268120Y-94195702D01*
X106267422Y-94185397D01*
X106266260Y-94175295D01*
X106264632Y-94165395D01*
X106262539Y-94155698D01*
X106259981Y-94146204D01*
X106258827Y-94142463D01*
X106254920Y-94131546D01*
X106250344Y-94121145D01*
X106245097Y-94111259D01*
X106239181Y-94101888D01*
X106232595Y-94093032D01*
X106230251Y-94090195D01*
X106222829Y-94082020D01*
X106214669Y-94074533D01*
X106205770Y-94067732D01*
X106196133Y-94061618D01*
X106185757Y-94056192D01*
X106182135Y-94054535D01*
X106172814Y-94050806D01*
X106163015Y-94047709D01*
X106152740Y-94045244D01*
X106141987Y-94043411D01*
X106130758Y-94042210D01*
X106119052Y-94041641D01*
X106114235Y-94041591D01*
X106100412Y-94041968D01*
X106087150Y-94043102D01*
X106074451Y-94044991D01*
X106062315Y-94047636D01*
X106050741Y-94051036D01*
X106039729Y-94055192D01*
X106029280Y-94060103D01*
X106019393Y-94065771D01*
X106010068Y-94072193D01*
X106001306Y-94079372D01*
X105995778Y-94084577D01*
X105987947Y-94092909D01*
X105980665Y-94101877D01*
X105973933Y-94111479D01*
X105967751Y-94121717D01*
X105962118Y-94132591D01*
X105957035Y-94144100D01*
X105952501Y-94156244D01*
X105948517Y-94169024D01*
X105945082Y-94182440D01*
X105942197Y-94196490D01*
X105940579Y-94206210D01*
X105769284Y-94206210D01*
X105771565Y-94193422D01*
X105774299Y-94180596D01*
X105777455Y-94167925D01*
X105781031Y-94155409D01*
X105785028Y-94143047D01*
X105787927Y-94134891D01*
X105792597Y-94122814D01*
X105797633Y-94111038D01*
X105803033Y-94099562D01*
X105808798Y-94088386D01*
X105814928Y-94077511D01*
X105821423Y-94066936D01*
X105828284Y-94056663D01*
X105835508Y-94046689D01*
X105843098Y-94037016D01*
X105851053Y-94027644D01*
X105856559Y-94021563D01*
X105865111Y-94012673D01*
X105874007Y-94004140D01*
X105883247Y-93995964D01*
X105892829Y-93988143D01*
X105902755Y-93980679D01*
X105913025Y-93973572D01*
X105923638Y-93966821D01*
X105934595Y-93960426D01*
X105945895Y-93954387D01*
X105957538Y-93948705D01*
X105965491Y-93945115D01*
X105977725Y-93940095D01*
X105990247Y-93935569D01*
X106003056Y-93931537D01*
X106016153Y-93927999D01*
X106029537Y-93924954D01*
X106043209Y-93922403D01*
X106057169Y-93920346D01*
X106071417Y-93918782D01*
X106085952Y-93917712D01*
X106095801Y-93917274D01*
X106105779Y-93917054D01*
X106110816Y-93917027D01*
X106123501Y-93917220D01*
G37*
G36*
X106714584Y-94053558D02*
G01*
X106721059Y-94041667D01*
X106727753Y-94030266D01*
X106734666Y-94019353D01*
X106741798Y-94008931D01*
X106749149Y-93998997D01*
X106756719Y-93989553D01*
X106764508Y-93980599D01*
X106772516Y-93972134D01*
X106780742Y-93964158D01*
X106789188Y-93956672D01*
X106794940Y-93951953D01*
X106803789Y-93945319D01*
X106812935Y-93939337D01*
X106822377Y-93934007D01*
X106832115Y-93929330D01*
X106842149Y-93925306D01*
X106852479Y-93921934D01*
X106863106Y-93919215D01*
X106874029Y-93917149D01*
X106885248Y-93915735D01*
X106896764Y-93914974D01*
X106904605Y-93914829D01*
X106916756Y-93915172D01*
X106928297Y-93916202D01*
X106939227Y-93917920D01*
X106949546Y-93920324D01*
X106959255Y-93923415D01*
X106968353Y-93927193D01*
X106978866Y-93932882D01*
X106984717Y-93936810D01*
X106973482Y-94066748D01*
X106969835Y-94076458D01*
X106963648Y-94084479D01*
X106963224Y-94084822D01*
X106954336Y-94089166D01*
X106945394Y-94090195D01*
X106935168Y-94089631D01*
X106924997Y-94088428D01*
X106914131Y-94086775D01*
X106903811Y-94085173D01*
X106893614Y-94084028D01*
X106883539Y-94083341D01*
X106873586Y-94083112D01*
X106863002Y-94083412D01*
X106852864Y-94084314D01*
X106843172Y-94085817D01*
X106832430Y-94088329D01*
X106822295Y-94091660D01*
X106812675Y-94095656D01*
X106803475Y-94100376D01*
X106794696Y-94105820D01*
X106786338Y-94111990D01*
X106781751Y-94115840D01*
X106774149Y-94123018D01*
X106766945Y-94130874D01*
X106760138Y-94139407D01*
X106753728Y-94148619D01*
X106750244Y-94154187D01*
X106745175Y-94162836D01*
X106740226Y-94171932D01*
X106735397Y-94181475D01*
X106730689Y-94191464D01*
X106726101Y-94201900D01*
X106724598Y-94205478D01*
X106724598Y-94650000D01*
X106550697Y-94650000D01*
X106550697Y-93928262D01*
X106652791Y-93928262D01*
X106663667Y-93928718D01*
X106674207Y-93930355D01*
X106683657Y-93933620D01*
X106689916Y-93937787D01*
X106696438Y-93946125D01*
X106700487Y-93955609D01*
X106703113Y-93966051D01*
X106704082Y-93971981D01*
X106714584Y-94053558D01*
G37*
G36*
X107383077Y-94650000D02*
G01*
X107383077Y-93928262D01*
X107489323Y-93928262D01*
X107499295Y-93929037D01*
X107509782Y-93932014D01*
X107518655Y-93937223D01*
X107525914Y-93944665D01*
X107531558Y-93954339D01*
X107533775Y-93960013D01*
X107545010Y-94013503D01*
X107552206Y-94005663D01*
X107559504Y-93998081D01*
X107566906Y-93990757D01*
X107574411Y-93983690D01*
X107582018Y-93976881D01*
X107584577Y-93974668D01*
X107592457Y-93968254D01*
X107600526Y-93962200D01*
X107608783Y-93956507D01*
X107617230Y-93951175D01*
X107625865Y-93946203D01*
X107628785Y-93944626D01*
X107637790Y-93940052D01*
X107647035Y-93935856D01*
X107656520Y-93932038D01*
X107666246Y-93928598D01*
X107676212Y-93925535D01*
X107679588Y-93924598D01*
X107689943Y-93922025D01*
X107700677Y-93919984D01*
X107711788Y-93918476D01*
X107723277Y-93917500D01*
X107733139Y-93917093D01*
X107739183Y-93917027D01*
X107751747Y-93917351D01*
X107763887Y-93918323D01*
X107775601Y-93919944D01*
X107786891Y-93922213D01*
X107797755Y-93925130D01*
X107808194Y-93928696D01*
X107818208Y-93932910D01*
X107827797Y-93937772D01*
X107836962Y-93943283D01*
X107845701Y-93949441D01*
X107851290Y-93953907D01*
X107859338Y-93961037D01*
X107866996Y-93968596D01*
X107874262Y-93976585D01*
X107881138Y-93985003D01*
X107887623Y-93993850D01*
X107893717Y-94003126D01*
X107899421Y-94012832D01*
X107904734Y-94022967D01*
X107909656Y-94033532D01*
X107914188Y-94044525D01*
X107916992Y-94052093D01*
X107921339Y-94043277D01*
X107927148Y-94032709D01*
X107933374Y-94022641D01*
X107940018Y-94013074D01*
X107947079Y-94004008D01*
X107954558Y-93995443D01*
X107959246Y-93990544D01*
X107967297Y-93982762D01*
X107975575Y-93975446D01*
X107984079Y-93968594D01*
X107992810Y-93962208D01*
X108001768Y-93956287D01*
X108010952Y-93950830D01*
X108014689Y-93948778D01*
X108024249Y-93943879D01*
X108033999Y-93939409D01*
X108043941Y-93935369D01*
X108054073Y-93931758D01*
X108064396Y-93928576D01*
X108074910Y-93925823D01*
X108079169Y-93924842D01*
X108089861Y-93922591D01*
X108100564Y-93920721D01*
X108111280Y-93919233D01*
X108122007Y-93918126D01*
X108132746Y-93917401D01*
X108143497Y-93917057D01*
X108147801Y-93917027D01*
X108158903Y-93917188D01*
X108169769Y-93917671D01*
X108180398Y-93918476D01*
X108190792Y-93919603D01*
X108200949Y-93921052D01*
X108210870Y-93922823D01*
X108220555Y-93924916D01*
X108233101Y-93928207D01*
X108245228Y-93932071D01*
X108254047Y-93935345D01*
X108265416Y-93940188D01*
X108276319Y-93945557D01*
X108286756Y-93951454D01*
X108296728Y-93957876D01*
X108306235Y-93964826D01*
X108315276Y-93972302D01*
X108323851Y-93980305D01*
X108331960Y-93988834D01*
X108339658Y-93997871D01*
X108346875Y-94007397D01*
X108353610Y-94017411D01*
X108359865Y-94027913D01*
X108365639Y-94038904D01*
X108370932Y-94050383D01*
X108375745Y-94062351D01*
X108379038Y-94071648D01*
X108380076Y-94074808D01*
X108383044Y-94084416D01*
X108385721Y-94094282D01*
X108388105Y-94104406D01*
X108390197Y-94114787D01*
X108391997Y-94125426D01*
X108393506Y-94136322D01*
X108394722Y-94147477D01*
X108395647Y-94158888D01*
X108396279Y-94170557D01*
X108396620Y-94182484D01*
X108396685Y-94190579D01*
X108396685Y-94650000D01*
X108223028Y-94650000D01*
X108223028Y-94190579D01*
X108222762Y-94177965D01*
X108221963Y-94165952D01*
X108220632Y-94154540D01*
X108218769Y-94143730D01*
X108216373Y-94133520D01*
X108213445Y-94123912D01*
X108208713Y-94112036D01*
X108203035Y-94101228D01*
X108196409Y-94091489D01*
X108192742Y-94087020D01*
X108184732Y-94078834D01*
X108175843Y-94071739D01*
X108166078Y-94065736D01*
X108155434Y-94060825D01*
X108143913Y-94057005D01*
X108131513Y-94054276D01*
X108121638Y-94052946D01*
X108111269Y-94052229D01*
X108104082Y-94052093D01*
X108094227Y-94052419D01*
X108083056Y-94053625D01*
X108072235Y-94055718D01*
X108061765Y-94058700D01*
X108054501Y-94061374D01*
X108044820Y-94065725D01*
X108035654Y-94070871D01*
X108027002Y-94076812D01*
X108018864Y-94083547D01*
X108014445Y-94087752D01*
X108007304Y-94095665D01*
X108000841Y-94104442D01*
X107995055Y-94114084D01*
X107990636Y-94123037D01*
X107987334Y-94130983D01*
X107984014Y-94140967D01*
X107981380Y-94151500D01*
X107979434Y-94162582D01*
X107978175Y-94174214D01*
X107977650Y-94184328D01*
X107977564Y-94190579D01*
X107977564Y-94650000D01*
X107803175Y-94650000D01*
X107803175Y-94190579D01*
X107802917Y-94177369D01*
X107802144Y-94164850D01*
X107800856Y-94153023D01*
X107799053Y-94141887D01*
X107796735Y-94131442D01*
X107793901Y-94121688D01*
X107789322Y-94109758D01*
X107783826Y-94099057D01*
X107777415Y-94089585D01*
X107773866Y-94085310D01*
X107766172Y-94077525D01*
X107757623Y-94070778D01*
X107748220Y-94065068D01*
X107737962Y-94060397D01*
X107726849Y-94056764D01*
X107714881Y-94054169D01*
X107702058Y-94052612D01*
X107691880Y-94052125D01*
X107688381Y-94052093D01*
X107676675Y-94052552D01*
X107665220Y-94053930D01*
X107654016Y-94056225D01*
X107643062Y-94059439D01*
X107632359Y-94063572D01*
X107621905Y-94068622D01*
X107617794Y-94070900D01*
X107607680Y-94077034D01*
X107597792Y-94083837D01*
X107588131Y-94091307D01*
X107580565Y-94097765D01*
X107573144Y-94104649D01*
X107565869Y-94111961D01*
X107558738Y-94119701D01*
X107556978Y-94121702D01*
X107556978Y-94650000D01*
X107383077Y-94650000D01*
G37*
G36*
X108884870Y-93917129D02*
G01*
X108894715Y-93917435D01*
X108909272Y-93918277D01*
X108923575Y-93919579D01*
X108937625Y-93921340D01*
X108951421Y-93923560D01*
X108964965Y-93926240D01*
X108978255Y-93929379D01*
X108991291Y-93932978D01*
X109004075Y-93937036D01*
X109016605Y-93941553D01*
X109020725Y-93943161D01*
X109032920Y-93948208D01*
X109044776Y-93953642D01*
X109056293Y-93959462D01*
X109067471Y-93965669D01*
X109078310Y-93972262D01*
X109088809Y-93979242D01*
X109098969Y-93986608D01*
X109108790Y-93994360D01*
X109118272Y-94002499D01*
X109127415Y-94011024D01*
X109133321Y-94016922D01*
X109141923Y-94026083D01*
X109150142Y-94035612D01*
X109157980Y-94045511D01*
X109165435Y-94055780D01*
X109172509Y-94066417D01*
X109179200Y-94077424D01*
X109185509Y-94088800D01*
X109191436Y-94100545D01*
X109196981Y-94112659D01*
X109202143Y-94125143D01*
X109205373Y-94133670D01*
X109209912Y-94146728D01*
X109214005Y-94160074D01*
X109217652Y-94173708D01*
X109220852Y-94187629D01*
X109223605Y-94201837D01*
X109225912Y-94216334D01*
X109227202Y-94226158D01*
X109228294Y-94236110D01*
X109229187Y-94246190D01*
X109229881Y-94256397D01*
X109230377Y-94266733D01*
X109230675Y-94277196D01*
X109230774Y-94287787D01*
X109230675Y-94298439D01*
X109230377Y-94308960D01*
X109229881Y-94319352D01*
X109229187Y-94329614D01*
X109228294Y-94339746D01*
X109227202Y-94349749D01*
X109225912Y-94359621D01*
X109224424Y-94369364D01*
X109221819Y-94383736D01*
X109218768Y-94397815D01*
X109215270Y-94411602D01*
X109211326Y-94425098D01*
X109206936Y-94438301D01*
X109205373Y-94442637D01*
X109200465Y-94455373D01*
X109195175Y-94467753D01*
X109189503Y-94479777D01*
X109183448Y-94491444D01*
X109177012Y-94502755D01*
X109170193Y-94513709D01*
X109162993Y-94524307D01*
X109155410Y-94534549D01*
X109147445Y-94544434D01*
X109139098Y-94553963D01*
X109133321Y-94560118D01*
X109124405Y-94568990D01*
X109115149Y-94577472D01*
X109105554Y-94585563D01*
X109095620Y-94593263D01*
X109085347Y-94600572D01*
X109074734Y-94607491D01*
X109063783Y-94614019D01*
X109052492Y-94620156D01*
X109040862Y-94625903D01*
X109028893Y-94631259D01*
X109020725Y-94634612D01*
X109008280Y-94639239D01*
X108995581Y-94643411D01*
X108982628Y-94647127D01*
X108969423Y-94650389D01*
X108955964Y-94653195D01*
X108942252Y-94655546D01*
X108928286Y-94657443D01*
X108914067Y-94658884D01*
X108899595Y-94659870D01*
X108889807Y-94660274D01*
X108879905Y-94660477D01*
X108874912Y-94660502D01*
X108864864Y-94660401D01*
X108854930Y-94660097D01*
X108845111Y-94659592D01*
X108830597Y-94658454D01*
X108816340Y-94656861D01*
X108802341Y-94654813D01*
X108788599Y-94652310D01*
X108775115Y-94649352D01*
X108761889Y-94645939D01*
X108748920Y-94642071D01*
X108736209Y-94637747D01*
X108727878Y-94634612D01*
X108715637Y-94629517D01*
X108703735Y-94624031D01*
X108692173Y-94618154D01*
X108680949Y-94611886D01*
X108670065Y-94605228D01*
X108659520Y-94598179D01*
X108649314Y-94590739D01*
X108639447Y-94582909D01*
X108629919Y-94574688D01*
X108620731Y-94566076D01*
X108614794Y-94560118D01*
X108606231Y-94550827D01*
X108598038Y-94541179D01*
X108590214Y-94531175D01*
X108582760Y-94520814D01*
X108575674Y-94510097D01*
X108568958Y-94499024D01*
X108562611Y-94487594D01*
X108556633Y-94475809D01*
X108551025Y-94463666D01*
X108545785Y-94451168D01*
X108542498Y-94442637D01*
X108537915Y-94429531D01*
X108533782Y-94416133D01*
X108530101Y-94402443D01*
X108526870Y-94388461D01*
X108524090Y-94374187D01*
X108522487Y-94364509D01*
X108521085Y-94354701D01*
X108519883Y-94344764D01*
X108518881Y-94334696D01*
X108518079Y-94324499D01*
X108517478Y-94314172D01*
X108517078Y-94303716D01*
X108516877Y-94293129D01*
X108516859Y-94289253D01*
X108695394Y-94289253D01*
X108695566Y-94303539D01*
X108696081Y-94317394D01*
X108696939Y-94330818D01*
X108698142Y-94343811D01*
X108699687Y-94356372D01*
X108701576Y-94368502D01*
X108703809Y-94380201D01*
X108706385Y-94391468D01*
X108709304Y-94402305D01*
X108712567Y-94412710D01*
X108716174Y-94422684D01*
X108720123Y-94432226D01*
X108724417Y-94441338D01*
X108729053Y-94450018D01*
X108736653Y-94462230D01*
X108739357Y-94466085D01*
X108748019Y-94476953D01*
X108757518Y-94486753D01*
X108767854Y-94495483D01*
X108779028Y-94503145D01*
X108791038Y-94509737D01*
X108803886Y-94515260D01*
X108817571Y-94519715D01*
X108827160Y-94522090D01*
X108837120Y-94523991D01*
X108847453Y-94525416D01*
X108858158Y-94526367D01*
X108869234Y-94526842D01*
X108874912Y-94526901D01*
X108885995Y-94526665D01*
X108896711Y-94525958D01*
X108907061Y-94524780D01*
X108917044Y-94523131D01*
X108926661Y-94521010D01*
X108940400Y-94516945D01*
X108953314Y-94511819D01*
X108965404Y-94505633D01*
X108976670Y-94498387D01*
X108987111Y-94490080D01*
X108996728Y-94480712D01*
X109005521Y-94470285D01*
X109008269Y-94466573D01*
X109015995Y-94454722D01*
X109022961Y-94441884D01*
X109027182Y-94432776D01*
X109031066Y-94423230D01*
X109034613Y-94413244D01*
X109037821Y-94402820D01*
X109040692Y-94391957D01*
X109043225Y-94380655D01*
X109045420Y-94368914D01*
X109047278Y-94356734D01*
X109048798Y-94344116D01*
X109049980Y-94331058D01*
X109050824Y-94317562D01*
X109051331Y-94303627D01*
X109051500Y-94289253D01*
X109051331Y-94274847D01*
X109050824Y-94260879D01*
X109049980Y-94247347D01*
X109048798Y-94234252D01*
X109047278Y-94221595D01*
X109045420Y-94209374D01*
X109043225Y-94197590D01*
X109040692Y-94186243D01*
X109037821Y-94175334D01*
X109034613Y-94164861D01*
X109031066Y-94154825D01*
X109027182Y-94145226D01*
X109022961Y-94136064D01*
X109018401Y-94127339D01*
X109010929Y-94115071D01*
X109008269Y-94111200D01*
X108999751Y-94100244D01*
X108990409Y-94090366D01*
X108980242Y-94081565D01*
X108969251Y-94073842D01*
X108957436Y-94067197D01*
X108944796Y-94061629D01*
X108931332Y-94057139D01*
X108917044Y-94053726D01*
X108907061Y-94052050D01*
X108896711Y-94050853D01*
X108885995Y-94050134D01*
X108874912Y-94049895D01*
X108863649Y-94050135D01*
X108852759Y-94050857D01*
X108842240Y-94052059D01*
X108832093Y-94053742D01*
X108822319Y-94055905D01*
X108808355Y-94060053D01*
X108795228Y-94065282D01*
X108782938Y-94071593D01*
X108771486Y-94078986D01*
X108760871Y-94087461D01*
X108751093Y-94097018D01*
X108742152Y-94107657D01*
X108739357Y-94111444D01*
X108731501Y-94123465D01*
X108726692Y-94132014D01*
X108722227Y-94140990D01*
X108718106Y-94150393D01*
X108714327Y-94160224D01*
X108710893Y-94170482D01*
X108707802Y-94181168D01*
X108705054Y-94192281D01*
X108702650Y-94203821D01*
X108700589Y-94215789D01*
X108698871Y-94228184D01*
X108697498Y-94241007D01*
X108696467Y-94254257D01*
X108695780Y-94267935D01*
X108695437Y-94282040D01*
X108695394Y-94289253D01*
X108516859Y-94289253D01*
X108516852Y-94287787D01*
X108516952Y-94277196D01*
X108517253Y-94266733D01*
X108517754Y-94256397D01*
X108518455Y-94246190D01*
X108519357Y-94236110D01*
X108520459Y-94226158D01*
X108521761Y-94216334D01*
X108523264Y-94206638D01*
X108525893Y-94192333D01*
X108528974Y-94178316D01*
X108532505Y-94164587D01*
X108536487Y-94151145D01*
X108540920Y-94137991D01*
X108542498Y-94133670D01*
X108547491Y-94120940D01*
X108552853Y-94108580D01*
X108558585Y-94096589D01*
X108564686Y-94084967D01*
X108571156Y-94073714D01*
X108577995Y-94062830D01*
X108585204Y-94052316D01*
X108592781Y-94042171D01*
X108600728Y-94032395D01*
X108609044Y-94022988D01*
X108614794Y-94016922D01*
X108623756Y-94008139D01*
X108633057Y-93999743D01*
X108642698Y-93991733D01*
X108652678Y-93984110D01*
X108662997Y-93976872D01*
X108673655Y-93970022D01*
X108684653Y-93963557D01*
X108695989Y-93957479D01*
X108707665Y-93951788D01*
X108719680Y-93946483D01*
X108727878Y-93943161D01*
X108740417Y-93938490D01*
X108753214Y-93934279D01*
X108766269Y-93930528D01*
X108779581Y-93927235D01*
X108793151Y-93924402D01*
X108806978Y-93922029D01*
X108821063Y-93920115D01*
X108835406Y-93918660D01*
X108850006Y-93917665D01*
X108859883Y-93917256D01*
X108869874Y-93917052D01*
X108874912Y-93917027D01*
X108884870Y-93917129D01*
G37*
G36*
X109986217Y-94650000D02*
G01*
X109880216Y-94650000D01*
X109870004Y-94649224D01*
X109859402Y-94646248D01*
X109850604Y-94641038D01*
X109843608Y-94633597D01*
X109838416Y-94623922D01*
X109836496Y-94618248D01*
X109821842Y-94548639D01*
X109813531Y-94557859D01*
X109804992Y-94566745D01*
X109796226Y-94575296D01*
X109787232Y-94583512D01*
X109778010Y-94591393D01*
X109768562Y-94598939D01*
X109758885Y-94606151D01*
X109748981Y-94613027D01*
X109738850Y-94619569D01*
X109728490Y-94625776D01*
X109721458Y-94629727D01*
X109710670Y-94635227D01*
X109699556Y-94640186D01*
X109688116Y-94644604D01*
X109676349Y-94648481D01*
X109664256Y-94651817D01*
X109651837Y-94654611D01*
X109639092Y-94656865D01*
X109626020Y-94658579D01*
X109612622Y-94659751D01*
X109598898Y-94660382D01*
X109589567Y-94660502D01*
X109578570Y-94660287D01*
X109567745Y-94659643D01*
X109557092Y-94658570D01*
X109546611Y-94657067D01*
X109536301Y-94655135D01*
X109526163Y-94652774D01*
X109516197Y-94649983D01*
X109506402Y-94646763D01*
X109496779Y-94643114D01*
X109487328Y-94639035D01*
X109481123Y-94636078D01*
X109472036Y-94631259D01*
X109463185Y-94626054D01*
X109454571Y-94620463D01*
X109446192Y-94614485D01*
X109438050Y-94608121D01*
X109430144Y-94601370D01*
X109422474Y-94594233D01*
X109415040Y-94586710D01*
X109407842Y-94578800D01*
X109400881Y-94570504D01*
X109396371Y-94564759D01*
X109389872Y-94555773D01*
X109383657Y-94546400D01*
X109377725Y-94536642D01*
X109372076Y-94526497D01*
X109366711Y-94515965D01*
X109361629Y-94505047D01*
X109356831Y-94493743D01*
X109352315Y-94482052D01*
X109348084Y-94469975D01*
X109344135Y-94457511D01*
X109341660Y-94448988D01*
X109338212Y-94435856D01*
X109335103Y-94422380D01*
X109332333Y-94408562D01*
X109329902Y-94394399D01*
X109327811Y-94379894D01*
X109326605Y-94370032D01*
X109325550Y-94360018D01*
X109324645Y-94349852D01*
X109323891Y-94339532D01*
X109323288Y-94329061D01*
X109322836Y-94318436D01*
X109322535Y-94307659D01*
X109322384Y-94296729D01*
X109322365Y-94291207D01*
X109501639Y-94291207D01*
X109501730Y-94302898D01*
X109502000Y-94314250D01*
X109502451Y-94325264D01*
X109503082Y-94335938D01*
X109503893Y-94346272D01*
X109504885Y-94356268D01*
X109506488Y-94369068D01*
X109508411Y-94381265D01*
X109510655Y-94392859D01*
X109511898Y-94398429D01*
X109514596Y-94409168D01*
X109517561Y-94419404D01*
X109520793Y-94429135D01*
X109524293Y-94438363D01*
X109529043Y-94449189D01*
X109534211Y-94459229D01*
X109539795Y-94468481D01*
X109540963Y-94470237D01*
X109547119Y-94478562D01*
X109553680Y-94486136D01*
X109562090Y-94494234D01*
X109571083Y-94501249D01*
X109580660Y-94507182D01*
X109587369Y-94510537D01*
X109597933Y-94514687D01*
X109608927Y-94517979D01*
X109620350Y-94520411D01*
X109630197Y-94521783D01*
X109640343Y-94522558D01*
X109648674Y-94522749D01*
X109658696Y-94522551D01*
X109671613Y-94521674D01*
X109684018Y-94520094D01*
X109695911Y-94517812D01*
X109707293Y-94514827D01*
X109718164Y-94511141D01*
X109728523Y-94506752D01*
X109738371Y-94501661D01*
X109740753Y-94500279D01*
X109750210Y-94494306D01*
X109759529Y-94487746D01*
X109768711Y-94480598D01*
X109777756Y-94472862D01*
X109786663Y-94464539D01*
X109795433Y-94455628D01*
X109804065Y-94446129D01*
X109810450Y-94438619D01*
X109812561Y-94436043D01*
X109812561Y-94112665D01*
X109805088Y-94104021D01*
X109797448Y-94096041D01*
X109789640Y-94088726D01*
X109781664Y-94082074D01*
X109773520Y-94076086D01*
X109765208Y-94070762D01*
X109754582Y-94065041D01*
X109748080Y-94062107D01*
X109737111Y-94057815D01*
X109725879Y-94054250D01*
X109714385Y-94051413D01*
X109702628Y-94049303D01*
X109690609Y-94047921D01*
X109680805Y-94047339D01*
X109673342Y-94047208D01*
X109661239Y-94047572D01*
X109649505Y-94048663D01*
X109638140Y-94050482D01*
X109627146Y-94053028D01*
X109616521Y-94056302D01*
X109606266Y-94060303D01*
X109602267Y-94062107D01*
X109592572Y-94067062D01*
X109583329Y-94072769D01*
X109574540Y-94079227D01*
X109566203Y-94086436D01*
X109558320Y-94094396D01*
X109550891Y-94103108D01*
X109548046Y-94106803D01*
X109541280Y-94116515D01*
X109535027Y-94127025D01*
X109530394Y-94136009D01*
X109526089Y-94145503D01*
X109522113Y-94155510D01*
X109518465Y-94166028D01*
X109515144Y-94177057D01*
X109513607Y-94182763D01*
X109510802Y-94194502D01*
X109508371Y-94206760D01*
X109506314Y-94219537D01*
X109505017Y-94229460D01*
X109503930Y-94239675D01*
X109503054Y-94250183D01*
X109502387Y-94260982D01*
X109501932Y-94272073D01*
X109501686Y-94283456D01*
X109501639Y-94291207D01*
X109322365Y-94291207D01*
X109322450Y-94281237D01*
X109322705Y-94271354D01*
X109323129Y-94261560D01*
X109324085Y-94247033D01*
X109325422Y-94232703D01*
X109327141Y-94218571D01*
X109329243Y-94204636D01*
X109331727Y-94190899D01*
X109334593Y-94177359D01*
X109337840Y-94164017D01*
X109341470Y-94150872D01*
X109344103Y-94142219D01*
X109348346Y-94129422D01*
X109352924Y-94116951D01*
X109357837Y-94104807D01*
X109363085Y-94092988D01*
X109368668Y-94081497D01*
X109374585Y-94070331D01*
X109380838Y-94059492D01*
X109387425Y-94048979D01*
X109394348Y-94038792D01*
X109401605Y-94028932D01*
X109406629Y-94022540D01*
X109414418Y-94013253D01*
X109422491Y-94004353D01*
X109430848Y-93995839D01*
X109439487Y-93987712D01*
X109448410Y-93979971D01*
X109457617Y-93972617D01*
X109467106Y-93965649D01*
X109476879Y-93959067D01*
X109486936Y-93952872D01*
X109497275Y-93947063D01*
X109504326Y-93943405D01*
X109515165Y-93938298D01*
X109526248Y-93933693D01*
X109537576Y-93929591D01*
X109549148Y-93925991D01*
X109560966Y-93922894D01*
X109573028Y-93920298D01*
X109585335Y-93918205D01*
X109597886Y-93916615D01*
X109610683Y-93915526D01*
X109623724Y-93914940D01*
X109632554Y-93914829D01*
X109643713Y-93914996D01*
X109654567Y-93915498D01*
X109665116Y-93916335D01*
X109675361Y-93917508D01*
X109685301Y-93919015D01*
X109694936Y-93920856D01*
X109707308Y-93923833D01*
X109719139Y-93927405D01*
X109730427Y-93931573D01*
X109735868Y-93933879D01*
X109746470Y-93938848D01*
X109756782Y-93944229D01*
X109766803Y-93950022D01*
X109776535Y-93956228D01*
X109785976Y-93962845D01*
X109795128Y-93969875D01*
X109803989Y-93977317D01*
X109812561Y-93985170D01*
X109812561Y-93604640D01*
X109986217Y-93604640D01*
X109986217Y-94650000D01*
G37*
G36*
X110775610Y-93928262D02*
G01*
X110775610Y-94650000D01*
X110669364Y-94650000D01*
X110659223Y-94649224D01*
X110648690Y-94646248D01*
X110639943Y-94641038D01*
X110632982Y-94633597D01*
X110627807Y-94623922D01*
X110625889Y-94618248D01*
X110613921Y-94560607D01*
X110605507Y-94568926D01*
X110596934Y-94576941D01*
X110588202Y-94584651D01*
X110579311Y-94592057D01*
X110570262Y-94599157D01*
X110561053Y-94605953D01*
X110551686Y-94612444D01*
X110542160Y-94618630D01*
X110532475Y-94624511D01*
X110522631Y-94630087D01*
X110515980Y-94633635D01*
X110505827Y-94638568D01*
X110495335Y-94643015D01*
X110484503Y-94646977D01*
X110473333Y-94650454D01*
X110461823Y-94653445D01*
X110449974Y-94655952D01*
X110437786Y-94657973D01*
X110425259Y-94659510D01*
X110412393Y-94660561D01*
X110399187Y-94661127D01*
X110390195Y-94661235D01*
X110379233Y-94661059D01*
X110368511Y-94660531D01*
X110358029Y-94659650D01*
X110347788Y-94658418D01*
X110337788Y-94656834D01*
X110328027Y-94654898D01*
X110318508Y-94652609D01*
X110306189Y-94649011D01*
X110294297Y-94644786D01*
X110285659Y-94641207D01*
X110274584Y-94635940D01*
X110263952Y-94630155D01*
X110253762Y-94623850D01*
X110244016Y-94617027D01*
X110234711Y-94609684D01*
X110225850Y-94601823D01*
X110217431Y-94593442D01*
X110209455Y-94584542D01*
X110201937Y-94575173D01*
X110194892Y-94565385D01*
X110188321Y-94555176D01*
X110182222Y-94544548D01*
X110176597Y-94533499D01*
X110171445Y-94522032D01*
X110166766Y-94510144D01*
X110162561Y-94497836D01*
X110159767Y-94488312D01*
X110157248Y-94478608D01*
X110155004Y-94468723D01*
X110153035Y-94458658D01*
X110151341Y-94448413D01*
X110149921Y-94437987D01*
X110148776Y-94427381D01*
X110147906Y-94416595D01*
X110147311Y-94405628D01*
X110146990Y-94394481D01*
X110146929Y-94386950D01*
X110146929Y-93928262D01*
X110320586Y-93928262D01*
X110320586Y-94386950D01*
X110320854Y-94399097D01*
X110321659Y-94410715D01*
X110323001Y-94421805D01*
X110324879Y-94432368D01*
X110327294Y-94442402D01*
X110330246Y-94451908D01*
X110335016Y-94463761D01*
X110340740Y-94474676D01*
X110347419Y-94484652D01*
X110351116Y-94489288D01*
X110359229Y-94497760D01*
X110368305Y-94505102D01*
X110378341Y-94511315D01*
X110389340Y-94516399D01*
X110401300Y-94520352D01*
X110410902Y-94522576D01*
X110421044Y-94524165D01*
X110431727Y-94525118D01*
X110442951Y-94525436D01*
X110454099Y-94525123D01*
X110465071Y-94524184D01*
X110475867Y-94522619D01*
X110486488Y-94520429D01*
X110496933Y-94517612D01*
X110507202Y-94514170D01*
X110517297Y-94510102D01*
X110527215Y-94505408D01*
X110537038Y-94500164D01*
X110546724Y-94494447D01*
X110556272Y-94488257D01*
X110565683Y-94481594D01*
X110574957Y-94474458D01*
X110584093Y-94466848D01*
X110593092Y-94458765D01*
X110601953Y-94450209D01*
X110601953Y-93928262D01*
X110775610Y-93928262D01*
G37*
G36*
X111119016Y-93604640D02*
G01*
X111119016Y-94650000D01*
X110945359Y-94650000D01*
X110945359Y-93604640D01*
X111119016Y-93604640D01*
G37*
G36*
X111611149Y-93917220D02*
G01*
X111623649Y-93917800D01*
X111635964Y-93918766D01*
X111648095Y-93920118D01*
X111660041Y-93921857D01*
X111671803Y-93923982D01*
X111683380Y-93926494D01*
X111694772Y-93929392D01*
X111705980Y-93932676D01*
X111717003Y-93936347D01*
X111724249Y-93939009D01*
X111734957Y-93943260D01*
X111745373Y-93947864D01*
X111755496Y-93952820D01*
X111765328Y-93958128D01*
X111774868Y-93963788D01*
X111784116Y-93969800D01*
X111793071Y-93976164D01*
X111801735Y-93982881D01*
X111810107Y-93989949D01*
X111818187Y-93997369D01*
X111823412Y-94002512D01*
X111831038Y-94010512D01*
X111838347Y-94018852D01*
X111845338Y-94027531D01*
X111852011Y-94036549D01*
X111858367Y-94045907D01*
X111864405Y-94055603D01*
X111870125Y-94065639D01*
X111875527Y-94076014D01*
X111880612Y-94086728D01*
X111885379Y-94097781D01*
X111888381Y-94105338D01*
X111892614Y-94116891D01*
X111896432Y-94128745D01*
X111899833Y-94140900D01*
X111902818Y-94153355D01*
X111905386Y-94166110D01*
X111907537Y-94179166D01*
X111909273Y-94192523D01*
X111910591Y-94206180D01*
X111911494Y-94220137D01*
X111911980Y-94234395D01*
X111912072Y-94244068D01*
X111911863Y-94255801D01*
X111911237Y-94266269D01*
X111909935Y-94277163D01*
X111907656Y-94287571D01*
X111903524Y-94297313D01*
X111896807Y-94304526D01*
X111887037Y-94309067D01*
X111877023Y-94310777D01*
X111871284Y-94310990D01*
X111424808Y-94310990D01*
X111425685Y-94321255D01*
X111426760Y-94331258D01*
X111428032Y-94340999D01*
X111430035Y-94353579D01*
X111432390Y-94365694D01*
X111435096Y-94377343D01*
X111438153Y-94388527D01*
X111441561Y-94399245D01*
X111444347Y-94406978D01*
X111448404Y-94416893D01*
X111452758Y-94426365D01*
X111457410Y-94435394D01*
X111462360Y-94443981D01*
X111468966Y-94454091D01*
X111476037Y-94463511D01*
X111483573Y-94472238D01*
X111485136Y-94473900D01*
X111493300Y-94481816D01*
X111501918Y-94489075D01*
X111510989Y-94495678D01*
X111520513Y-94501626D01*
X111530490Y-94506917D01*
X111540920Y-94511553D01*
X111545219Y-94513224D01*
X111556313Y-94516953D01*
X111567764Y-94520050D01*
X111579573Y-94522515D01*
X111589278Y-94524032D01*
X111599212Y-94525144D01*
X111609375Y-94525852D01*
X111619766Y-94526156D01*
X111622400Y-94526168D01*
X111632780Y-94526016D01*
X111642794Y-94525558D01*
X111654797Y-94524556D01*
X111666226Y-94523077D01*
X111677084Y-94521121D01*
X111687369Y-94518688D01*
X111695184Y-94516399D01*
X111704534Y-94513228D01*
X111715251Y-94509312D01*
X111725417Y-94505276D01*
X111735034Y-94501120D01*
X111744102Y-94496844D01*
X111748429Y-94494661D01*
X111758205Y-94489530D01*
X111767443Y-94484610D01*
X111776144Y-94479900D01*
X111785429Y-94474775D01*
X111788729Y-94472923D01*
X111798387Y-94468083D01*
X111807852Y-94464826D01*
X111818142Y-94463066D01*
X111822191Y-94462909D01*
X111832357Y-94463917D01*
X111842116Y-94467459D01*
X111850097Y-94473551D01*
X111854431Y-94479030D01*
X111904501Y-94542288D01*
X111897185Y-94550604D01*
X111889648Y-94558576D01*
X111881889Y-94566205D01*
X111873909Y-94573490D01*
X111865708Y-94580432D01*
X111857285Y-94587031D01*
X111848641Y-94593286D01*
X111839776Y-94599197D01*
X111830751Y-94604734D01*
X111821626Y-94609989D01*
X111812402Y-94614962D01*
X111803079Y-94619652D01*
X111793656Y-94624060D01*
X111784135Y-94628186D01*
X111774514Y-94632029D01*
X111764794Y-94635589D01*
X111755001Y-94638883D01*
X111745163Y-94641924D01*
X111735278Y-94644714D01*
X111725348Y-94647252D01*
X111715373Y-94649538D01*
X111705351Y-94651572D01*
X111695284Y-94653354D01*
X111685170Y-94654884D01*
X111675130Y-94656201D01*
X111665158Y-94657342D01*
X111655255Y-94658308D01*
X111645420Y-94659098D01*
X111635654Y-94659712D01*
X111623543Y-94660233D01*
X111611540Y-94660480D01*
X111606769Y-94660502D01*
X111592756Y-94660283D01*
X111578928Y-94659626D01*
X111565284Y-94658531D01*
X111551825Y-94656999D01*
X111538551Y-94655028D01*
X111525461Y-94652619D01*
X111512556Y-94649773D01*
X111499836Y-94646489D01*
X111487300Y-94642766D01*
X111474949Y-94638606D01*
X111466817Y-94635589D01*
X111454830Y-94630708D01*
X111443138Y-94625405D01*
X111431743Y-94619682D01*
X111420644Y-94613539D01*
X111409841Y-94606974D01*
X111399335Y-94599989D01*
X111389125Y-94592583D01*
X111379211Y-94584756D01*
X111369593Y-94576509D01*
X111360271Y-94567840D01*
X111354221Y-94561828D01*
X111345467Y-94552421D01*
X111337065Y-94542611D01*
X111329015Y-94532397D01*
X111321317Y-94521780D01*
X111313971Y-94510759D01*
X111306978Y-94499334D01*
X111300336Y-94487506D01*
X111294046Y-94475274D01*
X111288108Y-94462639D01*
X111282523Y-94449600D01*
X111278995Y-94440683D01*
X111274106Y-94426972D01*
X111271114Y-94417607D01*
X111268336Y-94408062D01*
X111265771Y-94398338D01*
X111263420Y-94388435D01*
X111261283Y-94378352D01*
X111259360Y-94368090D01*
X111257650Y-94357649D01*
X111256154Y-94347028D01*
X111254872Y-94336228D01*
X111253803Y-94325249D01*
X111252948Y-94314090D01*
X111252307Y-94302752D01*
X111251880Y-94291234D01*
X111251666Y-94279537D01*
X111251639Y-94273621D01*
X111251850Y-94259868D01*
X111252481Y-94246270D01*
X111253533Y-94232826D01*
X111255005Y-94219537D01*
X111256899Y-94206402D01*
X111256933Y-94206210D01*
X111428227Y-94206210D01*
X111756001Y-94206210D01*
X111755768Y-94195702D01*
X111755071Y-94185397D01*
X111753908Y-94175295D01*
X111752280Y-94165395D01*
X111750187Y-94155698D01*
X111747629Y-94146204D01*
X111746475Y-94142463D01*
X111742568Y-94131546D01*
X111737992Y-94121145D01*
X111732745Y-94111259D01*
X111726829Y-94101888D01*
X111720243Y-94093032D01*
X111717899Y-94090195D01*
X111710477Y-94082020D01*
X111702317Y-94074533D01*
X111693418Y-94067732D01*
X111683781Y-94061618D01*
X111673406Y-94056192D01*
X111669783Y-94054535D01*
X111660462Y-94050806D01*
X111650664Y-94047709D01*
X111640388Y-94045244D01*
X111629636Y-94043411D01*
X111618406Y-94042210D01*
X111606700Y-94041641D01*
X111601884Y-94041591D01*
X111588060Y-94041968D01*
X111574798Y-94043102D01*
X111562100Y-94044991D01*
X111549963Y-94047636D01*
X111538389Y-94051036D01*
X111527377Y-94055192D01*
X111516928Y-94060103D01*
X111507041Y-94065771D01*
X111497717Y-94072193D01*
X111488955Y-94079372D01*
X111483426Y-94084577D01*
X111475595Y-94092909D01*
X111468313Y-94101877D01*
X111461581Y-94111479D01*
X111455399Y-94121717D01*
X111449766Y-94132591D01*
X111444683Y-94144100D01*
X111440149Y-94156244D01*
X111436165Y-94169024D01*
X111432730Y-94182440D01*
X111429845Y-94196490D01*
X111428227Y-94206210D01*
X111256933Y-94206210D01*
X111259213Y-94193422D01*
X111261948Y-94180596D01*
X111265103Y-94167925D01*
X111268680Y-94155409D01*
X111272677Y-94143047D01*
X111275575Y-94134891D01*
X111280246Y-94122814D01*
X111285281Y-94111038D01*
X111290681Y-94099562D01*
X111296447Y-94088386D01*
X111302577Y-94077511D01*
X111309072Y-94066936D01*
X111315932Y-94056663D01*
X111323157Y-94046689D01*
X111330747Y-94037016D01*
X111338701Y-94027644D01*
X111344207Y-94021563D01*
X111352760Y-94012673D01*
X111361656Y-94004140D01*
X111370895Y-93995964D01*
X111380478Y-93988143D01*
X111390404Y-93980679D01*
X111400673Y-93973572D01*
X111411286Y-93966821D01*
X111422243Y-93960426D01*
X111433543Y-93954387D01*
X111445187Y-93948705D01*
X111453140Y-93945115D01*
X111465374Y-93940095D01*
X111477895Y-93935569D01*
X111490704Y-93931537D01*
X111503801Y-93927999D01*
X111517186Y-93924954D01*
X111530858Y-93922403D01*
X111544817Y-93920346D01*
X111559065Y-93918782D01*
X111573600Y-93917712D01*
X111583450Y-93917274D01*
X111593427Y-93917054D01*
X111598464Y-93917027D01*
X111611149Y-93917220D01*
G37*
G36*
X94936317Y-95313056D02*
G01*
X94948891Y-95313308D01*
X94961238Y-95313728D01*
X94973357Y-95314316D01*
X94985250Y-95315071D01*
X94996915Y-95315995D01*
X95008354Y-95317086D01*
X95019565Y-95318346D01*
X95030549Y-95319773D01*
X95041307Y-95321368D01*
X95051837Y-95323131D01*
X95062140Y-95325062D01*
X95072216Y-95327161D01*
X95082065Y-95329428D01*
X95091686Y-95331863D01*
X95101081Y-95334466D01*
X95114767Y-95338604D01*
X95127980Y-95343052D01*
X95140721Y-95347809D01*
X95152990Y-95352875D01*
X95164787Y-95358251D01*
X95176111Y-95363935D01*
X95186964Y-95369929D01*
X95197343Y-95376231D01*
X95207251Y-95382843D01*
X95216686Y-95389764D01*
X95222714Y-95394549D01*
X95231423Y-95401920D01*
X95239690Y-95409562D01*
X95247515Y-95417474D01*
X95254897Y-95425656D01*
X95261837Y-95434109D01*
X95268335Y-95442832D01*
X95274391Y-95451826D01*
X95280004Y-95461090D01*
X95285176Y-95470625D01*
X95289905Y-95480430D01*
X95292812Y-95487117D01*
X95296827Y-95497289D01*
X95300448Y-95507654D01*
X95303674Y-95518212D01*
X95306505Y-95528963D01*
X95308940Y-95539908D01*
X95310981Y-95551045D01*
X95312627Y-95562376D01*
X95313878Y-95573900D01*
X95314734Y-95585617D01*
X95315194Y-95597528D01*
X95315282Y-95605575D01*
X95315046Y-95618310D01*
X95314336Y-95630870D01*
X95313153Y-95643253D01*
X95311496Y-95655462D01*
X95309367Y-95667495D01*
X95306764Y-95679352D01*
X95303688Y-95691033D01*
X95300139Y-95702540D01*
X95296143Y-95713828D01*
X95291728Y-95724857D01*
X95286893Y-95735627D01*
X95281638Y-95746137D01*
X95275963Y-95756388D01*
X95269868Y-95766379D01*
X95263354Y-95776110D01*
X95256420Y-95785582D01*
X95249123Y-95794779D01*
X95241399Y-95803687D01*
X95233247Y-95812304D01*
X95224668Y-95820631D01*
X95215662Y-95828668D01*
X95206228Y-95836415D01*
X95196366Y-95843872D01*
X95186078Y-95851039D01*
X95175453Y-95857874D01*
X95164462Y-95864335D01*
X95153105Y-95870422D01*
X95141381Y-95876135D01*
X95132348Y-95880175D01*
X95123109Y-95884003D01*
X95113663Y-95887622D01*
X95104012Y-95891030D01*
X95094155Y-95894228D01*
X95090823Y-95895247D01*
X95099799Y-95900743D01*
X95108408Y-95906727D01*
X95116652Y-95913199D01*
X95124528Y-95920160D01*
X95132161Y-95927701D01*
X95139427Y-95935914D01*
X95145485Y-95943651D01*
X95151262Y-95951902D01*
X95152861Y-95954354D01*
X95407362Y-96330000D01*
X95236392Y-96330000D01*
X95224714Y-96329404D01*
X95213860Y-96327618D01*
X95203831Y-96324641D01*
X95194626Y-96320474D01*
X95186246Y-96315116D01*
X95178689Y-96308567D01*
X95171957Y-96300828D01*
X95166050Y-96291898D01*
X94952337Y-95966322D01*
X94946201Y-95957834D01*
X94938932Y-95949892D01*
X94931277Y-95943649D01*
X94925959Y-95940432D01*
X94916771Y-95936654D01*
X94906788Y-95934334D01*
X94896650Y-95933105D01*
X94885203Y-95932624D01*
X94883461Y-95932616D01*
X94802372Y-95932616D01*
X94802372Y-96330000D01*
X94613328Y-96330000D01*
X94613328Y-95459274D01*
X94802372Y-95459274D01*
X94802372Y-95796817D01*
X94920586Y-95796817D01*
X94930495Y-95796701D01*
X94943333Y-95796186D01*
X94955743Y-95795259D01*
X94967726Y-95793919D01*
X94979282Y-95792168D01*
X94990411Y-95790004D01*
X95001111Y-95787428D01*
X95011385Y-95784440D01*
X95013886Y-95783628D01*
X95023618Y-95780113D01*
X95032907Y-95776286D01*
X95043895Y-95771061D01*
X95054192Y-95765347D01*
X95063797Y-95759145D01*
X95072711Y-95752453D01*
X95079344Y-95746748D01*
X95087036Y-95739135D01*
X95094084Y-95731106D01*
X95100488Y-95722658D01*
X95106248Y-95713794D01*
X95111365Y-95704512D01*
X95115837Y-95694813D01*
X95117445Y-95690816D01*
X95121104Y-95680510D01*
X95124143Y-95669893D01*
X95126562Y-95658967D01*
X95128360Y-95647730D01*
X95129538Y-95636183D01*
X95130096Y-95624327D01*
X95130146Y-95619497D01*
X95129697Y-95605298D01*
X95128351Y-95591734D01*
X95126108Y-95578805D01*
X95122968Y-95566512D01*
X95118930Y-95554854D01*
X95113995Y-95543831D01*
X95108162Y-95533444D01*
X95101432Y-95523693D01*
X95093805Y-95514577D01*
X95085281Y-95506096D01*
X95079099Y-95500795D01*
X95069099Y-95493375D01*
X95058151Y-95486684D01*
X95046253Y-95480724D01*
X95033407Y-95475493D01*
X95019612Y-95470992D01*
X95009888Y-95468397D01*
X94999742Y-95466126D01*
X94989175Y-95464180D01*
X94978186Y-95462558D01*
X94966775Y-95461261D01*
X94954943Y-95460287D01*
X94942688Y-95459639D01*
X94930013Y-95459314D01*
X94923517Y-95459274D01*
X94802372Y-95459274D01*
X94613328Y-95459274D01*
X94613328Y-95312972D01*
X94923517Y-95312972D01*
X94936317Y-95313056D01*
G37*
G36*
X95758811Y-95597220D02*
G01*
X95771311Y-95597800D01*
X95783627Y-95598766D01*
X95795757Y-95600118D01*
X95807704Y-95601857D01*
X95819465Y-95603982D01*
X95831042Y-95606494D01*
X95842435Y-95609392D01*
X95853642Y-95612676D01*
X95864665Y-95616347D01*
X95871912Y-95619009D01*
X95882619Y-95623260D01*
X95893035Y-95627864D01*
X95903158Y-95632820D01*
X95912990Y-95638128D01*
X95922530Y-95643788D01*
X95931778Y-95649800D01*
X95940734Y-95656164D01*
X95949398Y-95662881D01*
X95957770Y-95669949D01*
X95965850Y-95677369D01*
X95971074Y-95682512D01*
X95978701Y-95690512D01*
X95986009Y-95698852D01*
X95993000Y-95707531D01*
X95999673Y-95716549D01*
X96006029Y-95725907D01*
X96012067Y-95735603D01*
X96017787Y-95745639D01*
X96023189Y-95756014D01*
X96028274Y-95766728D01*
X96033041Y-95777781D01*
X96036043Y-95785338D01*
X96040277Y-95796891D01*
X96044094Y-95808745D01*
X96047495Y-95820900D01*
X96050480Y-95833355D01*
X96053048Y-95846110D01*
X96055200Y-95859166D01*
X96056935Y-95872523D01*
X96058254Y-95886180D01*
X96059156Y-95900137D01*
X96059642Y-95914395D01*
X96059734Y-95924068D01*
X96059526Y-95935801D01*
X96058900Y-95946269D01*
X96057597Y-95957163D01*
X96055318Y-95967571D01*
X96051186Y-95977313D01*
X96044469Y-95984526D01*
X96034699Y-95989067D01*
X96024685Y-95990777D01*
X96018946Y-95990990D01*
X95572470Y-95990990D01*
X95573347Y-96001255D01*
X95574422Y-96011258D01*
X95575694Y-96020999D01*
X95577698Y-96033579D01*
X95580052Y-96045694D01*
X95582758Y-96057343D01*
X95585815Y-96068527D01*
X95589223Y-96079245D01*
X95592009Y-96086978D01*
X95596066Y-96096893D01*
X95600420Y-96106365D01*
X95605072Y-96115394D01*
X95610022Y-96123981D01*
X95616628Y-96134091D01*
X95623699Y-96143511D01*
X95631235Y-96152238D01*
X95632798Y-96153900D01*
X95640962Y-96161816D01*
X95649580Y-96169075D01*
X95658651Y-96175678D01*
X95668175Y-96181626D01*
X95678152Y-96186917D01*
X95688583Y-96191553D01*
X95692882Y-96193224D01*
X95703975Y-96196953D01*
X95715426Y-96200050D01*
X95727235Y-96202515D01*
X95736940Y-96204032D01*
X95746874Y-96205144D01*
X95757037Y-96205852D01*
X95767429Y-96206156D01*
X95770062Y-96206168D01*
X95780443Y-96206016D01*
X95790457Y-96205558D01*
X95802459Y-96204556D01*
X95813889Y-96203077D01*
X95824746Y-96201121D01*
X95835031Y-96198688D01*
X95842847Y-96196399D01*
X95852197Y-96193228D01*
X95862913Y-96189312D01*
X95873079Y-96185276D01*
X95882696Y-96181120D01*
X95891764Y-96176844D01*
X95896092Y-96174661D01*
X95905867Y-96169530D01*
X95915105Y-96164610D01*
X95923806Y-96159900D01*
X95933091Y-96154775D01*
X95936392Y-96152923D01*
X95946050Y-96148083D01*
X95955514Y-96144826D01*
X95965804Y-96143066D01*
X95969853Y-96142909D01*
X95980020Y-96143917D01*
X95989778Y-96147459D01*
X95997760Y-96153551D01*
X96002093Y-96159030D01*
X96052163Y-96222288D01*
X96044847Y-96230604D01*
X96037310Y-96238576D01*
X96029551Y-96246205D01*
X96021571Y-96253490D01*
X96013370Y-96260432D01*
X96004948Y-96267031D01*
X95996304Y-96273286D01*
X95987438Y-96279197D01*
X95978413Y-96284734D01*
X95969288Y-96289989D01*
X95960064Y-96294962D01*
X95950741Y-96299652D01*
X95941319Y-96304060D01*
X95931797Y-96308186D01*
X95922176Y-96312029D01*
X95912456Y-96315589D01*
X95902663Y-96318883D01*
X95892825Y-96321924D01*
X95882941Y-96324714D01*
X95873011Y-96327252D01*
X95863035Y-96329538D01*
X95853013Y-96331572D01*
X95842946Y-96333354D01*
X95832833Y-96334884D01*
X95822792Y-96336201D01*
X95812820Y-96337342D01*
X95802917Y-96338308D01*
X95793082Y-96339098D01*
X95783316Y-96339712D01*
X95771206Y-96340233D01*
X95759202Y-96340480D01*
X95754431Y-96340502D01*
X95740418Y-96340283D01*
X95726590Y-96339626D01*
X95712946Y-96338531D01*
X95699488Y-96336999D01*
X95686213Y-96335028D01*
X95673124Y-96332619D01*
X95660219Y-96329773D01*
X95647498Y-96326489D01*
X95634962Y-96322766D01*
X95622611Y-96318606D01*
X95614480Y-96315589D01*
X95602492Y-96310708D01*
X95590800Y-96305405D01*
X95579405Y-96299682D01*
X95568306Y-96293539D01*
X95557504Y-96286974D01*
X95546997Y-96279989D01*
X95536787Y-96272583D01*
X95526873Y-96264756D01*
X95517255Y-96256509D01*
X95507933Y-96247840D01*
X95501884Y-96241828D01*
X95493130Y-96232421D01*
X95484728Y-96222611D01*
X95476678Y-96212397D01*
X95468980Y-96201780D01*
X95461634Y-96190759D01*
X95454640Y-96179334D01*
X95447998Y-96167506D01*
X95441708Y-96155274D01*
X95435771Y-96142639D01*
X95430185Y-96129600D01*
X95426657Y-96120683D01*
X95421768Y-96106972D01*
X95418776Y-96097607D01*
X95415998Y-96088062D01*
X95413433Y-96078338D01*
X95411083Y-96068435D01*
X95408945Y-96058352D01*
X95407022Y-96048090D01*
X95405312Y-96037649D01*
X95403816Y-96027028D01*
X95402534Y-96016228D01*
X95401466Y-96005249D01*
X95400611Y-95994090D01*
X95399970Y-95982752D01*
X95399542Y-95971234D01*
X95399328Y-95959537D01*
X95399302Y-95953621D01*
X95399512Y-95939868D01*
X95400143Y-95926270D01*
X95401195Y-95912826D01*
X95402668Y-95899537D01*
X95404561Y-95886402D01*
X95404595Y-95886210D01*
X95575889Y-95886210D01*
X95903663Y-95886210D01*
X95903431Y-95875702D01*
X95902733Y-95865397D01*
X95901570Y-95855295D01*
X95899942Y-95845395D01*
X95897849Y-95835698D01*
X95895291Y-95826204D01*
X95894138Y-95822463D01*
X95890231Y-95811546D01*
X95885654Y-95801145D01*
X95880408Y-95791259D01*
X95874491Y-95781888D01*
X95867905Y-95773032D01*
X95865561Y-95770195D01*
X95858140Y-95762020D01*
X95849979Y-95754533D01*
X95841081Y-95747732D01*
X95831444Y-95741618D01*
X95821068Y-95736192D01*
X95817445Y-95734535D01*
X95808124Y-95730806D01*
X95798326Y-95727709D01*
X95788050Y-95725244D01*
X95777298Y-95723411D01*
X95766069Y-95722210D01*
X95754362Y-95721641D01*
X95749546Y-95721591D01*
X95735722Y-95721968D01*
X95722461Y-95723102D01*
X95709762Y-95724991D01*
X95697625Y-95727636D01*
X95686051Y-95731036D01*
X95675039Y-95735192D01*
X95664590Y-95740103D01*
X95654703Y-95745771D01*
X95645379Y-95752193D01*
X95636617Y-95759372D01*
X95631088Y-95764577D01*
X95623257Y-95772909D01*
X95615976Y-95781877D01*
X95609244Y-95791479D01*
X95603061Y-95801717D01*
X95597428Y-95812591D01*
X95592345Y-95824100D01*
X95587811Y-95836244D01*
X95583827Y-95849024D01*
X95580392Y-95862440D01*
X95577507Y-95876490D01*
X95575889Y-95886210D01*
X95404595Y-95886210D01*
X95406875Y-95873422D01*
X95409610Y-95860596D01*
X95412766Y-95847925D01*
X95416342Y-95835409D01*
X95420339Y-95823047D01*
X95423237Y-95814891D01*
X95427908Y-95802814D01*
X95432943Y-95791038D01*
X95438344Y-95779562D01*
X95444109Y-95768386D01*
X95450239Y-95757511D01*
X95456734Y-95746936D01*
X95463594Y-95736663D01*
X95470819Y-95726689D01*
X95478409Y-95717016D01*
X95486364Y-95707644D01*
X95491870Y-95701563D01*
X95500422Y-95692673D01*
X95509318Y-95684140D01*
X95518557Y-95675964D01*
X95528140Y-95668143D01*
X95538066Y-95660679D01*
X95548336Y-95653572D01*
X95558949Y-95646821D01*
X95569905Y-95640426D01*
X95581205Y-95634387D01*
X95592849Y-95628705D01*
X95600802Y-95625115D01*
X95613036Y-95620095D01*
X95625557Y-95615569D01*
X95638367Y-95611537D01*
X95651463Y-95607999D01*
X95664848Y-95604954D01*
X95678520Y-95602403D01*
X95692480Y-95600346D01*
X95706727Y-95598782D01*
X95721262Y-95597712D01*
X95731112Y-95597274D01*
X95741090Y-95597054D01*
X95746127Y-95597027D01*
X95758811Y-95597220D01*
G37*
G36*
X96818108Y-95608262D02*
G01*
X96531856Y-96330000D01*
X96374319Y-96330000D01*
X96088066Y-95608262D01*
X96231437Y-95608262D01*
X96242024Y-95608996D01*
X96252519Y-95611534D01*
X96261678Y-95615884D01*
X96264166Y-95617543D01*
X96272165Y-95624362D01*
X96278029Y-95632393D01*
X96281507Y-95640746D01*
X96420725Y-96026161D01*
X96424165Y-96036665D01*
X96427461Y-96047108D01*
X96430614Y-96057492D01*
X96433624Y-96067816D01*
X96436491Y-96078081D01*
X96439215Y-96088286D01*
X96440265Y-96092351D01*
X96442882Y-96102432D01*
X96445393Y-96112525D01*
X96447796Y-96122630D01*
X96450092Y-96132747D01*
X96452280Y-96142875D01*
X96454361Y-96153016D01*
X96455163Y-96157076D01*
X96457407Y-96146930D01*
X96459710Y-96136797D01*
X96462072Y-96126675D01*
X96464494Y-96116566D01*
X96466976Y-96106468D01*
X96469518Y-96096382D01*
X96470551Y-96092351D01*
X96473306Y-96082170D01*
X96476228Y-96071929D01*
X96479316Y-96061629D01*
X96482572Y-96051269D01*
X96485995Y-96040849D01*
X96489585Y-96030370D01*
X96491067Y-96026161D01*
X96633217Y-95640746D01*
X96637498Y-95631613D01*
X96643627Y-95623692D01*
X96650802Y-95617543D01*
X96660111Y-95612259D01*
X96669575Y-95609359D01*
X96679994Y-95608271D01*
X96681088Y-95608262D01*
X96818108Y-95608262D01*
G37*
G36*
X97855163Y-96199818D02*
G01*
X97855163Y-96330000D01*
X97292428Y-96330000D01*
X97292428Y-96199818D01*
X97498569Y-96199818D01*
X97498569Y-95606796D01*
X97498617Y-95595758D01*
X97498760Y-95584624D01*
X97498998Y-95573394D01*
X97499332Y-95562069D01*
X97499762Y-95550649D01*
X97500286Y-95539134D01*
X97500523Y-95534501D01*
X97354221Y-95656866D01*
X97345547Y-95662717D01*
X97336217Y-95667125D01*
X97329309Y-95669078D01*
X97319588Y-95670337D01*
X97309570Y-95670070D01*
X97306106Y-95669567D01*
X97296338Y-95666862D01*
X97287103Y-95662557D01*
X97286566Y-95662240D01*
X97278538Y-95655885D01*
X97274110Y-95650516D01*
X97219155Y-95575289D01*
X97529344Y-95311507D01*
X97672226Y-95311507D01*
X97672226Y-96199818D01*
X97855163Y-96199818D01*
G37*
G36*
X97999511Y-96234256D02*
G01*
X98000015Y-96223525D01*
X98001526Y-96213068D01*
X98004045Y-96202886D01*
X98007571Y-96192979D01*
X98011967Y-96183454D01*
X98017096Y-96174661D01*
X98022958Y-96166601D01*
X98029553Y-96159274D01*
X98036972Y-96152542D01*
X98045062Y-96146512D01*
X98053825Y-96141185D01*
X98063258Y-96136559D01*
X98073333Y-96132819D01*
X98083775Y-96130148D01*
X98094583Y-96128545D01*
X98104340Y-96128019D01*
X98105757Y-96128011D01*
X98116793Y-96128545D01*
X98127433Y-96130148D01*
X98137676Y-96132819D01*
X98147522Y-96136559D01*
X98156864Y-96141185D01*
X98165596Y-96146512D01*
X98173717Y-96152542D01*
X98181228Y-96159274D01*
X98188051Y-96166601D01*
X98194112Y-96174661D01*
X98199409Y-96183454D01*
X98203942Y-96192979D01*
X98207682Y-96202886D01*
X98210354Y-96213068D01*
X98211956Y-96223525D01*
X98212491Y-96234256D01*
X98211956Y-96245308D01*
X98210354Y-96255994D01*
X98207682Y-96266313D01*
X98203942Y-96276266D01*
X98199409Y-96285593D01*
X98194112Y-96294279D01*
X98188051Y-96302324D01*
X98181228Y-96309727D01*
X98173717Y-96316322D01*
X98165596Y-96322184D01*
X98156864Y-96327313D01*
X98147522Y-96331709D01*
X98137676Y-96335235D01*
X98127433Y-96337754D01*
X98116793Y-96339265D01*
X98105757Y-96339769D01*
X98095959Y-96339384D01*
X98085106Y-96337998D01*
X98074619Y-96335605D01*
X98064498Y-96332205D01*
X98063258Y-96331709D01*
X98053825Y-96327313D01*
X98045062Y-96322184D01*
X98036972Y-96316322D01*
X98029553Y-96309727D01*
X98022958Y-96302324D01*
X98017096Y-96294279D01*
X98011967Y-96285593D01*
X98007571Y-96276266D01*
X98004045Y-96266313D01*
X98001526Y-96255994D01*
X98000015Y-96245308D01*
X97999511Y-96234256D01*
G37*
G36*
X98687654Y-95301616D02*
G01*
X98697450Y-95301985D01*
X98711987Y-95303001D01*
X98726336Y-95304570D01*
X98740495Y-95306693D01*
X98754466Y-95309370D01*
X98768247Y-95312600D01*
X98781840Y-95316385D01*
X98795244Y-95320723D01*
X98808459Y-95325616D01*
X98821485Y-95331062D01*
X98825785Y-95333000D01*
X98838492Y-95339150D01*
X98850878Y-95345874D01*
X98862941Y-95353175D01*
X98874683Y-95361050D01*
X98886102Y-95369501D01*
X98897200Y-95378527D01*
X98907975Y-95388128D01*
X98918429Y-95398305D01*
X98925219Y-95405409D01*
X98931866Y-95412768D01*
X98938370Y-95420384D01*
X98944731Y-95428255D01*
X98950934Y-95436386D01*
X98956966Y-95444783D01*
X98962826Y-95453445D01*
X98968514Y-95462373D01*
X98974030Y-95471565D01*
X98979375Y-95481023D01*
X98984548Y-95490746D01*
X98989549Y-95500734D01*
X98994379Y-95510987D01*
X98999037Y-95521506D01*
X99003523Y-95532290D01*
X99007837Y-95543339D01*
X99011980Y-95554653D01*
X99015951Y-95566233D01*
X99019750Y-95578078D01*
X99023377Y-95590188D01*
X99026837Y-95602540D01*
X99030075Y-95615173D01*
X99033089Y-95628087D01*
X99035879Y-95641280D01*
X99038447Y-95654755D01*
X99040791Y-95668510D01*
X99042912Y-95682545D01*
X99044809Y-95696861D01*
X99046484Y-95711457D01*
X99047935Y-95726334D01*
X99049163Y-95741492D01*
X99050167Y-95756929D01*
X99050949Y-95772648D01*
X99051507Y-95788647D01*
X99051842Y-95804926D01*
X99051953Y-95821486D01*
X99051842Y-95837959D01*
X99051507Y-95854161D01*
X99050949Y-95870092D01*
X99050167Y-95885752D01*
X99049163Y-95901141D01*
X99047935Y-95916260D01*
X99046484Y-95931107D01*
X99044809Y-95945683D01*
X99042912Y-95959989D01*
X99040791Y-95974023D01*
X99038447Y-95987787D01*
X99035879Y-96001279D01*
X99033089Y-96014501D01*
X99030075Y-96027451D01*
X99026837Y-96040131D01*
X99023377Y-96052540D01*
X99019750Y-96064679D01*
X99015951Y-96076552D01*
X99011980Y-96088157D01*
X99007837Y-96099495D01*
X99003523Y-96110566D01*
X98999037Y-96121370D01*
X98994379Y-96131907D01*
X98989549Y-96142177D01*
X98984548Y-96152179D01*
X98979375Y-96161915D01*
X98974030Y-96171383D01*
X98968514Y-96180584D01*
X98962826Y-96189518D01*
X98956966Y-96198185D01*
X98950934Y-96206584D01*
X98944731Y-96214717D01*
X98938370Y-96222588D01*
X98931866Y-96230203D01*
X98925219Y-96237563D01*
X98918429Y-96244667D01*
X98907975Y-96254844D01*
X98897200Y-96264445D01*
X98886102Y-96273471D01*
X98874683Y-96281922D01*
X98862941Y-96289797D01*
X98850878Y-96297097D01*
X98838492Y-96303822D01*
X98825785Y-96309972D01*
X98812822Y-96315559D01*
X98799670Y-96320596D01*
X98786329Y-96325084D01*
X98772799Y-96329023D01*
X98759081Y-96332411D01*
X98745173Y-96335251D01*
X98731077Y-96337540D01*
X98716791Y-96339281D01*
X98702317Y-96340471D01*
X98687654Y-96341113D01*
X98677773Y-96341235D01*
X98667866Y-96341113D01*
X98658051Y-96340746D01*
X98643499Y-96339739D01*
X98629154Y-96338182D01*
X98615014Y-96336075D01*
X98601081Y-96333419D01*
X98587354Y-96330213D01*
X98573833Y-96326458D01*
X98560518Y-96322153D01*
X98547409Y-96317299D01*
X98534506Y-96311895D01*
X98530251Y-96309972D01*
X98517676Y-96303822D01*
X98505415Y-96297097D01*
X98493468Y-96289797D01*
X98481833Y-96281922D01*
X98470513Y-96273471D01*
X98459505Y-96264445D01*
X98448811Y-96254844D01*
X98438431Y-96244667D01*
X98431684Y-96237563D01*
X98425077Y-96230203D01*
X98418610Y-96222588D01*
X98412281Y-96214717D01*
X98406138Y-96206584D01*
X98400165Y-96198185D01*
X98394361Y-96189518D01*
X98388727Y-96180584D01*
X98383263Y-96171383D01*
X98377969Y-96161915D01*
X98372845Y-96152179D01*
X98367890Y-96142177D01*
X98363106Y-96131907D01*
X98358491Y-96121370D01*
X98354046Y-96110566D01*
X98349771Y-96099495D01*
X98345665Y-96088157D01*
X98341730Y-96076552D01*
X98337964Y-96064679D01*
X98334368Y-96052540D01*
X98330967Y-96040131D01*
X98327785Y-96027451D01*
X98324822Y-96014501D01*
X98322079Y-96001279D01*
X98319556Y-95987787D01*
X98317252Y-95974023D01*
X98315167Y-95959989D01*
X98313302Y-95945683D01*
X98311656Y-95931107D01*
X98310230Y-95916260D01*
X98309023Y-95901141D01*
X98308036Y-95885752D01*
X98307267Y-95870092D01*
X98306719Y-95854161D01*
X98306390Y-95837959D01*
X98306280Y-95821486D01*
X98485554Y-95821486D01*
X98485616Y-95835138D01*
X98485802Y-95848494D01*
X98486112Y-95861554D01*
X98486547Y-95874319D01*
X98487105Y-95886787D01*
X98487787Y-95898960D01*
X98488593Y-95910838D01*
X98489523Y-95922419D01*
X98490577Y-95933705D01*
X98491756Y-95944695D01*
X98493058Y-95955389D01*
X98494484Y-95965788D01*
X98496035Y-95975890D01*
X98497709Y-95985697D01*
X98500453Y-95999853D01*
X98501430Y-96004424D01*
X98504501Y-96017722D01*
X98507761Y-96030504D01*
X98511210Y-96042772D01*
X98514848Y-96054524D01*
X98518675Y-96065761D01*
X98522691Y-96076483D01*
X98526895Y-96086690D01*
X98531289Y-96096381D01*
X98535871Y-96105557D01*
X98540642Y-96114219D01*
X98543928Y-96119706D01*
X98550767Y-96130052D01*
X98557850Y-96139597D01*
X98565177Y-96148340D01*
X98572749Y-96156282D01*
X98580565Y-96163422D01*
X98588625Y-96169761D01*
X98596929Y-96175298D01*
X98605478Y-96180034D01*
X98616452Y-96184960D01*
X98627545Y-96189050D01*
X98638758Y-96192306D01*
X98650090Y-96194727D01*
X98661541Y-96196313D01*
X98673112Y-96197065D01*
X98677773Y-96197131D01*
X98689538Y-96196714D01*
X98701172Y-96195462D01*
X98712675Y-96193375D01*
X98724046Y-96190453D01*
X98735286Y-96186696D01*
X98746395Y-96182105D01*
X98750802Y-96180034D01*
X98759469Y-96175298D01*
X98767884Y-96169761D01*
X98776047Y-96163422D01*
X98783958Y-96156282D01*
X98791617Y-96148340D01*
X98799025Y-96139597D01*
X98806180Y-96130052D01*
X98813084Y-96119706D01*
X98819690Y-96108502D01*
X98824419Y-96099497D01*
X98828955Y-96089977D01*
X98833298Y-96079943D01*
X98837447Y-96069392D01*
X98841403Y-96058327D01*
X98845167Y-96046746D01*
X98848736Y-96034651D01*
X98852113Y-96022040D01*
X98855297Y-96008914D01*
X98856315Y-96004424D01*
X98859196Y-95990490D01*
X98860959Y-95980831D01*
X98862596Y-95970876D01*
X98864107Y-95960625D01*
X98865493Y-95950079D01*
X98866752Y-95939237D01*
X98867885Y-95928099D01*
X98868893Y-95916665D01*
X98869775Y-95904936D01*
X98870530Y-95892911D01*
X98871160Y-95880590D01*
X98871664Y-95867973D01*
X98872041Y-95855061D01*
X98872293Y-95841853D01*
X98872419Y-95828349D01*
X98872435Y-95821486D01*
X98872372Y-95807834D01*
X98872183Y-95794478D01*
X98871868Y-95781418D01*
X98871427Y-95768653D01*
X98870861Y-95756184D01*
X98870168Y-95744011D01*
X98869349Y-95732134D01*
X98868405Y-95720553D01*
X98867334Y-95709267D01*
X98866138Y-95698277D01*
X98864816Y-95687583D01*
X98863367Y-95677184D01*
X98861793Y-95667081D01*
X98860093Y-95657275D01*
X98857307Y-95643119D01*
X98856315Y-95638548D01*
X98853196Y-95625209D01*
X98849884Y-95612393D01*
X98846378Y-95600101D01*
X98842679Y-95588333D01*
X98838787Y-95577089D01*
X98834702Y-95566369D01*
X98830424Y-95556172D01*
X98825952Y-95546499D01*
X98821288Y-95537350D01*
X98816430Y-95528725D01*
X98813084Y-95523265D01*
X98806180Y-95512923D01*
X98799025Y-95503390D01*
X98791617Y-95494666D01*
X98783958Y-95486751D01*
X98776047Y-95479645D01*
X98767884Y-95473348D01*
X98759469Y-95467860D01*
X98750802Y-95463182D01*
X98739745Y-95458186D01*
X98728558Y-95454037D01*
X98717239Y-95450735D01*
X98705789Y-95448279D01*
X98694208Y-95446670D01*
X98682495Y-95445908D01*
X98677773Y-95445840D01*
X98666155Y-95446264D01*
X98654656Y-95447534D01*
X98643276Y-95449651D01*
X98632016Y-95452614D01*
X98620875Y-95456425D01*
X98609853Y-95461082D01*
X98605478Y-95463182D01*
X98594830Y-95469157D01*
X98586587Y-95474847D01*
X98578588Y-95481346D01*
X98570833Y-95488654D01*
X98563323Y-95496771D01*
X98556057Y-95505698D01*
X98549035Y-95515433D01*
X98543928Y-95523265D01*
X98537441Y-95534417D01*
X98532795Y-95543391D01*
X98528339Y-95552889D01*
X98524071Y-95562911D01*
X98519993Y-95573457D01*
X98516103Y-95584527D01*
X98512402Y-95596120D01*
X98508890Y-95608238D01*
X98505567Y-95620879D01*
X98502433Y-95634043D01*
X98501430Y-95638548D01*
X98498593Y-95652482D01*
X98496856Y-95662141D01*
X98495244Y-95672096D01*
X98493756Y-95682346D01*
X98492391Y-95692893D01*
X98491151Y-95703735D01*
X98490035Y-95714873D01*
X98489043Y-95726306D01*
X98488174Y-95738036D01*
X98487430Y-95750061D01*
X98486810Y-95762382D01*
X98486314Y-95774998D01*
X98485942Y-95787911D01*
X98485694Y-95801119D01*
X98485570Y-95814623D01*
X98485554Y-95821486D01*
X98306280Y-95821486D01*
X98306390Y-95804926D01*
X98306719Y-95788647D01*
X98307267Y-95772648D01*
X98308036Y-95756929D01*
X98309023Y-95741492D01*
X98310230Y-95726334D01*
X98311656Y-95711457D01*
X98313302Y-95696861D01*
X98315167Y-95682545D01*
X98317252Y-95668510D01*
X98319556Y-95654755D01*
X98322079Y-95641280D01*
X98324822Y-95628087D01*
X98327785Y-95615173D01*
X98330967Y-95602540D01*
X98334368Y-95590188D01*
X98337964Y-95578078D01*
X98341730Y-95566233D01*
X98345665Y-95554653D01*
X98349771Y-95543339D01*
X98354046Y-95532290D01*
X98358491Y-95521506D01*
X98363106Y-95510987D01*
X98367890Y-95500734D01*
X98372845Y-95490746D01*
X98377969Y-95481023D01*
X98383263Y-95471565D01*
X98388727Y-95462373D01*
X98394361Y-95453445D01*
X98400165Y-95444783D01*
X98406138Y-95436386D01*
X98412281Y-95428255D01*
X98418610Y-95420384D01*
X98425077Y-95412768D01*
X98431684Y-95405409D01*
X98438431Y-95398305D01*
X98448811Y-95388128D01*
X98459505Y-95378527D01*
X98470513Y-95369501D01*
X98481833Y-95361050D01*
X98493468Y-95353175D01*
X98505415Y-95345874D01*
X98517676Y-95339150D01*
X98530251Y-95333000D01*
X98543085Y-95327369D01*
X98556125Y-95322293D01*
X98569372Y-95317770D01*
X98582824Y-95313800D01*
X98596483Y-95310385D01*
X98610347Y-95307524D01*
X98624418Y-95305216D01*
X98638695Y-95303462D01*
X98653177Y-95302262D01*
X98662947Y-95301770D01*
X98672808Y-95301524D01*
X98677773Y-95301493D01*
X98687654Y-95301616D01*
G37*
G36*
X99143545Y-96234256D02*
G01*
X99144048Y-96223525D01*
X99145560Y-96213068D01*
X99148078Y-96202886D01*
X99151605Y-96192979D01*
X99156001Y-96183454D01*
X99161130Y-96174661D01*
X99166992Y-96166601D01*
X99173586Y-96159274D01*
X99181005Y-96152542D01*
X99189096Y-96146512D01*
X99197858Y-96141185D01*
X99207292Y-96136559D01*
X99217367Y-96132819D01*
X99227808Y-96130148D01*
X99238616Y-96128545D01*
X99248373Y-96128019D01*
X99249790Y-96128011D01*
X99260827Y-96128545D01*
X99271467Y-96130148D01*
X99281710Y-96132819D01*
X99291556Y-96136559D01*
X99300898Y-96141185D01*
X99309630Y-96146512D01*
X99317751Y-96152542D01*
X99325261Y-96159274D01*
X99332085Y-96166601D01*
X99338145Y-96174661D01*
X99343442Y-96183454D01*
X99347976Y-96192979D01*
X99351716Y-96202886D01*
X99354387Y-96213068D01*
X99355990Y-96223525D01*
X99356524Y-96234256D01*
X99355990Y-96245308D01*
X99354387Y-96255994D01*
X99351716Y-96266313D01*
X99347976Y-96276266D01*
X99343442Y-96285593D01*
X99338145Y-96294279D01*
X99332085Y-96302324D01*
X99325261Y-96309727D01*
X99317751Y-96316322D01*
X99309630Y-96322184D01*
X99300898Y-96327313D01*
X99291556Y-96331709D01*
X99281710Y-96335235D01*
X99271467Y-96337754D01*
X99260827Y-96339265D01*
X99249790Y-96339769D01*
X99239993Y-96339384D01*
X99229139Y-96337998D01*
X99218652Y-96335605D01*
X99208531Y-96332205D01*
X99207292Y-96331709D01*
X99197858Y-96327313D01*
X99189096Y-96322184D01*
X99181005Y-96316322D01*
X99173586Y-96309727D01*
X99166992Y-96302324D01*
X99161130Y-96294279D01*
X99156001Y-96285593D01*
X99151605Y-96276266D01*
X99148078Y-96266313D01*
X99145560Y-96255994D01*
X99144048Y-96245308D01*
X99143545Y-96234256D01*
G37*
G36*
X99831687Y-95301616D02*
G01*
X99841484Y-95301985D01*
X99856021Y-95303001D01*
X99870369Y-95304570D01*
X99884529Y-95306693D01*
X99898499Y-95309370D01*
X99912281Y-95312600D01*
X99925873Y-95316385D01*
X99939277Y-95320723D01*
X99952492Y-95325616D01*
X99965518Y-95331062D01*
X99969818Y-95333000D01*
X99982526Y-95339150D01*
X99994911Y-95345874D01*
X100006975Y-95353175D01*
X100018716Y-95361050D01*
X100030136Y-95369501D01*
X100041233Y-95378527D01*
X100052009Y-95388128D01*
X100062462Y-95398305D01*
X100069253Y-95405409D01*
X100075900Y-95412768D01*
X100082404Y-95420384D01*
X100088764Y-95428255D01*
X100094968Y-95436386D01*
X100100999Y-95444783D01*
X100106859Y-95453445D01*
X100112547Y-95462373D01*
X100118064Y-95471565D01*
X100123409Y-95481023D01*
X100128582Y-95490746D01*
X100133583Y-95500734D01*
X100138412Y-95510987D01*
X100143070Y-95521506D01*
X100147556Y-95532290D01*
X100151871Y-95543339D01*
X100156013Y-95554653D01*
X100159984Y-95566233D01*
X100163783Y-95578078D01*
X100167411Y-95590188D01*
X100170871Y-95602540D01*
X100174108Y-95615173D01*
X100177122Y-95628087D01*
X100179913Y-95641280D01*
X100182480Y-95654755D01*
X100184824Y-95668510D01*
X100186945Y-95682545D01*
X100188843Y-95696861D01*
X100190517Y-95711457D01*
X100191968Y-95726334D01*
X100193196Y-95741492D01*
X100194201Y-95756929D01*
X100194982Y-95772648D01*
X100195540Y-95788647D01*
X100195875Y-95804926D01*
X100195987Y-95821486D01*
X100195875Y-95837959D01*
X100195540Y-95854161D01*
X100194982Y-95870092D01*
X100194201Y-95885752D01*
X100193196Y-95901141D01*
X100191968Y-95916260D01*
X100190517Y-95931107D01*
X100188843Y-95945683D01*
X100186945Y-95959989D01*
X100184824Y-95974023D01*
X100182480Y-95987787D01*
X100179913Y-96001279D01*
X100177122Y-96014501D01*
X100174108Y-96027451D01*
X100170871Y-96040131D01*
X100167411Y-96052540D01*
X100163783Y-96064679D01*
X100159984Y-96076552D01*
X100156013Y-96088157D01*
X100151871Y-96099495D01*
X100147556Y-96110566D01*
X100143070Y-96121370D01*
X100138412Y-96131907D01*
X100133583Y-96142177D01*
X100128582Y-96152179D01*
X100123409Y-96161915D01*
X100118064Y-96171383D01*
X100112547Y-96180584D01*
X100106859Y-96189518D01*
X100100999Y-96198185D01*
X100094968Y-96206584D01*
X100088764Y-96214717D01*
X100082404Y-96222588D01*
X100075900Y-96230203D01*
X100069253Y-96237563D01*
X100062462Y-96244667D01*
X100052009Y-96254844D01*
X100041233Y-96264445D01*
X100030136Y-96273471D01*
X100018716Y-96281922D01*
X100006975Y-96289797D01*
X99994911Y-96297097D01*
X99982526Y-96303822D01*
X99969818Y-96309972D01*
X99956855Y-96315559D01*
X99943703Y-96320596D01*
X99930362Y-96325084D01*
X99916833Y-96329023D01*
X99903114Y-96332411D01*
X99889206Y-96335251D01*
X99875110Y-96337540D01*
X99860825Y-96339281D01*
X99846350Y-96340471D01*
X99831687Y-96341113D01*
X99821807Y-96341235D01*
X99811900Y-96341113D01*
X99802084Y-96340746D01*
X99787533Y-96339739D01*
X99773187Y-96338182D01*
X99759048Y-96336075D01*
X99745115Y-96333419D01*
X99731387Y-96330213D01*
X99717866Y-96326458D01*
X99704551Y-96322153D01*
X99691442Y-96317299D01*
X99678539Y-96311895D01*
X99674284Y-96309972D01*
X99661710Y-96303822D01*
X99649449Y-96297097D01*
X99637501Y-96289797D01*
X99625867Y-96281922D01*
X99614546Y-96273471D01*
X99603539Y-96264445D01*
X99592845Y-96254844D01*
X99582464Y-96244667D01*
X99575718Y-96237563D01*
X99569111Y-96230203D01*
X99562643Y-96222588D01*
X99556315Y-96214717D01*
X99550172Y-96206584D01*
X99544198Y-96198185D01*
X99538395Y-96189518D01*
X99532761Y-96180584D01*
X99527297Y-96171383D01*
X99522003Y-96161915D01*
X99516878Y-96152179D01*
X99511924Y-96142177D01*
X99507139Y-96131907D01*
X99502524Y-96121370D01*
X99498079Y-96110566D01*
X99493804Y-96099495D01*
X99489699Y-96088157D01*
X99485763Y-96076552D01*
X99481997Y-96064679D01*
X99478401Y-96052540D01*
X99475000Y-96040131D01*
X99471818Y-96027451D01*
X99468856Y-96014501D01*
X99466113Y-96001279D01*
X99463589Y-95987787D01*
X99461285Y-95974023D01*
X99459201Y-95959989D01*
X99457336Y-95945683D01*
X99455690Y-95931107D01*
X99454263Y-95916260D01*
X99453056Y-95901141D01*
X99452069Y-95885752D01*
X99451301Y-95870092D01*
X99450752Y-95854161D01*
X99450423Y-95837959D01*
X99450314Y-95821486D01*
X99629588Y-95821486D01*
X99629650Y-95835138D01*
X99629836Y-95848494D01*
X99630146Y-95861554D01*
X99630580Y-95874319D01*
X99631138Y-95886787D01*
X99631820Y-95898960D01*
X99632627Y-95910838D01*
X99633557Y-95922419D01*
X99634611Y-95933705D01*
X99635789Y-95944695D01*
X99637092Y-95955389D01*
X99638518Y-95965788D01*
X99640068Y-95975890D01*
X99641743Y-95985697D01*
X99644487Y-95999853D01*
X99645464Y-96004424D01*
X99648535Y-96017722D01*
X99651795Y-96030504D01*
X99655244Y-96042772D01*
X99658882Y-96054524D01*
X99662708Y-96065761D01*
X99666724Y-96076483D01*
X99670929Y-96086690D01*
X99675322Y-96096381D01*
X99679905Y-96105557D01*
X99684676Y-96114219D01*
X99687962Y-96119706D01*
X99694801Y-96130052D01*
X99701884Y-96139597D01*
X99709211Y-96148340D01*
X99716782Y-96156282D01*
X99724598Y-96163422D01*
X99732658Y-96169761D01*
X99740963Y-96175298D01*
X99749511Y-96180034D01*
X99760485Y-96184960D01*
X99771579Y-96189050D01*
X99782791Y-96192306D01*
X99794123Y-96194727D01*
X99805575Y-96196313D01*
X99817145Y-96197065D01*
X99821807Y-96197131D01*
X99833572Y-96196714D01*
X99845206Y-96195462D01*
X99856708Y-96193375D01*
X99868079Y-96190453D01*
X99879320Y-96186696D01*
X99890429Y-96182105D01*
X99894836Y-96180034D01*
X99903502Y-96175298D01*
X99911917Y-96169761D01*
X99920080Y-96163422D01*
X99927991Y-96156282D01*
X99935651Y-96148340D01*
X99943058Y-96139597D01*
X99950214Y-96130052D01*
X99957117Y-96119706D01*
X99963723Y-96108502D01*
X99968453Y-96099497D01*
X99972988Y-96089977D01*
X99977331Y-96079943D01*
X99981481Y-96069392D01*
X99985437Y-96058327D01*
X99989200Y-96046746D01*
X99992770Y-96034651D01*
X99996147Y-96022040D01*
X99999330Y-96008914D01*
X100000348Y-96004424D01*
X100003229Y-95990490D01*
X100004992Y-95980831D01*
X100006630Y-95970876D01*
X100008141Y-95960625D01*
X100009526Y-95950079D01*
X100010786Y-95939237D01*
X100011919Y-95928099D01*
X100012926Y-95916665D01*
X100013808Y-95904936D01*
X100014564Y-95892911D01*
X100015193Y-95880590D01*
X100015697Y-95867973D01*
X100016075Y-95855061D01*
X100016327Y-95841853D01*
X100016453Y-95828349D01*
X100016468Y-95821486D01*
X100016405Y-95807834D01*
X100016217Y-95794478D01*
X100015902Y-95781418D01*
X100015461Y-95768653D01*
X100014894Y-95756184D01*
X100014202Y-95744011D01*
X100013383Y-95732134D01*
X100012438Y-95720553D01*
X100011368Y-95709267D01*
X100010172Y-95698277D01*
X100008849Y-95687583D01*
X100007401Y-95677184D01*
X100005827Y-95667081D01*
X100004127Y-95657275D01*
X100001340Y-95643119D01*
X100000348Y-95638548D01*
X99997229Y-95625209D01*
X99993917Y-95612393D01*
X99990412Y-95600101D01*
X99986713Y-95588333D01*
X99982821Y-95577089D01*
X99978736Y-95566369D01*
X99974457Y-95556172D01*
X99969986Y-95546499D01*
X99965321Y-95537350D01*
X99960463Y-95528725D01*
X99957117Y-95523265D01*
X99950214Y-95512923D01*
X99943058Y-95503390D01*
X99935651Y-95494666D01*
X99927991Y-95486751D01*
X99920080Y-95479645D01*
X99911917Y-95473348D01*
X99903502Y-95467860D01*
X99894836Y-95463182D01*
X99883779Y-95458186D01*
X99872591Y-95454037D01*
X99861272Y-95450735D01*
X99849822Y-95448279D01*
X99838241Y-95446670D01*
X99826529Y-95445908D01*
X99821807Y-95445840D01*
X99810189Y-95446264D01*
X99798690Y-95447534D01*
X99787310Y-95449651D01*
X99776050Y-95452614D01*
X99764908Y-95456425D01*
X99753886Y-95461082D01*
X99749511Y-95463182D01*
X99738864Y-95469157D01*
X99730620Y-95474847D01*
X99722621Y-95481346D01*
X99714867Y-95488654D01*
X99707356Y-95496771D01*
X99700090Y-95505698D01*
X99693068Y-95515433D01*
X99687962Y-95523265D01*
X99681474Y-95534417D01*
X99676829Y-95543391D01*
X99672372Y-95552889D01*
X99668105Y-95562911D01*
X99664026Y-95573457D01*
X99660136Y-95584527D01*
X99656435Y-95596120D01*
X99652923Y-95608238D01*
X99649600Y-95620879D01*
X99646466Y-95634043D01*
X99645464Y-95638548D01*
X99642626Y-95652482D01*
X99640890Y-95662141D01*
X99639278Y-95672096D01*
X99637789Y-95682346D01*
X99636425Y-95692893D01*
X99635185Y-95703735D01*
X99634068Y-95714873D01*
X99633076Y-95726306D01*
X99632208Y-95738036D01*
X99631464Y-95750061D01*
X99630844Y-95762382D01*
X99630347Y-95774998D01*
X99629975Y-95787911D01*
X99629727Y-95801119D01*
X99629603Y-95814623D01*
X99629588Y-95821486D01*
X99450314Y-95821486D01*
X99450423Y-95804926D01*
X99450752Y-95788647D01*
X99451301Y-95772648D01*
X99452069Y-95756929D01*
X99453056Y-95741492D01*
X99454263Y-95726334D01*
X99455690Y-95711457D01*
X99457336Y-95696861D01*
X99459201Y-95682545D01*
X99461285Y-95668510D01*
X99463589Y-95654755D01*
X99466113Y-95641280D01*
X99468856Y-95628087D01*
X99471818Y-95615173D01*
X99475000Y-95602540D01*
X99478401Y-95590188D01*
X99481997Y-95578078D01*
X99485763Y-95566233D01*
X99489699Y-95554653D01*
X99493804Y-95543339D01*
X99498079Y-95532290D01*
X99502524Y-95521506D01*
X99507139Y-95510987D01*
X99511924Y-95500734D01*
X99516878Y-95490746D01*
X99522003Y-95481023D01*
X99527297Y-95471565D01*
X99532761Y-95462373D01*
X99538395Y-95453445D01*
X99544198Y-95444783D01*
X99550172Y-95436386D01*
X99556315Y-95428255D01*
X99562643Y-95420384D01*
X99569111Y-95412768D01*
X99575718Y-95405409D01*
X99582464Y-95398305D01*
X99592845Y-95388128D01*
X99603539Y-95378527D01*
X99614546Y-95369501D01*
X99625867Y-95361050D01*
X99637501Y-95353175D01*
X99649449Y-95345874D01*
X99661710Y-95339150D01*
X99674284Y-95333000D01*
X99687118Y-95327369D01*
X99700159Y-95322293D01*
X99713405Y-95317770D01*
X99726857Y-95313800D01*
X99740516Y-95310385D01*
X99754381Y-95307524D01*
X99768451Y-95305216D01*
X99782728Y-95303462D01*
X99797211Y-95302262D01*
X99806981Y-95301770D01*
X99816842Y-95301524D01*
X99821807Y-95301493D01*
X99831687Y-95301616D01*
G37*
D11*
X120659580Y-86666666D02*
X120707200Y-86714285D01*
X120707200Y-86714285D02*
X120754819Y-86857142D01*
X120754819Y-86857142D02*
X120754819Y-86952380D01*
X120754819Y-86952380D02*
X120707200Y-87095237D01*
X120707200Y-87095237D02*
X120611961Y-87190475D01*
X120611961Y-87190475D02*
X120516723Y-87238094D01*
X120516723Y-87238094D02*
X120326247Y-87285713D01*
X120326247Y-87285713D02*
X120183390Y-87285713D01*
X120183390Y-87285713D02*
X119992914Y-87238094D01*
X119992914Y-87238094D02*
X119897676Y-87190475D01*
X119897676Y-87190475D02*
X119802438Y-87095237D01*
X119802438Y-87095237D02*
X119754819Y-86952380D01*
X119754819Y-86952380D02*
X119754819Y-86857142D01*
X119754819Y-86857142D02*
X119802438Y-86714285D01*
X119802438Y-86714285D02*
X119850057Y-86666666D01*
X119850057Y-86285713D02*
X119802438Y-86238094D01*
X119802438Y-86238094D02*
X119754819Y-86142856D01*
X119754819Y-86142856D02*
X119754819Y-85904761D01*
X119754819Y-85904761D02*
X119802438Y-85809523D01*
X119802438Y-85809523D02*
X119850057Y-85761904D01*
X119850057Y-85761904D02*
X119945295Y-85714285D01*
X119945295Y-85714285D02*
X120040533Y-85714285D01*
X120040533Y-85714285D02*
X120183390Y-85761904D01*
X120183390Y-85761904D02*
X120754819Y-86333332D01*
X120754819Y-86333332D02*
X120754819Y-85714285D01*
X111054819Y-86166666D02*
X110578628Y-86499999D01*
X111054819Y-86738094D02*
X110054819Y-86738094D01*
X110054819Y-86738094D02*
X110054819Y-86357142D01*
X110054819Y-86357142D02*
X110102438Y-86261904D01*
X110102438Y-86261904D02*
X110150057Y-86214285D01*
X110150057Y-86214285D02*
X110245295Y-86166666D01*
X110245295Y-86166666D02*
X110388152Y-86166666D01*
X110388152Y-86166666D02*
X110483390Y-86214285D01*
X110483390Y-86214285D02*
X110531009Y-86261904D01*
X110531009Y-86261904D02*
X110578628Y-86357142D01*
X110578628Y-86357142D02*
X110578628Y-86738094D01*
X110150057Y-85785713D02*
X110102438Y-85738094D01*
X110102438Y-85738094D02*
X110054819Y-85642856D01*
X110054819Y-85642856D02*
X110054819Y-85404761D01*
X110054819Y-85404761D02*
X110102438Y-85309523D01*
X110102438Y-85309523D02*
X110150057Y-85261904D01*
X110150057Y-85261904D02*
X110245295Y-85214285D01*
X110245295Y-85214285D02*
X110340533Y-85214285D01*
X110340533Y-85214285D02*
X110483390Y-85261904D01*
X110483390Y-85261904D02*
X111054819Y-85833332D01*
X111054819Y-85833332D02*
X111054819Y-85214285D01*
X131954819Y-82061904D02*
X131954819Y-82538094D01*
X131954819Y-82538094D02*
X130954819Y-82538094D01*
X131431009Y-81728570D02*
X131431009Y-81395237D01*
X131954819Y-81252380D02*
X131954819Y-81728570D01*
X131954819Y-81728570D02*
X130954819Y-81728570D01*
X130954819Y-81728570D02*
X130954819Y-81252380D01*
X131954819Y-80823808D02*
X130954819Y-80823808D01*
X130954819Y-80823808D02*
X130954819Y-80585713D01*
X130954819Y-80585713D02*
X131002438Y-80442856D01*
X131002438Y-80442856D02*
X131097676Y-80347618D01*
X131097676Y-80347618D02*
X131192914Y-80299999D01*
X131192914Y-80299999D02*
X131383390Y-80252380D01*
X131383390Y-80252380D02*
X131526247Y-80252380D01*
X131526247Y-80252380D02*
X131716723Y-80299999D01*
X131716723Y-80299999D02*
X131811961Y-80347618D01*
X131811961Y-80347618D02*
X131907200Y-80442856D01*
X131907200Y-80442856D02*
X131954819Y-80585713D01*
X131954819Y-80585713D02*
X131954819Y-80823808D01*
X131573866Y-79823808D02*
X131573866Y-79061904D01*
X131954819Y-79442856D02*
X131192914Y-79442856D01*
X131954819Y-89861904D02*
X131954819Y-90338094D01*
X131954819Y-90338094D02*
X130954819Y-90338094D01*
X131431009Y-89528570D02*
X131431009Y-89195237D01*
X131954819Y-89052380D02*
X131954819Y-89528570D01*
X131954819Y-89528570D02*
X130954819Y-89528570D01*
X130954819Y-89528570D02*
X130954819Y-89052380D01*
X131954819Y-88623808D02*
X130954819Y-88623808D01*
X130954819Y-88623808D02*
X130954819Y-88385713D01*
X130954819Y-88385713D02*
X131002438Y-88242856D01*
X131002438Y-88242856D02*
X131097676Y-88147618D01*
X131097676Y-88147618D02*
X131192914Y-88099999D01*
X131192914Y-88099999D02*
X131383390Y-88052380D01*
X131383390Y-88052380D02*
X131526247Y-88052380D01*
X131526247Y-88052380D02*
X131716723Y-88099999D01*
X131716723Y-88099999D02*
X131811961Y-88147618D01*
X131811961Y-88147618D02*
X131907200Y-88242856D01*
X131907200Y-88242856D02*
X131954819Y-88385713D01*
X131954819Y-88385713D02*
X131954819Y-88623808D01*
X131573866Y-87623808D02*
X131573866Y-86861904D01*
X99854819Y-85816666D02*
X99378628Y-86149999D01*
X99854819Y-86388094D02*
X98854819Y-86388094D01*
X98854819Y-86388094D02*
X98854819Y-86007142D01*
X98854819Y-86007142D02*
X98902438Y-85911904D01*
X98902438Y-85911904D02*
X98950057Y-85864285D01*
X98950057Y-85864285D02*
X99045295Y-85816666D01*
X99045295Y-85816666D02*
X99188152Y-85816666D01*
X99188152Y-85816666D02*
X99283390Y-85864285D01*
X99283390Y-85864285D02*
X99331009Y-85911904D01*
X99331009Y-85911904D02*
X99378628Y-86007142D01*
X99378628Y-86007142D02*
X99378628Y-86388094D01*
X98854819Y-85483332D02*
X98854819Y-84864285D01*
X98854819Y-84864285D02*
X99235771Y-85197618D01*
X99235771Y-85197618D02*
X99235771Y-85054761D01*
X99235771Y-85054761D02*
X99283390Y-84959523D01*
X99283390Y-84959523D02*
X99331009Y-84911904D01*
X99331009Y-84911904D02*
X99426247Y-84864285D01*
X99426247Y-84864285D02*
X99664342Y-84864285D01*
X99664342Y-84864285D02*
X99759580Y-84911904D01*
X99759580Y-84911904D02*
X99807200Y-84959523D01*
X99807200Y-84959523D02*
X99854819Y-85054761D01*
X99854819Y-85054761D02*
X99854819Y-85340475D01*
X99854819Y-85340475D02*
X99807200Y-85435713D01*
X99807200Y-85435713D02*
X99759580Y-85483332D01*
X87997561Y-86888095D02*
X88045180Y-86792857D01*
X88045180Y-86792857D02*
X88045180Y-86650000D01*
X88045180Y-86650000D02*
X87997561Y-86507143D01*
X87997561Y-86507143D02*
X87902323Y-86411905D01*
X87902323Y-86411905D02*
X87807085Y-86364286D01*
X87807085Y-86364286D02*
X87616609Y-86316667D01*
X87616609Y-86316667D02*
X87473752Y-86316667D01*
X87473752Y-86316667D02*
X87283276Y-86364286D01*
X87283276Y-86364286D02*
X87188038Y-86411905D01*
X87188038Y-86411905D02*
X87092800Y-86507143D01*
X87092800Y-86507143D02*
X87045180Y-86650000D01*
X87045180Y-86650000D02*
X87045180Y-86745238D01*
X87045180Y-86745238D02*
X87092800Y-86888095D01*
X87092800Y-86888095D02*
X87140419Y-86935714D01*
X87140419Y-86935714D02*
X87473752Y-86935714D01*
X87473752Y-86935714D02*
X87473752Y-86745238D01*
X87045180Y-87364286D02*
X88045180Y-87364286D01*
X88045180Y-87364286D02*
X87045180Y-87935714D01*
X87045180Y-87935714D02*
X88045180Y-87935714D01*
X87045180Y-88411905D02*
X88045180Y-88411905D01*
X88045180Y-88411905D02*
X88045180Y-88650000D01*
X88045180Y-88650000D02*
X87997561Y-88792857D01*
X87997561Y-88792857D02*
X87902323Y-88888095D01*
X87902323Y-88888095D02*
X87807085Y-88935714D01*
X87807085Y-88935714D02*
X87616609Y-88983333D01*
X87616609Y-88983333D02*
X87473752Y-88983333D01*
X87473752Y-88983333D02*
X87283276Y-88935714D01*
X87283276Y-88935714D02*
X87188038Y-88888095D01*
X87188038Y-88888095D02*
X87092800Y-88792857D01*
X87092800Y-88792857D02*
X87045180Y-88650000D01*
X87045180Y-88650000D02*
X87045180Y-88411905D01*
X88045180Y-78716667D02*
X87045180Y-79050000D01*
X87045180Y-79050000D02*
X88045180Y-79383333D01*
X87010895Y-80126191D02*
X86972800Y-80088095D01*
X86972800Y-80088095D02*
X86934704Y-79973810D01*
X86934704Y-79973810D02*
X86934704Y-79897619D01*
X86934704Y-79897619D02*
X86972800Y-79783333D01*
X86972800Y-79783333D02*
X87048990Y-79707143D01*
X87048990Y-79707143D02*
X87125180Y-79669048D01*
X87125180Y-79669048D02*
X87277561Y-79630952D01*
X87277561Y-79630952D02*
X87391847Y-79630952D01*
X87391847Y-79630952D02*
X87544228Y-79669048D01*
X87544228Y-79669048D02*
X87620419Y-79707143D01*
X87620419Y-79707143D02*
X87696609Y-79783333D01*
X87696609Y-79783333D02*
X87734704Y-79897619D01*
X87734704Y-79897619D02*
X87734704Y-79973810D01*
X87734704Y-79973810D02*
X87696609Y-80088095D01*
X87696609Y-80088095D02*
X87658514Y-80126191D01*
X87010895Y-80926191D02*
X86972800Y-80888095D01*
X86972800Y-80888095D02*
X86934704Y-80773810D01*
X86934704Y-80773810D02*
X86934704Y-80697619D01*
X86934704Y-80697619D02*
X86972800Y-80583333D01*
X86972800Y-80583333D02*
X87048990Y-80507143D01*
X87048990Y-80507143D02*
X87125180Y-80469048D01*
X87125180Y-80469048D02*
X87277561Y-80430952D01*
X87277561Y-80430952D02*
X87391847Y-80430952D01*
X87391847Y-80430952D02*
X87544228Y-80469048D01*
X87544228Y-80469048D02*
X87620419Y-80507143D01*
X87620419Y-80507143D02*
X87696609Y-80583333D01*
X87696609Y-80583333D02*
X87734704Y-80697619D01*
X87734704Y-80697619D02*
X87734704Y-80773810D01*
X87734704Y-80773810D02*
X87696609Y-80888095D01*
X87696609Y-80888095D02*
X87658514Y-80926191D01*
X122059580Y-86666666D02*
X122107200Y-86714285D01*
X122107200Y-86714285D02*
X122154819Y-86857142D01*
X122154819Y-86857142D02*
X122154819Y-86952380D01*
X122154819Y-86952380D02*
X122107200Y-87095237D01*
X122107200Y-87095237D02*
X122011961Y-87190475D01*
X122011961Y-87190475D02*
X121916723Y-87238094D01*
X121916723Y-87238094D02*
X121726247Y-87285713D01*
X121726247Y-87285713D02*
X121583390Y-87285713D01*
X121583390Y-87285713D02*
X121392914Y-87238094D01*
X121392914Y-87238094D02*
X121297676Y-87190475D01*
X121297676Y-87190475D02*
X121202438Y-87095237D01*
X121202438Y-87095237D02*
X121154819Y-86952380D01*
X121154819Y-86952380D02*
X121154819Y-86857142D01*
X121154819Y-86857142D02*
X121202438Y-86714285D01*
X121202438Y-86714285D02*
X121250057Y-86666666D01*
X121488152Y-85809523D02*
X122154819Y-85809523D01*
X121107200Y-86047618D02*
X121821485Y-86285713D01*
X121821485Y-86285713D02*
X121821485Y-85666666D01*
X108433333Y-91054819D02*
X108100000Y-90578628D01*
X107861905Y-91054819D02*
X107861905Y-90054819D01*
X107861905Y-90054819D02*
X108242857Y-90054819D01*
X108242857Y-90054819D02*
X108338095Y-90102438D01*
X108338095Y-90102438D02*
X108385714Y-90150057D01*
X108385714Y-90150057D02*
X108433333Y-90245295D01*
X108433333Y-90245295D02*
X108433333Y-90388152D01*
X108433333Y-90388152D02*
X108385714Y-90483390D01*
X108385714Y-90483390D02*
X108338095Y-90531009D01*
X108338095Y-90531009D02*
X108242857Y-90578628D01*
X108242857Y-90578628D02*
X107861905Y-90578628D01*
X109290476Y-90388152D02*
X109290476Y-91054819D01*
X109052381Y-90007200D02*
X108814286Y-90721485D01*
X108814286Y-90721485D02*
X109433333Y-90721485D01*
X105559580Y-86916666D02*
X105607200Y-86964285D01*
X105607200Y-86964285D02*
X105654819Y-87107142D01*
X105654819Y-87107142D02*
X105654819Y-87202380D01*
X105654819Y-87202380D02*
X105607200Y-87345237D01*
X105607200Y-87345237D02*
X105511961Y-87440475D01*
X105511961Y-87440475D02*
X105416723Y-87488094D01*
X105416723Y-87488094D02*
X105226247Y-87535713D01*
X105226247Y-87535713D02*
X105083390Y-87535713D01*
X105083390Y-87535713D02*
X104892914Y-87488094D01*
X104892914Y-87488094D02*
X104797676Y-87440475D01*
X104797676Y-87440475D02*
X104702438Y-87345237D01*
X104702438Y-87345237D02*
X104654819Y-87202380D01*
X104654819Y-87202380D02*
X104654819Y-87107142D01*
X104654819Y-87107142D02*
X104702438Y-86964285D01*
X104702438Y-86964285D02*
X104750057Y-86916666D01*
X104654819Y-86583332D02*
X104654819Y-85964285D01*
X104654819Y-85964285D02*
X105035771Y-86297618D01*
X105035771Y-86297618D02*
X105035771Y-86154761D01*
X105035771Y-86154761D02*
X105083390Y-86059523D01*
X105083390Y-86059523D02*
X105131009Y-86011904D01*
X105131009Y-86011904D02*
X105226247Y-85964285D01*
X105226247Y-85964285D02*
X105464342Y-85964285D01*
X105464342Y-85964285D02*
X105559580Y-86011904D01*
X105559580Y-86011904D02*
X105607200Y-86059523D01*
X105607200Y-86059523D02*
X105654819Y-86154761D01*
X105654819Y-86154761D02*
X105654819Y-86440475D01*
X105654819Y-86440475D02*
X105607200Y-86535713D01*
X105607200Y-86535713D02*
X105559580Y-86583332D01*
X102359580Y-86916666D02*
X102407200Y-86964285D01*
X102407200Y-86964285D02*
X102454819Y-87107142D01*
X102454819Y-87107142D02*
X102454819Y-87202380D01*
X102454819Y-87202380D02*
X102407200Y-87345237D01*
X102407200Y-87345237D02*
X102311961Y-87440475D01*
X102311961Y-87440475D02*
X102216723Y-87488094D01*
X102216723Y-87488094D02*
X102026247Y-87535713D01*
X102026247Y-87535713D02*
X101883390Y-87535713D01*
X101883390Y-87535713D02*
X101692914Y-87488094D01*
X101692914Y-87488094D02*
X101597676Y-87440475D01*
X101597676Y-87440475D02*
X101502438Y-87345237D01*
X101502438Y-87345237D02*
X101454819Y-87202380D01*
X101454819Y-87202380D02*
X101454819Y-87107142D01*
X101454819Y-87107142D02*
X101502438Y-86964285D01*
X101502438Y-86964285D02*
X101550057Y-86916666D01*
X102454819Y-85964285D02*
X102454819Y-86535713D01*
X102454819Y-86249999D02*
X101454819Y-86249999D01*
X101454819Y-86249999D02*
X101597676Y-86345237D01*
X101597676Y-86345237D02*
X101692914Y-86440475D01*
X101692914Y-86440475D02*
X101740533Y-86535713D01*
X107038095Y-84454819D02*
X107038095Y-85264342D01*
X107038095Y-85264342D02*
X107085714Y-85359580D01*
X107085714Y-85359580D02*
X107133333Y-85407200D01*
X107133333Y-85407200D02*
X107228571Y-85454819D01*
X107228571Y-85454819D02*
X107419047Y-85454819D01*
X107419047Y-85454819D02*
X107514285Y-85407200D01*
X107514285Y-85407200D02*
X107561904Y-85359580D01*
X107561904Y-85359580D02*
X107609523Y-85264342D01*
X107609523Y-85264342D02*
X107609523Y-84454819D01*
X108609523Y-85454819D02*
X108038095Y-85454819D01*
X108323809Y-85454819D02*
X108323809Y-84454819D01*
X108323809Y-84454819D02*
X108228571Y-84597676D01*
X108228571Y-84597676D02*
X108133333Y-84692914D01*
X108133333Y-84692914D02*
X108038095Y-84740533D01*
X123361905Y-81254819D02*
X123361905Y-80254819D01*
X123361905Y-80254819D02*
X123600000Y-80254819D01*
X123600000Y-80254819D02*
X123742857Y-80302438D01*
X123742857Y-80302438D02*
X123838095Y-80397676D01*
X123838095Y-80397676D02*
X123885714Y-80492914D01*
X123885714Y-80492914D02*
X123933333Y-80683390D01*
X123933333Y-80683390D02*
X123933333Y-80826247D01*
X123933333Y-80826247D02*
X123885714Y-81016723D01*
X123885714Y-81016723D02*
X123838095Y-81111961D01*
X123838095Y-81111961D02*
X123742857Y-81207200D01*
X123742857Y-81207200D02*
X123600000Y-81254819D01*
X123600000Y-81254819D02*
X123361905Y-81254819D01*
X124885714Y-81254819D02*
X124314286Y-81254819D01*
X124600000Y-81254819D02*
X124600000Y-80254819D01*
X124600000Y-80254819D02*
X124504762Y-80397676D01*
X124504762Y-80397676D02*
X124409524Y-80492914D01*
X124409524Y-80492914D02*
X124314286Y-80540533D01*
X98733333Y-74954819D02*
X98257143Y-74954819D01*
X98257143Y-74954819D02*
X98257143Y-73954819D01*
X99590476Y-74954819D02*
X99019048Y-74954819D01*
X99304762Y-74954819D02*
X99304762Y-73954819D01*
X99304762Y-73954819D02*
X99209524Y-74097676D01*
X99209524Y-74097676D02*
X99114286Y-74192914D01*
X99114286Y-74192914D02*
X99019048Y-74240533D01*
X108433333Y-89154819D02*
X108100000Y-88678628D01*
X107861905Y-89154819D02*
X107861905Y-88154819D01*
X107861905Y-88154819D02*
X108242857Y-88154819D01*
X108242857Y-88154819D02*
X108338095Y-88202438D01*
X108338095Y-88202438D02*
X108385714Y-88250057D01*
X108385714Y-88250057D02*
X108433333Y-88345295D01*
X108433333Y-88345295D02*
X108433333Y-88488152D01*
X108433333Y-88488152D02*
X108385714Y-88583390D01*
X108385714Y-88583390D02*
X108338095Y-88631009D01*
X108338095Y-88631009D02*
X108242857Y-88678628D01*
X108242857Y-88678628D02*
X107861905Y-88678628D01*
X109385714Y-89154819D02*
X108814286Y-89154819D01*
X109100000Y-89154819D02*
X109100000Y-88154819D01*
X109100000Y-88154819D02*
X109004762Y-88297676D01*
X109004762Y-88297676D02*
X108909524Y-88392914D01*
X108909524Y-88392914D02*
X108814286Y-88440533D01*
X95195238Y-82594819D02*
X95195238Y-81594819D01*
X95195238Y-81594819D02*
X95576190Y-81594819D01*
X95576190Y-81594819D02*
X95671428Y-81642438D01*
X95671428Y-81642438D02*
X95719047Y-81690057D01*
X95719047Y-81690057D02*
X95766666Y-81785295D01*
X95766666Y-81785295D02*
X95766666Y-81928152D01*
X95766666Y-81928152D02*
X95719047Y-82023390D01*
X95719047Y-82023390D02*
X95671428Y-82071009D01*
X95671428Y-82071009D02*
X95576190Y-82118628D01*
X95576190Y-82118628D02*
X95195238Y-82118628D01*
X96100000Y-81594819D02*
X96338095Y-82594819D01*
X96338095Y-82594819D02*
X96528571Y-81880533D01*
X96528571Y-81880533D02*
X96719047Y-82594819D01*
X96719047Y-82594819D02*
X96957143Y-81594819D01*
X97338095Y-82594819D02*
X97338095Y-81594819D01*
X97338095Y-81594819D02*
X97671428Y-82309104D01*
X97671428Y-82309104D02*
X98004761Y-81594819D01*
X98004761Y-81594819D02*
X98004761Y-82594819D01*
X95838095Y-88392438D02*
X95742857Y-88344819D01*
X95742857Y-88344819D02*
X95600000Y-88344819D01*
X95600000Y-88344819D02*
X95457143Y-88392438D01*
X95457143Y-88392438D02*
X95361905Y-88487676D01*
X95361905Y-88487676D02*
X95314286Y-88582914D01*
X95314286Y-88582914D02*
X95266667Y-88773390D01*
X95266667Y-88773390D02*
X95266667Y-88916247D01*
X95266667Y-88916247D02*
X95314286Y-89106723D01*
X95314286Y-89106723D02*
X95361905Y-89201961D01*
X95361905Y-89201961D02*
X95457143Y-89297200D01*
X95457143Y-89297200D02*
X95600000Y-89344819D01*
X95600000Y-89344819D02*
X95695238Y-89344819D01*
X95695238Y-89344819D02*
X95838095Y-89297200D01*
X95838095Y-89297200D02*
X95885714Y-89249580D01*
X95885714Y-89249580D02*
X95885714Y-88916247D01*
X95885714Y-88916247D02*
X95695238Y-88916247D01*
X96314286Y-89344819D02*
X96314286Y-88344819D01*
X96314286Y-88344819D02*
X96885714Y-89344819D01*
X96885714Y-89344819D02*
X96885714Y-88344819D01*
X97361905Y-89344819D02*
X97361905Y-88344819D01*
X97361905Y-88344819D02*
X97600000Y-88344819D01*
X97600000Y-88344819D02*
X97742857Y-88392438D01*
X97742857Y-88392438D02*
X97838095Y-88487676D01*
X97838095Y-88487676D02*
X97885714Y-88582914D01*
X97885714Y-88582914D02*
X97933333Y-88773390D01*
X97933333Y-88773390D02*
X97933333Y-88916247D01*
X97933333Y-88916247D02*
X97885714Y-89106723D01*
X97885714Y-89106723D02*
X97838095Y-89201961D01*
X97838095Y-89201961D02*
X97742857Y-89297200D01*
X97742857Y-89297200D02*
X97600000Y-89344819D01*
X97600000Y-89344819D02*
X97361905Y-89344819D01*
X117861905Y-90454819D02*
X117861905Y-89454819D01*
X117861905Y-89454819D02*
X118100000Y-89454819D01*
X118100000Y-89454819D02*
X118242857Y-89502438D01*
X118242857Y-89502438D02*
X118338095Y-89597676D01*
X118338095Y-89597676D02*
X118385714Y-89692914D01*
X118385714Y-89692914D02*
X118433333Y-89883390D01*
X118433333Y-89883390D02*
X118433333Y-90026247D01*
X118433333Y-90026247D02*
X118385714Y-90216723D01*
X118385714Y-90216723D02*
X118338095Y-90311961D01*
X118338095Y-90311961D02*
X118242857Y-90407200D01*
X118242857Y-90407200D02*
X118100000Y-90454819D01*
X118100000Y-90454819D02*
X117861905Y-90454819D01*
X118814286Y-89550057D02*
X118861905Y-89502438D01*
X118861905Y-89502438D02*
X118957143Y-89454819D01*
X118957143Y-89454819D02*
X119195238Y-89454819D01*
X119195238Y-89454819D02*
X119290476Y-89502438D01*
X119290476Y-89502438D02*
X119338095Y-89550057D01*
X119338095Y-89550057D02*
X119385714Y-89645295D01*
X119385714Y-89645295D02*
X119385714Y-89740533D01*
X119385714Y-89740533D02*
X119338095Y-89883390D01*
X119338095Y-89883390D02*
X118766667Y-90454819D01*
X118766667Y-90454819D02*
X119385714Y-90454819D01*
D12*
%TO.C,C2*%
X113440000Y-87211252D02*
X113440000Y-85788748D01*
X116160000Y-87211252D02*
X116160000Y-85788748D01*
%TO.C,R2*%
X112735000Y-85772936D02*
X112735000Y-86227064D01*
X111265000Y-85772936D02*
X111265000Y-86227064D01*
%TO.C,R3*%
X100135000Y-82760436D02*
X100135000Y-83214564D01*
X98665000Y-82760436D02*
X98665000Y-83214564D01*
%TO.C,C4*%
X116640000Y-87211252D02*
X116640000Y-85788748D01*
X119360000Y-87211252D02*
X119360000Y-85788748D01*
%TO.C,R4*%
X111314564Y-91335000D02*
X110860436Y-91335000D01*
X111314564Y-89865000D02*
X110860436Y-89865000D01*
%TO.C,C3*%
X106560000Y-82788748D02*
X106560000Y-84211252D01*
X103840000Y-82788748D02*
X103840000Y-84211252D01*
%TO.C,C1*%
X100640000Y-82788748D02*
X100640000Y-84211252D01*
X103360000Y-82788748D02*
X103360000Y-84211252D01*
%TO.C,U1*%
X110000000Y-84110000D02*
X111500000Y-84110000D01*
X110000000Y-84110000D02*
X108500000Y-84110000D01*
X110000000Y-80890000D02*
X111500000Y-80890000D01*
X110000000Y-80890000D02*
X107125000Y-80890000D01*
%TO.C,D1*%
X123010000Y-84050000D02*
X114500000Y-84050000D01*
X123010000Y-77550000D02*
X123010000Y-84050000D01*
X123010000Y-77550000D02*
X114500000Y-77550000D01*
%TO.C,L1*%
X112650000Y-80650000D02*
G75*
G03*
X113050000Y-80250000I0J400000D01*
G01*
X113050000Y-68750000D02*
G75*
G03*
X112650000Y-68350000I-400000J0D01*
G01*
X100750000Y-80250000D02*
G75*
G03*
X101150000Y-80650000I399999J-1D01*
G01*
X101150000Y-68350000D02*
G75*
G03*
X100750000Y-68750000I-1J-399999D01*
G01*
X113050000Y-77500000D02*
X113050000Y-80250000D01*
X113050000Y-68750000D02*
X113050000Y-71500000D01*
X112650000Y-80650000D02*
X101150000Y-80650000D01*
X101150000Y-68350000D02*
X112650000Y-68350000D01*
X100750000Y-77500000D02*
X100750000Y-80250000D01*
X100750000Y-68750000D02*
X100750000Y-71500000D01*
%TO.C,R1*%
X111314564Y-89435000D02*
X110860436Y-89435000D01*
X111314564Y-87965000D02*
X110860436Y-87965000D01*
%TO.C,J2*%
X97930000Y-88070000D02*
X96600000Y-88070000D01*
X97930000Y-86740000D02*
X97930000Y-88070000D01*
X97930000Y-85470000D02*
X97930000Y-82870000D01*
X97930000Y-85470000D02*
X95270000Y-85470000D01*
X97930000Y-82870000D02*
X95270000Y-82870000D01*
X95270000Y-85470000D02*
X95270000Y-82870000D01*
%TO.C,D2*%
X117560000Y-91000000D02*
X117560000Y-89000000D01*
X117560000Y-91000000D02*
X113550000Y-91000000D01*
X117560000Y-89000000D02*
X113550000Y-89000000D01*
%TD*%
M02*
