%TF.GenerationSoftware,KiCad,Pcbnew,7.0.6*%
%TF.CreationDate,2023-07-17T23:29:13+02:00*%
%TF.ProjectId,bulb_driver,62756c62-5f64-4726-9976-65722e6b6963,rev?*%
%TF.SameCoordinates,Original*%
%TF.FileFunction,Soldermask,Top*%
%TF.FilePolarity,Negative*%
%FSLAX46Y46*%
G04 Gerber Fmt 4.6, Leading zero omitted, Abs format (unit mm)*
G04 Created by KiCad (PCBNEW 7.0.6) date 2023-07-17 23:29:13*
%MOMM*%
%LPD*%
G01*
G04 APERTURE LIST*
G04 Aperture macros list*
%AMRoundRect*
0 Rectangle with rounded corners*
0 $1 Rounding radius*
0 $2 $3 $4 $5 $6 $7 $8 $9 X,Y pos of 4 corners*
0 Add a 4 corners polygon primitive as box body*
4,1,4,$2,$3,$4,$5,$6,$7,$8,$9,$2,$3,0*
0 Add four circle primitives for the rounded corners*
1,1,$1+$1,$2,$3*
1,1,$1+$1,$4,$5*
1,1,$1+$1,$6,$7*
1,1,$1+$1,$8,$9*
0 Add four rect primitives between the rounded corners*
20,1,$1+$1,$2,$3,$4,$5,0*
20,1,$1+$1,$4,$5,$6,$7,0*
20,1,$1+$1,$6,$7,$8,$9,0*
20,1,$1+$1,$8,$9,$2,$3,0*%
G04 Aperture macros list end*
%ADD10C,0.050000*%
%ADD11RoundRect,0.250000X1.100000X-0.325000X1.100000X0.325000X-1.100000X0.325000X-1.100000X-0.325000X0*%
%ADD12RoundRect,0.250000X-0.450000X0.262500X-0.450000X-0.262500X0.450000X-0.262500X0.450000X0.262500X0*%
%ADD13RoundRect,0.250002X-1.699998X1.699998X-1.699998X-1.699998X1.699998X-1.699998X1.699998X1.699998X0*%
%ADD14C,3.900000*%
%ADD15RoundRect,0.250002X1.699998X-1.699998X1.699998X1.699998X-1.699998X1.699998X-1.699998X-1.699998X0*%
%ADD16RoundRect,0.250000X0.262500X0.450000X-0.262500X0.450000X-0.262500X-0.450000X0.262500X-0.450000X0*%
%ADD17C,0.800000*%
%ADD18C,6.400000*%
%ADD19RoundRect,0.250000X-1.100000X0.325000X-1.100000X-0.325000X1.100000X-0.325000X1.100000X0.325000X0*%
%ADD20RoundRect,0.125000X-0.600000X-0.125000X0.600000X-0.125000X0.600000X0.125000X-0.600000X0.125000X0*%
%ADD21RoundRect,0.250000X-1.000000X1.400000X-1.000000X-1.400000X1.000000X-1.400000X1.000000X1.400000X0*%
%ADD22R,2.800000X5.300000*%
%ADD23R,1.700000X1.700000*%
%ADD24O,1.700000X1.700000*%
%ADD25RoundRect,0.225000X0.225000X0.375000X-0.225000X0.375000X-0.225000X-0.375000X0.225000X-0.375000X0*%
G04 APERTURE END LIST*
D10*
%TO.C,U1*%
X109050000Y-81500000D02*
X110950000Y-81500000D01*
X110950000Y-81500000D02*
X110950000Y-83500000D01*
X110950000Y-83500000D02*
X109050000Y-83500000D01*
X109050000Y-83500000D02*
X109050000Y-81500000D01*
G36*
X109050000Y-81500000D02*
G01*
X110950000Y-81500000D01*
X110950000Y-83500000D01*
X109050000Y-83500000D01*
X109050000Y-81500000D01*
G37*
%TD*%
D11*
%TO.C,C2*%
X114800000Y-87975000D03*
X114800000Y-85025000D03*
%TD*%
D12*
%TO.C,R2*%
X112000000Y-85087500D03*
X112000000Y-86912500D03*
%TD*%
D13*
%TO.C,J3*%
X128500000Y-80800000D03*
D14*
X128500000Y-88600000D03*
%TD*%
D12*
%TO.C,R3*%
X99400000Y-82075000D03*
X99400000Y-83900000D03*
%TD*%
D15*
%TO.C,J1*%
X90500000Y-87650000D03*
D14*
X90500000Y-79850000D03*
%TD*%
D11*
%TO.C,C4*%
X118000000Y-87975000D03*
X118000000Y-85025000D03*
%TD*%
D16*
%TO.C,R4*%
X112000000Y-90600000D03*
X110175000Y-90600000D03*
%TD*%
D17*
%TO.C,H1*%
X126100000Y-95000000D03*
X126802944Y-93302944D03*
X126802944Y-96697056D03*
X128500000Y-92600000D03*
D18*
X128500000Y-95000000D03*
D17*
X128500000Y-97400000D03*
X130197056Y-93302944D03*
X130197056Y-96697056D03*
X130900000Y-95000000D03*
%TD*%
%TO.C,H2*%
X126100000Y-70000000D03*
X126802944Y-68302944D03*
X126802944Y-71697056D03*
X128500000Y-67600000D03*
D18*
X128500000Y-70000000D03*
D17*
X128500000Y-72400000D03*
X130197056Y-68302944D03*
X130197056Y-71697056D03*
X130900000Y-70000000D03*
%TD*%
D19*
%TO.C,C3*%
X105200000Y-82025000D03*
X105200000Y-84975000D03*
%TD*%
D17*
%TO.C,H4*%
X88100000Y-70000000D03*
X88802944Y-68302944D03*
X88802944Y-71697056D03*
X90500000Y-67600000D03*
D18*
X90500000Y-70000000D03*
D17*
X90500000Y-72400000D03*
X92197056Y-68302944D03*
X92197056Y-71697056D03*
X92900000Y-70000000D03*
%TD*%
D19*
%TO.C,C1*%
X102000000Y-84975000D03*
X102000000Y-82025000D03*
%TD*%
D17*
%TO.C,H3*%
X88100000Y-95000000D03*
X88802944Y-93302944D03*
X88802944Y-96697056D03*
X90500000Y-92600000D03*
D18*
X90500000Y-95000000D03*
D17*
X90500000Y-97400000D03*
X92197056Y-93302944D03*
X92197056Y-96697056D03*
X92900000Y-95000000D03*
%TD*%
D20*
%TO.C,U1*%
X112200000Y-81525000D03*
X112200000Y-82175000D03*
X112200000Y-82825000D03*
X112200000Y-83475000D03*
X107800000Y-83475000D03*
X107800000Y-82825000D03*
X107800000Y-82175000D03*
X107800000Y-81525000D03*
%TD*%
D21*
%TO.C,D1*%
X121500000Y-80800000D03*
X114700000Y-80800000D03*
%TD*%
D22*
%TO.C,L1*%
X111950000Y-74500000D03*
X101850000Y-74500000D03*
%TD*%
D16*
%TO.C,R1*%
X112000000Y-88700000D03*
X110175000Y-88700000D03*
%TD*%
D23*
%TO.C,J2*%
X96600000Y-86740000D03*
D24*
X96600000Y-84200000D03*
%TD*%
D25*
%TO.C,D2*%
X116850000Y-90000000D03*
X113550000Y-90000000D03*
%TD*%
M02*
