M48
INCH,TZ
T1C0.0157
T2C0.0197
T3C0.0394
T4C0.0689
T5C0.1260
%
G90
G05
T1
X43031Y-31654
X43031Y-31929
X43031Y-32205
X43031Y-32480
X43031Y-32756
X43031Y-33031
X43031Y-33307
X43307Y-31654
X43307Y-31929
X43307Y-32205
X43307Y-32480
X43307Y-32756
X43307Y-33031
X43307Y-33307
X43583Y-31654
X43583Y-31929
X43583Y-32205
X43583Y-32480
X43583Y-32756
X43583Y-33031
X43583Y-33307
X44882Y-34055
X45197Y-34055
X45512Y-34055
X45827Y-34055
X46142Y-34055
X46457Y-34055
X46772Y-34055
T2
X34685Y-27559
X34685Y-37402
X34962Y-26891
X34962Y-28227
X34962Y-36733
X34962Y-38070
X35630Y-26614
X35630Y-28504
X35630Y-36457
X35630Y-38346
X36298Y-26891
X36298Y-28227
X36298Y-36733
X36298Y-38070
X36575Y-27559
X36575Y-37402
X49646Y-27559
X49646Y-37402
X49922Y-26891
X49922Y-28227
X49922Y-36733
X49922Y-38070
X50591Y-26614
X50591Y-28504
X50591Y-36457
X50591Y-38346
X51259Y-26891
X51259Y-28227
X51259Y-36733
X51259Y-38070
X51535Y-27559
X51535Y-37402
T3
X38031Y-33150
X38031Y-34150
T4
X35630Y-31437
X35630Y-34508
X50591Y-31811
X50591Y-34882
T5
X35630Y-27559
X35630Y-37402
X50591Y-27559
X50591Y-37402
T0
M30
