%TF.GenerationSoftware,KiCad,Pcbnew,7.0.6*%
%TF.CreationDate,2023-07-17T23:29:13+02:00*%
%TF.ProjectId,bulb_driver,62756c62-5f64-4726-9976-65722e6b6963,rev?*%
%TF.SameCoordinates,Original*%
%TF.FileFunction,Copper,L1,Top*%
%TF.FilePolarity,Positive*%
%FSLAX46Y46*%
G04 Gerber Fmt 4.6, Leading zero omitted, Abs format (unit mm)*
G04 Created by KiCad (PCBNEW 7.0.6) date 2023-07-17 23:29:13*
%MOMM*%
%LPD*%
G01*
G04 APERTURE LIST*
G04 Aperture macros list*
%AMRoundRect*
0 Rectangle with rounded corners*
0 $1 Rounding radius*
0 $2 $3 $4 $5 $6 $7 $8 $9 X,Y pos of 4 corners*
0 Add a 4 corners polygon primitive as box body*
4,1,4,$2,$3,$4,$5,$6,$7,$8,$9,$2,$3,0*
0 Add four circle primitives for the rounded corners*
1,1,$1+$1,$2,$3*
1,1,$1+$1,$4,$5*
1,1,$1+$1,$6,$7*
1,1,$1+$1,$8,$9*
0 Add four rect primitives between the rounded corners*
20,1,$1+$1,$2,$3,$4,$5,0*
20,1,$1+$1,$4,$5,$6,$7,0*
20,1,$1+$1,$6,$7,$8,$9,0*
20,1,$1+$1,$8,$9,$2,$3,0*%
G04 Aperture macros list end*
%TA.AperFunction,SMDPad,CuDef*%
%ADD10RoundRect,0.250000X1.100000X-0.325000X1.100000X0.325000X-1.100000X0.325000X-1.100000X-0.325000X0*%
%TD*%
%TA.AperFunction,SMDPad,CuDef*%
%ADD11RoundRect,0.250000X-0.450000X0.262500X-0.450000X-0.262500X0.450000X-0.262500X0.450000X0.262500X0*%
%TD*%
%TA.AperFunction,ComponentPad*%
%ADD12RoundRect,0.250002X-1.699998X1.699998X-1.699998X-1.699998X1.699998X-1.699998X1.699998X1.699998X0*%
%TD*%
%TA.AperFunction,ComponentPad*%
%ADD13C,3.900000*%
%TD*%
%TA.AperFunction,ComponentPad*%
%ADD14RoundRect,0.250002X1.699998X-1.699998X1.699998X1.699998X-1.699998X1.699998X-1.699998X-1.699998X0*%
%TD*%
%TA.AperFunction,SMDPad,CuDef*%
%ADD15RoundRect,0.250000X0.262500X0.450000X-0.262500X0.450000X-0.262500X-0.450000X0.262500X-0.450000X0*%
%TD*%
%TA.AperFunction,ComponentPad*%
%ADD16C,0.800000*%
%TD*%
%TA.AperFunction,ComponentPad*%
%ADD17C,6.400000*%
%TD*%
%TA.AperFunction,SMDPad,CuDef*%
%ADD18RoundRect,0.250000X-1.100000X0.325000X-1.100000X-0.325000X1.100000X-0.325000X1.100000X0.325000X0*%
%TD*%
%TA.AperFunction,SMDPad,CuDef*%
%ADD19R,2.000000X3.000000*%
%TD*%
%TA.AperFunction,SMDPad,CuDef*%
%ADD20RoundRect,0.125000X-0.600000X-0.125000X0.600000X-0.125000X0.600000X0.125000X-0.600000X0.125000X0*%
%TD*%
%TA.AperFunction,SMDPad,CuDef*%
%ADD21RoundRect,0.250000X-1.000000X1.400000X-1.000000X-1.400000X1.000000X-1.400000X1.000000X1.400000X0*%
%TD*%
%TA.AperFunction,SMDPad,CuDef*%
%ADD22R,2.800000X5.300000*%
%TD*%
%TA.AperFunction,ComponentPad*%
%ADD23R,1.700000X1.700000*%
%TD*%
%TA.AperFunction,ComponentPad*%
%ADD24O,1.700000X1.700000*%
%TD*%
%TA.AperFunction,SMDPad,CuDef*%
%ADD25RoundRect,0.225000X0.225000X0.375000X-0.225000X0.375000X-0.225000X-0.375000X0.225000X-0.375000X0*%
%TD*%
%TA.AperFunction,ViaPad*%
%ADD26C,0.800000*%
%TD*%
%TA.AperFunction,Conductor*%
%ADD27C,2.500000*%
%TD*%
%TA.AperFunction,Conductor*%
%ADD28C,0.250000*%
%TD*%
%TA.AperFunction,Conductor*%
%ADD29C,1.000000*%
%TD*%
%TA.AperFunction,Conductor*%
%ADD30C,0.400000*%
%TD*%
%TA.AperFunction,Conductor*%
%ADD31C,0.200000*%
%TD*%
G04 APERTURE END LIST*
D10*
%TO.P,C2,1*%
%TO.N,/LED+*%
X114800000Y-87975000D03*
%TO.P,C2,2*%
%TO.N,GND*%
X114800000Y-85025000D03*
%TD*%
D11*
%TO.P,R2,1*%
%TO.N,/FEEDBACK*%
X112000000Y-85087500D03*
%TO.P,R2,2*%
%TO.N,/LED-*%
X112000000Y-86912500D03*
%TD*%
D12*
%TO.P,J3,1,Pin_1*%
%TO.N,/LED+*%
X128500000Y-80800000D03*
D13*
%TO.P,J3,2,Pin_2*%
%TO.N,/LED-*%
X128500000Y-88600000D03*
%TD*%
D11*
%TO.P,R3,1*%
%TO.N,VCC*%
X99400000Y-82075000D03*
%TO.P,R3,2*%
%TO.N,PWM*%
X99400000Y-83900000D03*
%TD*%
D14*
%TO.P,J1,1,Pin_1*%
%TO.N,GND*%
X90500000Y-87650000D03*
D13*
%TO.P,J1,2,Pin_2*%
%TO.N,VCC*%
X90500000Y-79850000D03*
%TD*%
D10*
%TO.P,C4,1*%
%TO.N,/LED+*%
X118000000Y-87975000D03*
%TO.P,C4,2*%
%TO.N,GND*%
X118000000Y-85025000D03*
%TD*%
D15*
%TO.P,R4,1*%
%TO.N,/LED-*%
X112000000Y-90600000D03*
%TO.P,R4,2*%
%TO.N,GND*%
X110175000Y-90600000D03*
%TD*%
D16*
%TO.P,H1,1,1*%
%TO.N,GND*%
X126100000Y-95000000D03*
X126802944Y-93302944D03*
X126802944Y-96697056D03*
X128500000Y-92600000D03*
D17*
X128500000Y-95000000D03*
D16*
X128500000Y-97400000D03*
X130197056Y-93302944D03*
X130197056Y-96697056D03*
X130900000Y-95000000D03*
%TD*%
%TO.P,H2,1,1*%
%TO.N,GND*%
X126100000Y-70000000D03*
X126802944Y-68302944D03*
X126802944Y-71697056D03*
X128500000Y-67600000D03*
D17*
X128500000Y-70000000D03*
D16*
X128500000Y-72400000D03*
X130197056Y-68302944D03*
X130197056Y-71697056D03*
X130900000Y-70000000D03*
%TD*%
D18*
%TO.P,C3,1*%
%TO.N,VCC*%
X105200000Y-82025000D03*
%TO.P,C3,2*%
%TO.N,GND*%
X105200000Y-84975000D03*
%TD*%
D16*
%TO.P,H4,1,1*%
%TO.N,GND*%
X88100000Y-70000000D03*
X88802944Y-68302944D03*
X88802944Y-71697056D03*
X90500000Y-67600000D03*
D17*
X90500000Y-70000000D03*
D16*
X90500000Y-72400000D03*
X92197056Y-68302944D03*
X92197056Y-71697056D03*
X92900000Y-70000000D03*
%TD*%
D18*
%TO.P,C1,2*%
%TO.N,GND*%
X102000000Y-84975000D03*
%TO.P,C1,1*%
%TO.N,VCC*%
X102000000Y-82025000D03*
%TD*%
D16*
%TO.P,H3,1,1*%
%TO.N,GND*%
X88100000Y-95000000D03*
X88802944Y-93302944D03*
X88802944Y-96697056D03*
X90500000Y-92600000D03*
D17*
X90500000Y-95000000D03*
D16*
X90500000Y-97400000D03*
X92197056Y-93302944D03*
X92197056Y-96697056D03*
X92900000Y-95000000D03*
%TD*%
D19*
%TO.P,U1,9,DAP*%
%TO.N,GND*%
X110000000Y-82500000D03*
D20*
%TO.P,U1,8,NC*%
%TO.N,unconnected-(U1-NC-Pad8)*%
X112200000Y-81525000D03*
%TO.P,U1,7,SW*%
%TO.N,Net-(D1-A)*%
X112200000Y-82175000D03*
%TO.P,U1,6,AGND*%
%TO.N,GND*%
X112200000Y-82825000D03*
%TO.P,U1,5,FB*%
%TO.N,/FEEDBACK*%
X112200000Y-83475000D03*
%TO.P,U1,4,DIM*%
%TO.N,PWM*%
X107800000Y-83475000D03*
%TO.P,U1,3,VIN*%
%TO.N,VCC*%
X107800000Y-82825000D03*
%TO.P,U1,2,PGND*%
%TO.N,GND*%
X107800000Y-82175000D03*
%TO.P,U1,1,NC*%
%TO.N,unconnected-(U1-NC-Pad1)*%
X107800000Y-81525000D03*
%TD*%
D21*
%TO.P,D1,1,K*%
%TO.N,/LED+*%
X121500000Y-80800000D03*
%TO.P,D1,2,A*%
%TO.N,Net-(D1-A)*%
X114700000Y-80800000D03*
%TD*%
D22*
%TO.P,L1,2,2*%
%TO.N,Net-(D1-A)*%
X111950000Y-74500000D03*
%TO.P,L1,1,1*%
%TO.N,VCC*%
X101850000Y-74500000D03*
%TD*%
D15*
%TO.P,R1,1*%
%TO.N,/LED-*%
X112000000Y-88700000D03*
%TO.P,R1,2*%
%TO.N,GND*%
X110175000Y-88700000D03*
%TD*%
D23*
%TO.P,J2,1,Pin_1*%
%TO.N,GND*%
X96600000Y-86740000D03*
D24*
%TO.P,J2,2,Pin_2*%
%TO.N,PWM*%
X96600000Y-84200000D03*
%TD*%
D25*
%TO.P,D2,1,K*%
%TO.N,/LED+*%
X116850000Y-90000000D03*
%TO.P,D2,2,A*%
%TO.N,/FEEDBACK*%
X113550000Y-90000000D03*
%TD*%
D26*
%TO.N,GND*%
X118800000Y-86500000D03*
X116400000Y-86500000D03*
X114000000Y-86500000D03*
X115600000Y-86500000D03*
X117200000Y-86500000D03*
X118000000Y-86500000D03*
X114800000Y-86500000D03*
X110700000Y-80400000D03*
X110000000Y-80400000D03*
X109300000Y-80400000D03*
X109300000Y-84600000D03*
X110000000Y-84600000D03*
X110700000Y-84600000D03*
X109300000Y-81100000D03*
X110000000Y-81100000D03*
X110700000Y-81100000D03*
X110700000Y-83900000D03*
X110000000Y-83900000D03*
X109300000Y-83900000D03*
X109300000Y-83200000D03*
X110000000Y-83200000D03*
X110700000Y-83200000D03*
X110700000Y-81800000D03*
X110000000Y-81800000D03*
X109300000Y-81800000D03*
X109300000Y-82500000D03*
X110700000Y-82500000D03*
X110000000Y-82500000D03*
%TD*%
D27*
%TO.N,/LED-*%
X118250000Y-92050000D02*
X115250000Y-92050000D01*
X121000000Y-89300000D02*
X118250000Y-92050000D01*
X121700000Y-88600000D02*
X121000000Y-89300000D01*
X128500000Y-88600000D02*
X121700000Y-88600000D01*
D28*
%TO.N,PWM*%
X99100000Y-84200000D02*
X99400000Y-83900000D01*
X96600000Y-84200000D02*
X99100000Y-84200000D01*
D29*
%TO.N,/LED+*%
X119525000Y-87975000D02*
X121500000Y-86000000D01*
D27*
X121500000Y-80800000D02*
X128500000Y-80800000D01*
D29*
X118000000Y-87975000D02*
X119525000Y-87975000D01*
X114800000Y-87975000D02*
X118000000Y-87975000D01*
X121500000Y-86000000D02*
X121500000Y-80800000D01*
D30*
X118000000Y-88850000D02*
X116850000Y-90000000D01*
X118000000Y-87975000D02*
X118000000Y-88850000D01*
%TO.N,/FEEDBACK*%
X112200000Y-84887500D02*
X112200000Y-83475000D01*
X112000000Y-85087500D02*
X112200000Y-84887500D01*
D31*
X113000000Y-89450000D02*
X113550000Y-90000000D01*
X113000000Y-86087500D02*
X113000000Y-89450000D01*
X112000000Y-85087500D02*
X113000000Y-86087500D01*
%TO.N,PWM*%
X99825000Y-83475000D02*
X107800000Y-83475000D01*
X99400000Y-83900000D02*
X99825000Y-83475000D01*
D29*
%TO.N,/LED-*%
X112000000Y-88700000D02*
X112000000Y-90600000D01*
D30*
X112000000Y-86912500D02*
X112000000Y-88700000D01*
%TD*%
%TA.AperFunction,Conductor*%
%TO.N,Net-(D1-A)*%
G36*
X121959191Y-66219407D02*
G01*
X121995155Y-66268907D01*
X122000000Y-66299500D01*
X122000000Y-78850500D01*
X121981093Y-78908691D01*
X121931593Y-78944655D01*
X121901000Y-78949500D01*
X120445725Y-78949500D01*
X120415305Y-78952353D01*
X120415296Y-78952355D01*
X120287116Y-78997207D01*
X120177855Y-79077845D01*
X120177845Y-79077855D01*
X120097207Y-79187116D01*
X120052355Y-79315296D01*
X120052353Y-79315305D01*
X120049500Y-79345725D01*
X120049500Y-82254274D01*
X120052353Y-82284694D01*
X120052354Y-82284698D01*
X120074610Y-82348303D01*
X120075982Y-82409473D01*
X120041138Y-82459767D01*
X119983386Y-82479975D01*
X119981165Y-82480000D01*
X113081333Y-82480000D01*
X113023142Y-82461093D01*
X113011335Y-82451009D01*
X112989579Y-82429253D01*
X112885545Y-82380741D01*
X112838139Y-82374500D01*
X112838138Y-82374500D01*
X111624000Y-82374500D01*
X111565809Y-82355593D01*
X111529845Y-82306093D01*
X111525000Y-82275500D01*
X111525000Y-82074499D01*
X111543907Y-82016308D01*
X111593407Y-81980344D01*
X111623993Y-81975499D01*
X112838138Y-81975499D01*
X112885545Y-81969259D01*
X112885546Y-81969259D01*
X112941611Y-81943114D01*
X112989579Y-81920747D01*
X113070747Y-81839579D01*
X113119259Y-81735545D01*
X113125500Y-81688139D01*
X113125499Y-81361862D01*
X113119259Y-81314455D01*
X113119259Y-81314453D01*
X113070748Y-81210423D01*
X113070746Y-81210420D01*
X113028996Y-81168669D01*
X113001219Y-81114152D01*
X113000000Y-81098666D01*
X113000000Y-81000000D01*
X110228996Y-78228996D01*
X110201219Y-78174479D01*
X110200000Y-78158992D01*
X110200000Y-66299500D01*
X110218907Y-66241309D01*
X110268407Y-66205345D01*
X110299000Y-66200500D01*
X121901000Y-66200500D01*
X121959191Y-66219407D01*
G37*
%TD.AperFunction*%
%TD*%
%TA.AperFunction,Conductor*%
%TO.N,VCC*%
G36*
X106959191Y-66219407D02*
G01*
X106995155Y-66268907D01*
X107000000Y-66299500D01*
X107000000Y-81098666D01*
X106981093Y-81156857D01*
X106971004Y-81168669D01*
X106929254Y-81210419D01*
X106880741Y-81314455D01*
X106874500Y-81361862D01*
X106874500Y-81688133D01*
X106874501Y-81688145D01*
X106880740Y-81735542D01*
X106914602Y-81808161D01*
X106922058Y-81868891D01*
X106914602Y-81891838D01*
X106880741Y-81964453D01*
X106874500Y-82011862D01*
X106874500Y-82338133D01*
X106874501Y-82338145D01*
X106880740Y-82385544D01*
X106880740Y-82385546D01*
X106929251Y-82489576D01*
X106929252Y-82489577D01*
X106929253Y-82489579D01*
X107010421Y-82570747D01*
X107114455Y-82619259D01*
X107161861Y-82625500D01*
X108101000Y-82625499D01*
X108159191Y-82644406D01*
X108195155Y-82693906D01*
X108200000Y-82724499D01*
X108200000Y-82925500D01*
X108181093Y-82983691D01*
X108131593Y-83019655D01*
X108101000Y-83024500D01*
X107161865Y-83024500D01*
X107161854Y-83024501D01*
X107114455Y-83030740D01*
X107114453Y-83030740D01*
X107010422Y-83079251D01*
X107006362Y-83082095D01*
X106949577Y-83100000D01*
X86799500Y-83100000D01*
X86741309Y-83081093D01*
X86705345Y-83031593D01*
X86700500Y-83001000D01*
X86700500Y-79849999D01*
X88045156Y-79849999D01*
X88064513Y-80157679D01*
X88122277Y-80460486D01*
X88122280Y-80460496D01*
X88217546Y-80753694D01*
X88348804Y-81032630D01*
X88348811Y-81032643D01*
X88505215Y-81279096D01*
X89666309Y-80118001D01*
X89682352Y-80175781D01*
X89771501Y-80343934D01*
X89894714Y-80488992D01*
X90046230Y-80604171D01*
X90218964Y-80684086D01*
X90229319Y-80686365D01*
X89073634Y-81842051D01*
X89184624Y-81922690D01*
X89184644Y-81922702D01*
X89454776Y-82071208D01*
X89454779Y-82071210D01*
X89741410Y-82184694D01*
X90040012Y-82261362D01*
X90345859Y-82300000D01*
X90654141Y-82300000D01*
X90959987Y-82261362D01*
X91258589Y-82184694D01*
X91545218Y-82071210D01*
X91815362Y-81922697D01*
X91815375Y-81922689D01*
X91926363Y-81842050D01*
X90767511Y-80683198D01*
X90869570Y-80648812D01*
X91032650Y-80550689D01*
X91170825Y-80419804D01*
X91277632Y-80262274D01*
X91334708Y-80119021D01*
X92494783Y-81279096D01*
X92651188Y-81032643D01*
X92651195Y-81032630D01*
X92782453Y-80753694D01*
X92877719Y-80460496D01*
X92877722Y-80460486D01*
X92935486Y-80157679D01*
X92954843Y-79850000D01*
X92935486Y-79542320D01*
X92877722Y-79239513D01*
X92877719Y-79239503D01*
X92782453Y-78946305D01*
X92651195Y-78667369D01*
X92651188Y-78667356D01*
X92494783Y-78420902D01*
X91333689Y-79581995D01*
X91317648Y-79524219D01*
X91228499Y-79356066D01*
X91105286Y-79211008D01*
X90953770Y-79095829D01*
X90781036Y-79015914D01*
X90770677Y-79013633D01*
X91926364Y-77857947D01*
X91815372Y-77777308D01*
X91815358Y-77777299D01*
X91545223Y-77628791D01*
X91545220Y-77628789D01*
X91258589Y-77515305D01*
X90959987Y-77438637D01*
X90654141Y-77400000D01*
X90345859Y-77400000D01*
X90040012Y-77438637D01*
X89741410Y-77515305D01*
X89454779Y-77628789D01*
X89454776Y-77628791D01*
X89184641Y-77777299D01*
X89184626Y-77777308D01*
X89073634Y-77857947D01*
X90232488Y-79016801D01*
X90130430Y-79051188D01*
X89967350Y-79149311D01*
X89829175Y-79280196D01*
X89722368Y-79437726D01*
X89665291Y-79580978D01*
X88505216Y-78420903D01*
X88348805Y-78667368D01*
X88348804Y-78667369D01*
X88217546Y-78946305D01*
X88122280Y-79239503D01*
X88122277Y-79239513D01*
X88064513Y-79542320D01*
X88045156Y-79849999D01*
X86700500Y-79849999D01*
X86700500Y-72189203D01*
X86719407Y-72131012D01*
X86768907Y-72095048D01*
X86830093Y-72095048D01*
X86879593Y-72131012D01*
X86884415Y-72138307D01*
X87003193Y-72336477D01*
X87003198Y-72336484D01*
X87003200Y-72336487D01*
X87249054Y-72667983D01*
X87526216Y-72973784D01*
X87832017Y-73250946D01*
X88163513Y-73496800D01*
X88163517Y-73496802D01*
X88163522Y-73496806D01*
X88517503Y-73708975D01*
X88737479Y-73813015D01*
X88890600Y-73885436D01*
X89279189Y-74024476D01*
X89279188Y-74024476D01*
X89679522Y-74124754D01*
X89679527Y-74124755D01*
X89679535Y-74124757D01*
X89679542Y-74124758D01*
X89679552Y-74124760D01*
X89959172Y-74166237D01*
X90087782Y-74185315D01*
X90500000Y-74205566D01*
X90912218Y-74185315D01*
X90912231Y-74185313D01*
X91320447Y-74124760D01*
X91320453Y-74124758D01*
X91320465Y-74124757D01*
X91720811Y-74024476D01*
X92109400Y-73885436D01*
X92482490Y-73708978D01*
X92482491Y-73708977D01*
X92482496Y-73708975D01*
X92836477Y-73496806D01*
X92836477Y-73496805D01*
X92836487Y-73496800D01*
X93167983Y-73250946D01*
X93473784Y-72973784D01*
X93750946Y-72667983D01*
X93996800Y-72336487D01*
X94115585Y-72138307D01*
X94208975Y-71982496D01*
X94299500Y-71791096D01*
X94385436Y-71609400D01*
X94524476Y-71220811D01*
X94624757Y-70820465D01*
X94685315Y-70412218D01*
X94705566Y-70000000D01*
X94685315Y-69587782D01*
X94671947Y-69497664D01*
X94624760Y-69179552D01*
X94624754Y-69179522D01*
X94524476Y-68779189D01*
X94385437Y-68390603D01*
X94385432Y-68390592D01*
X94208975Y-68017503D01*
X93996806Y-67663522D01*
X93996802Y-67663517D01*
X93996800Y-67663513D01*
X93750946Y-67332017D01*
X93738703Y-67318509D01*
X93473797Y-67026230D01*
X93473793Y-67026226D01*
X93473784Y-67026216D01*
X93167983Y-66749054D01*
X92836487Y-66503200D01*
X92836484Y-66503198D01*
X92836477Y-66503193D01*
X92638308Y-66384415D01*
X92598116Y-66338282D01*
X92592717Y-66277335D01*
X92624173Y-66224855D01*
X92680468Y-66200886D01*
X92689204Y-66200500D01*
X106901000Y-66200500D01*
X106959191Y-66219407D01*
G37*
%TD.AperFunction*%
%TD*%
%TA.AperFunction,Conductor*%
%TO.N,GND*%
G36*
X109953691Y-66219407D02*
G01*
X109989655Y-66268907D01*
X109994500Y-66299500D01*
X109994500Y-78163027D01*
X109994817Y-78171093D01*
X109996353Y-78190602D01*
X109996354Y-78190608D01*
X110018115Y-78267769D01*
X110018117Y-78267775D01*
X110045894Y-78322291D01*
X110083681Y-78374300D01*
X110083683Y-78374302D01*
X110083686Y-78374306D01*
X111559379Y-79849999D01*
X112614876Y-80905496D01*
X112642653Y-80960013D01*
X112633082Y-81020445D01*
X112589817Y-81063710D01*
X112544872Y-81074500D01*
X111561865Y-81074500D01*
X111561854Y-81074501D01*
X111514455Y-81080740D01*
X111514453Y-81080740D01*
X111410423Y-81129251D01*
X111329253Y-81210421D01*
X111280741Y-81314455D01*
X111274500Y-81361862D01*
X111274500Y-81688133D01*
X111274501Y-81688145D01*
X111280740Y-81735542D01*
X111280740Y-81735543D01*
X111280741Y-81735545D01*
X111282329Y-81738950D01*
X111314602Y-81808161D01*
X111322058Y-81868891D01*
X111314602Y-81891838D01*
X111280741Y-81964453D01*
X111274500Y-82011862D01*
X111274500Y-82338133D01*
X111274501Y-82338145D01*
X111280740Y-82385544D01*
X111280740Y-82385546D01*
X111329251Y-82489576D01*
X111329252Y-82489577D01*
X111329253Y-82489579D01*
X111410421Y-82570747D01*
X111514455Y-82619259D01*
X111561861Y-82625500D01*
X112838138Y-82625499D01*
X112859040Y-82622747D01*
X112919198Y-82633897D01*
X112920335Y-82634524D01*
X112959637Y-82656535D01*
X112959639Y-82656535D01*
X112959640Y-82656536D01*
X113017831Y-82675443D01*
X113030531Y-82677454D01*
X113081329Y-82685500D01*
X113081333Y-82685500D01*
X119982319Y-82685500D01*
X119982322Y-82685500D01*
X119985699Y-82685462D01*
X120051257Y-82673943D01*
X120109009Y-82653735D01*
X120142553Y-82638499D01*
X120142558Y-82638494D01*
X120148907Y-82634304D01*
X120207886Y-82618022D01*
X120265171Y-82639518D01*
X120294627Y-82678349D01*
X120464239Y-83079251D01*
X120791674Y-83853188D01*
X120791675Y-83853189D01*
X120799499Y-83891763D01*
X120799499Y-85668835D01*
X120780592Y-85727026D01*
X120770503Y-85738839D01*
X119319274Y-87190067D01*
X119264757Y-87217844D01*
X119216572Y-87213507D01*
X119184699Y-87202354D01*
X119184694Y-87202353D01*
X119154274Y-87199500D01*
X119154266Y-87199500D01*
X116845734Y-87199500D01*
X116845725Y-87199500D01*
X116815305Y-87202353D01*
X116815296Y-87202355D01*
X116687116Y-87247207D01*
X116676348Y-87255155D01*
X116618301Y-87274497D01*
X116617560Y-87274500D01*
X116182440Y-87274500D01*
X116124249Y-87255593D01*
X116123652Y-87255155D01*
X116112883Y-87247207D01*
X115984703Y-87202355D01*
X115984694Y-87202353D01*
X115954274Y-87199500D01*
X115954266Y-87199500D01*
X113645734Y-87199500D01*
X113645725Y-87199500D01*
X113615305Y-87202353D01*
X113615296Y-87202355D01*
X113487116Y-87247207D01*
X113458287Y-87268484D01*
X113400239Y-87287825D01*
X113341909Y-87269353D01*
X113305576Y-87220123D01*
X113300500Y-87188828D01*
X113300500Y-86686136D01*
X113300500Y-86152664D01*
X113302766Y-86138999D01*
X113301506Y-86138824D01*
X113302774Y-86129733D01*
X113300553Y-86081703D01*
X113300500Y-86079417D01*
X113300500Y-86059661D01*
X113300500Y-86059656D01*
X113299845Y-86056154D01*
X113299057Y-86049365D01*
X113297585Y-86017509D01*
X113293615Y-86008519D01*
X113286865Y-85986720D01*
X113285061Y-85977067D01*
X113268278Y-85949962D01*
X113265085Y-85943906D01*
X113256090Y-85923531D01*
X113252207Y-85914736D01*
X113245257Y-85907786D01*
X113231088Y-85889896D01*
X113225920Y-85881549D01*
X113225919Y-85881548D01*
X113200483Y-85862339D01*
X113195306Y-85857834D01*
X112909106Y-85571635D01*
X112881329Y-85517118D01*
X112885666Y-85468934D01*
X112897646Y-85434699D01*
X112900499Y-85404273D01*
X112900500Y-85404273D01*
X112900500Y-84770726D01*
X112900499Y-84770725D01*
X112897646Y-84740305D01*
X112897646Y-84740301D01*
X112852793Y-84612118D01*
X112851336Y-84610144D01*
X112772154Y-84502855D01*
X112772152Y-84502853D01*
X112772150Y-84502850D01*
X112772146Y-84502847D01*
X112772144Y-84502845D01*
X112662883Y-84422207D01*
X112656326Y-84418742D01*
X112657508Y-84416503D01*
X112618117Y-84386508D01*
X112600499Y-84330134D01*
X112600500Y-84024499D01*
X112619408Y-83966308D01*
X112668908Y-83930344D01*
X112699500Y-83925499D01*
X112838135Y-83925499D01*
X112838138Y-83925499D01*
X112885545Y-83919259D01*
X112885546Y-83919259D01*
X112944512Y-83891762D01*
X112989579Y-83870747D01*
X113070747Y-83789579D01*
X113119259Y-83685545D01*
X113125500Y-83638139D01*
X113125499Y-83311862D01*
X113119259Y-83264455D01*
X113119259Y-83264453D01*
X113070748Y-83160423D01*
X113070747Y-83160422D01*
X113070747Y-83160421D01*
X112989579Y-83079253D01*
X112885545Y-83030741D01*
X112838139Y-83024500D01*
X112838137Y-83024500D01*
X111561865Y-83024500D01*
X111561854Y-83024501D01*
X111514455Y-83030740D01*
X111514453Y-83030740D01*
X111410423Y-83079251D01*
X111410421Y-83079252D01*
X111410421Y-83079253D01*
X111329253Y-83160421D01*
X111280741Y-83264455D01*
X111275338Y-83305500D01*
X111274500Y-83311862D01*
X111274500Y-83638133D01*
X111274501Y-83638145D01*
X111280740Y-83685544D01*
X111280740Y-83685546D01*
X111329251Y-83789576D01*
X111329252Y-83789577D01*
X111329253Y-83789579D01*
X111410421Y-83870747D01*
X111514455Y-83919259D01*
X111561861Y-83925500D01*
X111700499Y-83925499D01*
X111758689Y-83944406D01*
X111794653Y-83993906D01*
X111799499Y-84024499D01*
X111799500Y-84275500D01*
X111780593Y-84333690D01*
X111731093Y-84369654D01*
X111700500Y-84374500D01*
X111495725Y-84374500D01*
X111465305Y-84377353D01*
X111465296Y-84377355D01*
X111337116Y-84422207D01*
X111227855Y-84502845D01*
X111227845Y-84502855D01*
X111147207Y-84612116D01*
X111102355Y-84740296D01*
X111102353Y-84740305D01*
X111099500Y-84770725D01*
X111099500Y-85404274D01*
X111102353Y-85434694D01*
X111102355Y-85434703D01*
X111147207Y-85562883D01*
X111227845Y-85672144D01*
X111227847Y-85672146D01*
X111227850Y-85672150D01*
X111227853Y-85672152D01*
X111227855Y-85672154D01*
X111337116Y-85752792D01*
X111337117Y-85752792D01*
X111337118Y-85752793D01*
X111465301Y-85797646D01*
X111495725Y-85800499D01*
X111495727Y-85800500D01*
X111495734Y-85800500D01*
X112247021Y-85800500D01*
X112305212Y-85819407D01*
X112317024Y-85829496D01*
X112485540Y-85998012D01*
X112518025Y-86030496D01*
X112545803Y-86085013D01*
X112536232Y-86145445D01*
X112492967Y-86188710D01*
X112448022Y-86199500D01*
X111495725Y-86199500D01*
X111465305Y-86202353D01*
X111465296Y-86202355D01*
X111337116Y-86247207D01*
X111227855Y-86327845D01*
X111227845Y-86327855D01*
X111147207Y-86437116D01*
X111102355Y-86565296D01*
X111102353Y-86565305D01*
X111099500Y-86595725D01*
X111099500Y-87229274D01*
X111102353Y-87259694D01*
X111102355Y-87259703D01*
X111147207Y-87387883D01*
X111227845Y-87497144D01*
X111227847Y-87497146D01*
X111227850Y-87497150D01*
X111227853Y-87497152D01*
X111227855Y-87497154D01*
X111337116Y-87577792D01*
X111337117Y-87577792D01*
X111337118Y-87577793D01*
X111465301Y-87622646D01*
X111495725Y-87625499D01*
X111495727Y-87625500D01*
X111495734Y-87625500D01*
X111500500Y-87625500D01*
X111558691Y-87644407D01*
X111594655Y-87693907D01*
X111599500Y-87724500D01*
X111599500Y-87750760D01*
X111580593Y-87808951D01*
X111533199Y-87844204D01*
X111524619Y-87847206D01*
X111524614Y-87847208D01*
X111415355Y-87927845D01*
X111415345Y-87927855D01*
X111334707Y-88037116D01*
X111289855Y-88165296D01*
X111289853Y-88165305D01*
X111287000Y-88195725D01*
X111287000Y-89204274D01*
X111289853Y-89234694D01*
X111289855Y-89234704D01*
X111293943Y-89246385D01*
X111299500Y-89279085D01*
X111299500Y-90020913D01*
X111293945Y-90053608D01*
X111289853Y-90065301D01*
X111287000Y-90095725D01*
X111287000Y-91104274D01*
X111289853Y-91134695D01*
X111291140Y-91140587D01*
X111290412Y-91140745D01*
X111294500Y-91164798D01*
X111294500Y-91196047D01*
X111294850Y-91204527D01*
X111296897Y-91229257D01*
X111297946Y-91237678D01*
X111394849Y-91819103D01*
X111402126Y-91848871D01*
X111402127Y-91848871D01*
X111402127Y-91848873D01*
X111410899Y-91875849D01*
X111411229Y-91876862D01*
X111422848Y-91905208D01*
X111613713Y-92286937D01*
X111613713Y-92286938D01*
X111619621Y-92297224D01*
X111638622Y-92326278D01*
X111645684Y-92335822D01*
X111645685Y-92335823D01*
X112130695Y-92917836D01*
X112130695Y-92917837D01*
X112130698Y-92917840D01*
X112156558Y-92943774D01*
X112156562Y-92943777D01*
X112183492Y-92966350D01*
X112183492Y-92966351D01*
X112198519Y-92976817D01*
X112213546Y-92987283D01*
X112213545Y-92987283D01*
X112892297Y-93375141D01*
X112904994Y-93381284D01*
X112927624Y-93390376D01*
X112943170Y-93396622D01*
X112948381Y-93398312D01*
X112956565Y-93400966D01*
X112956563Y-93400965D01*
X112956566Y-93400965D01*
X112956573Y-93400968D01*
X113206610Y-93463477D01*
X113344445Y-93497936D01*
X113356811Y-93500234D01*
X113356818Y-93500234D01*
X113356819Y-93500235D01*
X113393325Y-93504729D01*
X113405892Y-93505500D01*
X113405894Y-93505500D01*
X116100996Y-93505500D01*
X116101000Y-93505500D01*
X116133144Y-93502970D01*
X116138457Y-93502128D01*
X116141044Y-93501719D01*
X116156529Y-93500500D01*
X118156868Y-93500500D01*
X118162991Y-93500879D01*
X118189853Y-93504228D01*
X118189857Y-93504227D01*
X118189859Y-93504228D01*
X118267109Y-93501032D01*
X118279986Y-93500500D01*
X118309990Y-93500500D01*
X118309992Y-93500500D01*
X118329924Y-93498848D01*
X118339891Y-93498022D01*
X118430031Y-93494294D01*
X118456523Y-93488738D01*
X118462588Y-93487854D01*
X118489563Y-93485620D01*
X118577001Y-93463477D01*
X118665299Y-93444964D01*
X118690535Y-93435115D01*
X118696339Y-93433256D01*
X118722591Y-93426610D01*
X118805194Y-93390376D01*
X118889238Y-93357583D01*
X118912499Y-93343720D01*
X118917933Y-93340924D01*
X118942728Y-93330049D01*
X119018252Y-93280705D01*
X119095740Y-93234533D01*
X119116393Y-93217040D01*
X119121311Y-93213374D01*
X119143969Y-93198571D01*
X119210340Y-93137472D01*
X119233239Y-93118078D01*
X119254458Y-93096858D01*
X119320825Y-93035764D01*
X119337454Y-93014397D01*
X119341497Y-93009818D01*
X122068078Y-90283239D01*
X122068078Y-90283238D01*
X122271820Y-90079496D01*
X122326338Y-90051719D01*
X122341824Y-90050500D01*
X126869150Y-90050500D01*
X126927341Y-90069407D01*
X126941502Y-90081927D01*
X127028736Y-90175331D01*
X127028740Y-90175335D01*
X127256951Y-90360999D01*
X127256957Y-90361003D01*
X127256959Y-90361004D01*
X127508313Y-90513856D01*
X127508325Y-90513863D01*
X127653147Y-90576766D01*
X127778159Y-90631067D01*
X128061445Y-90710440D01*
X128352902Y-90750500D01*
X128352908Y-90750500D01*
X128647092Y-90750500D01*
X128647098Y-90750500D01*
X128938555Y-90710440D01*
X129221841Y-90631067D01*
X129412413Y-90548290D01*
X129491674Y-90513863D01*
X129491677Y-90513860D01*
X129491682Y-90513859D01*
X129743049Y-90360999D01*
X129971260Y-90175335D01*
X130172065Y-89960326D01*
X130341722Y-89719976D01*
X130477072Y-89458764D01*
X130575592Y-89181554D01*
X130635448Y-88893511D01*
X130655525Y-88600000D01*
X130635448Y-88306489D01*
X130575592Y-88018446D01*
X130477072Y-87741236D01*
X130341722Y-87480024D01*
X130172065Y-87239674D01*
X129971260Y-87024665D01*
X129743049Y-86839001D01*
X129743044Y-86838998D01*
X129743040Y-86838995D01*
X129491686Y-86686143D01*
X129491674Y-86686136D01*
X129261475Y-86586148D01*
X129221841Y-86568933D01*
X128938555Y-86489560D01*
X128647098Y-86449500D01*
X128352902Y-86449500D01*
X128061445Y-86489560D01*
X127778159Y-86568933D01*
X127778155Y-86568934D01*
X127778154Y-86568935D01*
X127508325Y-86686136D01*
X127508313Y-86686143D01*
X127256959Y-86838995D01*
X127256945Y-86839005D01*
X127028745Y-87024660D01*
X127028736Y-87024668D01*
X126941502Y-87118073D01*
X126887966Y-87147696D01*
X126869150Y-87149500D01*
X121793132Y-87149500D01*
X121787008Y-87149120D01*
X121768078Y-87146760D01*
X121760140Y-87145771D01*
X121672815Y-87149384D01*
X121670014Y-87149500D01*
X121640010Y-87149500D01*
X121610107Y-87151977D01*
X121580466Y-87153202D01*
X121521544Y-87136715D01*
X121483566Y-87088743D01*
X121481038Y-87027610D01*
X121506370Y-86984285D01*
X121979319Y-86511337D01*
X121981474Y-86509307D01*
X122028183Y-86467929D01*
X122063653Y-86416540D01*
X122065373Y-86414202D01*
X122103878Y-86365056D01*
X122108966Y-86353748D01*
X122117769Y-86338140D01*
X122124818Y-86327930D01*
X122146951Y-86269565D01*
X122148077Y-86266848D01*
X122173695Y-86209931D01*
X122175931Y-86197723D01*
X122180745Y-86180459D01*
X122185140Y-86168872D01*
X122192660Y-86106933D01*
X122193105Y-86104008D01*
X122204358Y-86042606D01*
X122200589Y-85980307D01*
X122200500Y-85977340D01*
X122200500Y-83891762D01*
X122208324Y-83853188D01*
X122228249Y-83806093D01*
X122737872Y-82601524D01*
X122770258Y-82560446D01*
X122822150Y-82522150D01*
X122822150Y-82522148D01*
X122822152Y-82522148D01*
X122902792Y-82412883D01*
X122902791Y-82412883D01*
X122902793Y-82412882D01*
X122932716Y-82327367D01*
X122936413Y-82316802D01*
X122973478Y-82268122D01*
X123029857Y-82250500D01*
X126250500Y-82250500D01*
X126308691Y-82269407D01*
X126344655Y-82318907D01*
X126349500Y-82349500D01*
X126349500Y-82554272D01*
X126352353Y-82584693D01*
X126352355Y-82584702D01*
X126397206Y-82712880D01*
X126397207Y-82712881D01*
X126477851Y-82822149D01*
X126587119Y-82902793D01*
X126715302Y-82947646D01*
X126745727Y-82950499D01*
X126745729Y-82950500D01*
X126745736Y-82950500D01*
X130254271Y-82950500D01*
X130254271Y-82950499D01*
X130284698Y-82947646D01*
X130412881Y-82902793D01*
X130522149Y-82822149D01*
X130602793Y-82712881D01*
X130647646Y-82584698D01*
X130650499Y-82554271D01*
X130650500Y-82554270D01*
X130650500Y-79045729D01*
X130650499Y-79045727D01*
X130647646Y-79015306D01*
X130647646Y-79015302D01*
X130602793Y-78887119D01*
X130522149Y-78777851D01*
X130412881Y-78697207D01*
X130412880Y-78697206D01*
X130284702Y-78652355D01*
X130284693Y-78652353D01*
X130254272Y-78649500D01*
X130254264Y-78649500D01*
X126745736Y-78649500D01*
X126745727Y-78649500D01*
X126715306Y-78652353D01*
X126715297Y-78652355D01*
X126587119Y-78697206D01*
X126477852Y-78777850D01*
X126477850Y-78777852D01*
X126397206Y-78887119D01*
X126352355Y-79015297D01*
X126352353Y-79015306D01*
X126349500Y-79045727D01*
X126349500Y-79250500D01*
X126330593Y-79308691D01*
X126281093Y-79344655D01*
X126250500Y-79349500D01*
X123029857Y-79349500D01*
X122971666Y-79330593D01*
X122936413Y-79283198D01*
X122902792Y-79187116D01*
X122822154Y-79077855D01*
X122822152Y-79077853D01*
X122822150Y-79077850D01*
X122822146Y-79077847D01*
X122822144Y-79077845D01*
X122712883Y-78997207D01*
X122584703Y-78952355D01*
X122584694Y-78952353D01*
X122554274Y-78949500D01*
X122554266Y-78949500D01*
X122304500Y-78949500D01*
X122246309Y-78930593D01*
X122210345Y-78881093D01*
X122205500Y-78850500D01*
X122205500Y-66299500D01*
X122224407Y-66241309D01*
X122273907Y-66205345D01*
X122304500Y-66200500D01*
X128460118Y-66200500D01*
X128498779Y-66200500D01*
X128501208Y-66200560D01*
X128715351Y-66211079D01*
X128869992Y-66218676D01*
X128874820Y-66219153D01*
X129238844Y-66273150D01*
X129243603Y-66274096D01*
X129600594Y-66363518D01*
X129605207Y-66364917D01*
X129908040Y-66473273D01*
X129951714Y-66488900D01*
X129956204Y-66490759D01*
X130288880Y-66648103D01*
X130293144Y-66650381D01*
X130608818Y-66839589D01*
X130612840Y-66842278D01*
X130908427Y-67061501D01*
X130912174Y-67064575D01*
X131184858Y-67311722D01*
X131188277Y-67315141D01*
X131320238Y-67460737D01*
X131435420Y-67587821D01*
X131438504Y-67591579D01*
X131657717Y-67887153D01*
X131660413Y-67891186D01*
X131849613Y-68206848D01*
X131851899Y-68211125D01*
X132009239Y-68543794D01*
X132011099Y-68548285D01*
X132135076Y-68894773D01*
X132136487Y-68899425D01*
X132225901Y-69256388D01*
X132226849Y-69261155D01*
X132280846Y-69625179D01*
X132281322Y-69630016D01*
X132299439Y-69998790D01*
X132299499Y-70001219D01*
X132299500Y-94960117D01*
X132299500Y-94998779D01*
X132299440Y-95001208D01*
X132281322Y-95369983D01*
X132280846Y-95374820D01*
X132226849Y-95738844D01*
X132225901Y-95743611D01*
X132136487Y-96100574D01*
X132135076Y-96105226D01*
X132011099Y-96451714D01*
X132009239Y-96456205D01*
X131851899Y-96788874D01*
X131849608Y-96793161D01*
X131660418Y-97108805D01*
X131657717Y-97112846D01*
X131438504Y-97408420D01*
X131435420Y-97412178D01*
X131188286Y-97684849D01*
X131184849Y-97688286D01*
X130912178Y-97935420D01*
X130908420Y-97938504D01*
X130612846Y-98157717D01*
X130608805Y-98160418D01*
X130293161Y-98349608D01*
X130288874Y-98351899D01*
X129956205Y-98509239D01*
X129951714Y-98511099D01*
X129605226Y-98635076D01*
X129600574Y-98636487D01*
X129243611Y-98725901D01*
X129238844Y-98726849D01*
X128874820Y-98780846D01*
X128869983Y-98781322D01*
X128501208Y-98799440D01*
X128498779Y-98799500D01*
X90501221Y-98799500D01*
X90498792Y-98799440D01*
X90130016Y-98781322D01*
X90125179Y-98780846D01*
X89761155Y-98726849D01*
X89756388Y-98725901D01*
X89547474Y-98673571D01*
X89399418Y-98636484D01*
X89394779Y-98635078D01*
X89277144Y-98592987D01*
X89048285Y-98511099D01*
X89043794Y-98509239D01*
X88711125Y-98351899D01*
X88706848Y-98349613D01*
X88391186Y-98160413D01*
X88387153Y-98157717D01*
X88091579Y-97938504D01*
X88087821Y-97935420D01*
X87815141Y-97688277D01*
X87811722Y-97684858D01*
X87564575Y-97412174D01*
X87561501Y-97408427D01*
X87342278Y-97112840D01*
X87339589Y-97108818D01*
X87150381Y-96793144D01*
X87148100Y-96788874D01*
X87105348Y-96698483D01*
X86990759Y-96456204D01*
X86988900Y-96451714D01*
X86947607Y-96336309D01*
X86864917Y-96105207D01*
X86863518Y-96100594D01*
X86774096Y-95743603D01*
X86773150Y-95738844D01*
X86719153Y-95374820D01*
X86718676Y-95369983D01*
X86700560Y-95001208D01*
X86700500Y-94998779D01*
X86700500Y-87249999D01*
X88050000Y-87249999D01*
X88050001Y-87250000D01*
X89717478Y-87250000D01*
X89651922Y-87414532D01*
X89621131Y-87602349D01*
X89631435Y-87792394D01*
X89682352Y-87975781D01*
X89721700Y-88050000D01*
X88050002Y-88050000D01*
X88050001Y-88050001D01*
X88050001Y-89399984D01*
X88060492Y-89502685D01*
X88060495Y-89502697D01*
X88115643Y-89669122D01*
X88207680Y-89818339D01*
X88331660Y-89942319D01*
X88480877Y-90034356D01*
X88647308Y-90089506D01*
X88750014Y-90099999D01*
X90099998Y-90099999D01*
X90100000Y-90099998D01*
X90100000Y-88429047D01*
X90218964Y-88484086D01*
X90404838Y-88525000D01*
X90547445Y-88525000D01*
X90689208Y-88509582D01*
X90869570Y-88448812D01*
X90900000Y-88430502D01*
X90900000Y-90099998D01*
X90900001Y-90099999D01*
X92249984Y-90099999D01*
X92352685Y-90089507D01*
X92352697Y-90089504D01*
X92519122Y-90034356D01*
X92668339Y-89942319D01*
X92792319Y-89818339D01*
X92884356Y-89669122D01*
X92939506Y-89502691D01*
X92950000Y-89399985D01*
X92950000Y-88050001D01*
X92949999Y-88050000D01*
X91282522Y-88050000D01*
X91348078Y-87885468D01*
X91378869Y-87697651D01*
X91375625Y-87637824D01*
X95249999Y-87637824D01*
X95256401Y-87697370D01*
X95256403Y-87697381D01*
X95306646Y-87832088D01*
X95306647Y-87832090D01*
X95392807Y-87947184D01*
X95392815Y-87947192D01*
X95507909Y-88033352D01*
X95507911Y-88033353D01*
X95642618Y-88083596D01*
X95642629Y-88083598D01*
X95702176Y-88090000D01*
X96199999Y-88090000D01*
X96200000Y-88089999D01*
X96200000Y-87140001D01*
X96199999Y-87140000D01*
X95250001Y-87140000D01*
X95250000Y-87140001D01*
X95250000Y-87637824D01*
X95249999Y-87637824D01*
X91375625Y-87637824D01*
X91368565Y-87507606D01*
X91317648Y-87324219D01*
X91278300Y-87250000D01*
X92949998Y-87250000D01*
X92949999Y-87249999D01*
X92949999Y-85900015D01*
X92939507Y-85797314D01*
X92939504Y-85797302D01*
X92884356Y-85630877D01*
X92792319Y-85481660D01*
X92668339Y-85357680D01*
X92519122Y-85265643D01*
X92352691Y-85210493D01*
X92249985Y-85200000D01*
X90900001Y-85200000D01*
X90900000Y-85200001D01*
X90900000Y-86870952D01*
X90781036Y-86815914D01*
X90595162Y-86775000D01*
X90452555Y-86775000D01*
X90310792Y-86790418D01*
X90130430Y-86851188D01*
X90100000Y-86869497D01*
X90100000Y-85200000D01*
X88750015Y-85200000D01*
X88647314Y-85210492D01*
X88647302Y-85210495D01*
X88480877Y-85265643D01*
X88331660Y-85357680D01*
X88207680Y-85481660D01*
X88115643Y-85630877D01*
X88060493Y-85797308D01*
X88050000Y-85900014D01*
X88050000Y-87249999D01*
X86700500Y-87249999D01*
X86700500Y-83404500D01*
X86719407Y-83346309D01*
X86768907Y-83310345D01*
X86799500Y-83305500D01*
X95765807Y-83305500D01*
X95823998Y-83324407D01*
X95859962Y-83373907D01*
X95859962Y-83435093D01*
X95842336Y-83467303D01*
X95809840Y-83506899D01*
X95722316Y-83613547D01*
X95624768Y-83796045D01*
X95564699Y-83994065D01*
X95564698Y-83994070D01*
X95544417Y-84199996D01*
X95544417Y-84200003D01*
X95564698Y-84405929D01*
X95564699Y-84405934D01*
X95624768Y-84603954D01*
X95722316Y-84786452D01*
X95853585Y-84946404D01*
X95853590Y-84946410D01*
X95853595Y-84946414D01*
X96013547Y-85077683D01*
X96013548Y-85077683D01*
X96013550Y-85077685D01*
X96196046Y-85175232D01*
X96265377Y-85196263D01*
X96315574Y-85231248D01*
X96335620Y-85289056D01*
X96317859Y-85347607D01*
X96269075Y-85384536D01*
X96236639Y-85390000D01*
X95702176Y-85390000D01*
X95642629Y-85396401D01*
X95642618Y-85396403D01*
X95507911Y-85446646D01*
X95507909Y-85446647D01*
X95392815Y-85532807D01*
X95392807Y-85532815D01*
X95306647Y-85647909D01*
X95306646Y-85647911D01*
X95256403Y-85782618D01*
X95256401Y-85782629D01*
X95249999Y-85842175D01*
X95250000Y-86339999D01*
X95250001Y-86340000D01*
X96298103Y-86340000D01*
X96218239Y-86409202D01*
X96140507Y-86530156D01*
X96100000Y-86668111D01*
X96100000Y-86811889D01*
X96140507Y-86949844D01*
X96218239Y-87070798D01*
X96326900Y-87164952D01*
X96457685Y-87224680D01*
X96564237Y-87240000D01*
X96635763Y-87240000D01*
X96742315Y-87224680D01*
X96873100Y-87164952D01*
X96901897Y-87140000D01*
X97000000Y-87140000D01*
X97000000Y-88089999D01*
X97000001Y-88090000D01*
X97497824Y-88090000D01*
X97557370Y-88083598D01*
X97557381Y-88083596D01*
X97692088Y-88033353D01*
X97692090Y-88033352D01*
X97807184Y-87947192D01*
X97807192Y-87947184D01*
X97893352Y-87832090D01*
X97893353Y-87832088D01*
X97943596Y-87697381D01*
X97943598Y-87697370D01*
X97950000Y-87637824D01*
X97950000Y-87140001D01*
X97949999Y-87140000D01*
X97000000Y-87140000D01*
X96901897Y-87140000D01*
X96981761Y-87070798D01*
X97059493Y-86949844D01*
X97100000Y-86811889D01*
X97100000Y-86668111D01*
X97059493Y-86530156D01*
X96981761Y-86409202D01*
X96901897Y-86340000D01*
X97949999Y-86340000D01*
X97950000Y-86339998D01*
X97950000Y-85842175D01*
X97943598Y-85782629D01*
X97943596Y-85782618D01*
X97893353Y-85647911D01*
X97893352Y-85647909D01*
X97807192Y-85532815D01*
X97807184Y-85532807D01*
X97692090Y-85446647D01*
X97692088Y-85446646D01*
X97557381Y-85396403D01*
X97557370Y-85396401D01*
X97497824Y-85390000D01*
X96963361Y-85390000D01*
X96905170Y-85371093D01*
X96869206Y-85321593D01*
X96869206Y-85260407D01*
X96905170Y-85210907D01*
X96934623Y-85196263D01*
X97003954Y-85175232D01*
X97186450Y-85077685D01*
X97346410Y-84946410D01*
X97477685Y-84786450D01*
X97575232Y-84603954D01*
X97577717Y-84595758D01*
X97612703Y-84545564D01*
X97670512Y-84525519D01*
X97672454Y-84525500D01*
X98650623Y-84525500D01*
X98708814Y-84544407D01*
X98709411Y-84544845D01*
X98737116Y-84565292D01*
X98737117Y-84565292D01*
X98737118Y-84565293D01*
X98865301Y-84610146D01*
X98895725Y-84612999D01*
X98895727Y-84613000D01*
X98895734Y-84613000D01*
X99904273Y-84613000D01*
X99904273Y-84612999D01*
X99934699Y-84610146D01*
X100062882Y-84565293D01*
X100172150Y-84484650D01*
X100252793Y-84375382D01*
X100297646Y-84247199D01*
X100300499Y-84216773D01*
X100300500Y-84216773D01*
X100300500Y-83874500D01*
X100319407Y-83816309D01*
X100368907Y-83780345D01*
X100399500Y-83775500D01*
X106874167Y-83775500D01*
X106932358Y-83794407D01*
X106944164Y-83804490D01*
X107010421Y-83870747D01*
X107114455Y-83919259D01*
X107161861Y-83925500D01*
X108438138Y-83925499D01*
X108485545Y-83919259D01*
X108485546Y-83919259D01*
X108544512Y-83891762D01*
X108589579Y-83870747D01*
X108670747Y-83789579D01*
X108719259Y-83685545D01*
X108725500Y-83638139D01*
X108725499Y-83311862D01*
X108719259Y-83264455D01*
X108717052Y-83259723D01*
X108685398Y-83191838D01*
X108677941Y-83131109D01*
X108685398Y-83108159D01*
X108719259Y-83035545D01*
X108725500Y-82988139D01*
X108725499Y-82661862D01*
X108719259Y-82614455D01*
X108719259Y-82614453D01*
X108670748Y-82510423D01*
X108670747Y-82510422D01*
X108670747Y-82510421D01*
X108589579Y-82429253D01*
X108485545Y-82380741D01*
X108438139Y-82374500D01*
X108438138Y-82374500D01*
X107179000Y-82374500D01*
X107120809Y-82355593D01*
X107084845Y-82306093D01*
X107080000Y-82275500D01*
X107080000Y-82074499D01*
X107098907Y-82016308D01*
X107148407Y-81980344D01*
X107178993Y-81975499D01*
X108438138Y-81975499D01*
X108485545Y-81969259D01*
X108485546Y-81969259D01*
X108541611Y-81943114D01*
X108589579Y-81920747D01*
X108670747Y-81839579D01*
X108719259Y-81735545D01*
X108725500Y-81688139D01*
X108725499Y-81361862D01*
X108719259Y-81314455D01*
X108719259Y-81314453D01*
X108670748Y-81210423D01*
X108670747Y-81210422D01*
X108670747Y-81210421D01*
X108589579Y-81129253D01*
X108485545Y-81080741D01*
X108438139Y-81074500D01*
X108438138Y-81074500D01*
X107304500Y-81074500D01*
X107246309Y-81055593D01*
X107210345Y-81006093D01*
X107205500Y-80975500D01*
X107205500Y-66299500D01*
X107224407Y-66241309D01*
X107273907Y-66205345D01*
X107304500Y-66200500D01*
X109895500Y-66200500D01*
X109953691Y-66219407D01*
G37*
%TD.AperFunction*%
%TA.AperFunction,Conductor*%
G36*
X92347180Y-66219407D02*
G01*
X92383144Y-66268907D01*
X92387603Y-66290765D01*
X92388019Y-66295465D01*
X92388019Y-66295468D01*
X92393418Y-66356415D01*
X92394950Y-66364923D01*
X92399946Y-66392677D01*
X92399946Y-66392678D01*
X92443173Y-66473274D01*
X92483358Y-66519400D01*
X92483361Y-66519402D01*
X92483364Y-66519406D01*
X92532660Y-66560678D01*
X92532662Y-66560679D01*
X92532663Y-66560680D01*
X92532664Y-66560681D01*
X92618932Y-66612387D01*
X92720088Y-66673017D01*
X92724119Y-66675712D01*
X93035509Y-66906654D01*
X93039258Y-66909730D01*
X93326504Y-67170075D01*
X93329923Y-67173494D01*
X93590265Y-67460737D01*
X93593349Y-67464495D01*
X93824269Y-67775854D01*
X93826969Y-67779895D01*
X94026272Y-68112408D01*
X94028564Y-68116695D01*
X94194304Y-68467126D01*
X94196164Y-68471616D01*
X94326770Y-68836630D01*
X94328178Y-68841275D01*
X94342153Y-68897063D01*
X94422366Y-69217294D01*
X94423314Y-69222060D01*
X94480200Y-69605543D01*
X94480676Y-69610381D01*
X94499698Y-69997569D01*
X94499698Y-70002429D01*
X94480677Y-70389621D01*
X94480200Y-70394458D01*
X94423319Y-70777920D01*
X94422371Y-70782688D01*
X94328180Y-71158720D01*
X94326769Y-71163371D01*
X94196169Y-71528370D01*
X94194309Y-71532861D01*
X94028559Y-71883310D01*
X94026268Y-71887597D01*
X93826976Y-72220095D01*
X93824275Y-72224136D01*
X93593349Y-72535503D01*
X93590265Y-72539261D01*
X93329932Y-72826495D01*
X93326495Y-72829932D01*
X93039261Y-73090265D01*
X93035503Y-73093349D01*
X92724136Y-73324275D01*
X92720095Y-73326976D01*
X92387597Y-73526268D01*
X92383310Y-73528559D01*
X92032861Y-73694309D01*
X92028370Y-73696169D01*
X91663371Y-73826769D01*
X91658726Y-73828177D01*
X91282685Y-73922371D01*
X91277924Y-73923318D01*
X90894469Y-73980198D01*
X90889634Y-73980674D01*
X90502429Y-73999698D01*
X90497568Y-73999698D01*
X90110377Y-73980677D01*
X90105544Y-73980200D01*
X89722096Y-73923321D01*
X89717339Y-73922375D01*
X89341261Y-73828174D01*
X89336623Y-73826768D01*
X89154121Y-73761467D01*
X88971627Y-73696169D01*
X88967137Y-73694309D01*
X88616687Y-73528559D01*
X88612410Y-73526273D01*
X88279914Y-73326983D01*
X88275878Y-73324285D01*
X87964488Y-73093344D01*
X87960736Y-73090265D01*
X87673494Y-72829923D01*
X87670075Y-72826504D01*
X87409729Y-72539257D01*
X87406655Y-72535510D01*
X87175719Y-72224130D01*
X87173030Y-72220108D01*
X87058348Y-72028771D01*
X87051026Y-72017694D01*
X87000383Y-71964758D01*
X87000381Y-71964757D01*
X86950892Y-71928801D01*
X86950887Y-71928798D01*
X86950883Y-71928795D01*
X86919256Y-71909899D01*
X86830093Y-71889548D01*
X86799500Y-71889548D01*
X86741309Y-71870641D01*
X86705345Y-71821141D01*
X86700500Y-71790548D01*
X86700500Y-70001219D01*
X86700560Y-69998790D01*
X86718677Y-69630016D01*
X86719153Y-69625179D01*
X86773150Y-69261155D01*
X86774095Y-69256400D01*
X86863519Y-68899399D01*
X86864915Y-68894798D01*
X86988901Y-68548280D01*
X86990756Y-68543802D01*
X87148107Y-68211110D01*
X87150377Y-68206864D01*
X87339595Y-67891172D01*
X87342271Y-67887168D01*
X87561508Y-67591562D01*
X87564567Y-67587835D01*
X87811731Y-67315131D01*
X87815131Y-67311731D01*
X88087835Y-67064567D01*
X88091562Y-67061508D01*
X88387168Y-66842271D01*
X88391172Y-66839595D01*
X88706864Y-66650377D01*
X88711110Y-66648107D01*
X89043802Y-66490756D01*
X89048280Y-66488901D01*
X89394798Y-66364915D01*
X89399399Y-66363519D01*
X89756400Y-66274095D01*
X89761155Y-66273150D01*
X90125179Y-66219153D01*
X90130005Y-66218677D01*
X90293604Y-66210639D01*
X90498792Y-66200560D01*
X90501221Y-66200500D01*
X90539882Y-66200500D01*
X92288989Y-66200500D01*
X92347180Y-66219407D01*
G37*
%TD.AperFunction*%
%TD*%
%TA.AperFunction,Conductor*%
%TO.N,/LED-*%
G36*
X112459191Y-90018907D02*
G01*
X112495155Y-90068407D01*
X112500000Y-90099000D01*
X112500000Y-90800000D01*
X113283208Y-90800000D01*
X113287091Y-90800152D01*
X113291511Y-90800500D01*
X113291512Y-90800500D01*
X113808489Y-90800500D01*
X113812909Y-90800152D01*
X113816792Y-90800000D01*
X116101000Y-90800000D01*
X116159191Y-90818907D01*
X116195155Y-90868407D01*
X116200000Y-90899000D01*
X116200000Y-93201000D01*
X116181093Y-93259191D01*
X116131593Y-93295155D01*
X116101000Y-93300000D01*
X113800000Y-93300000D01*
X113412187Y-93300000D01*
X113388176Y-93297044D01*
X113013249Y-93203312D01*
X112988142Y-93193224D01*
X112315503Y-92808859D01*
X112288568Y-92786282D01*
X111807355Y-92208826D01*
X111794861Y-92189722D01*
X111794860Y-92189721D01*
X111606656Y-91813312D01*
X111597553Y-91785320D01*
X111501347Y-91208081D01*
X111500000Y-91191806D01*
X111500000Y-90099000D01*
X111518907Y-90040809D01*
X111568407Y-90004845D01*
X111599000Y-90000000D01*
X112401000Y-90000000D01*
X112459191Y-90018907D01*
G37*
%TD.AperFunction*%
%TD*%
%TA.AperFunction,Conductor*%
%TO.N,/LED+*%
G36*
X121578551Y-80914491D02*
G01*
X121581569Y-80918646D01*
X122174192Y-81780643D01*
X122569267Y-82355298D01*
X122586653Y-82413961D01*
X122578863Y-82449958D01*
X121591176Y-84784493D01*
X121551089Y-84830718D01*
X121491488Y-84844552D01*
X121435139Y-84820712D01*
X121408824Y-84784493D01*
X120421136Y-82449958D01*
X120415876Y-82389000D01*
X120430730Y-82355300D01*
X121418421Y-80918660D01*
X121466967Y-80881421D01*
X121528132Y-80879828D01*
X121578551Y-80914491D01*
G37*
%TD.AperFunction*%
%TD*%
M02*
