%TF.GenerationSoftware,KiCad,Pcbnew,7.0.6*%
%TF.CreationDate,2023-07-17T23:29:13+02:00*%
%TF.ProjectId,bulb_driver,62756c62-5f64-4726-9976-65722e6b6963,rev?*%
%TF.SameCoordinates,Original*%
%TF.FileFunction,Soldermask,Bot*%
%TF.FilePolarity,Negative*%
%FSLAX46Y46*%
G04 Gerber Fmt 4.6, Leading zero omitted, Abs format (unit mm)*
G04 Created by KiCad (PCBNEW 7.0.6) date 2023-07-17 23:29:13*
%MOMM*%
%LPD*%
G01*
G04 APERTURE LIST*
G04 Aperture macros list*
%AMRoundRect*
0 Rectangle with rounded corners*
0 $1 Rounding radius*
0 $2 $3 $4 $5 $6 $7 $8 $9 X,Y pos of 4 corners*
0 Add a 4 corners polygon primitive as box body*
4,1,4,$2,$3,$4,$5,$6,$7,$8,$9,$2,$3,0*
0 Add four circle primitives for the rounded corners*
1,1,$1+$1,$2,$3*
1,1,$1+$1,$4,$5*
1,1,$1+$1,$6,$7*
1,1,$1+$1,$8,$9*
0 Add four rect primitives between the rounded corners*
20,1,$1+$1,$2,$3,$4,$5,0*
20,1,$1+$1,$4,$5,$6,$7,0*
20,1,$1+$1,$6,$7,$8,$9,0*
20,1,$1+$1,$8,$9,$2,$3,0*%
G04 Aperture macros list end*
%ADD10C,0.150000*%
%ADD11RoundRect,0.250002X-1.699998X1.699998X-1.699998X-1.699998X1.699998X-1.699998X1.699998X1.699998X0*%
%ADD12C,3.900000*%
%ADD13RoundRect,0.250002X1.699998X-1.699998X1.699998X1.699998X-1.699998X1.699998X-1.699998X-1.699998X0*%
%ADD14C,0.800000*%
%ADD15C,6.400000*%
%ADD16R,1.700000X1.700000*%
%ADD17O,1.700000X1.700000*%
G04 APERTURE END LIST*
D10*
X109000000Y-80100000D02*
X111000000Y-80100000D01*
X111000000Y-84900000D01*
X109000000Y-84900000D01*
X109000000Y-80100000D01*
G36*
X109000000Y-80100000D02*
G01*
X111000000Y-80100000D01*
X111000000Y-84900000D01*
X109000000Y-84900000D01*
X109000000Y-80100000D01*
G37*
D11*
%TO.C,J3*%
X128500000Y-80800000D03*
D12*
X128500000Y-88600000D03*
%TD*%
D13*
%TO.C,J1*%
X90500000Y-87650000D03*
D12*
X90500000Y-79850000D03*
%TD*%
D14*
%TO.C,H1*%
X126100000Y-95000000D03*
X126802944Y-93302944D03*
X126802944Y-96697056D03*
X128500000Y-92600000D03*
D15*
X128500000Y-95000000D03*
D14*
X128500000Y-97400000D03*
X130197056Y-93302944D03*
X130197056Y-96697056D03*
X130900000Y-95000000D03*
%TD*%
%TO.C,H2*%
X126100000Y-70000000D03*
X126802944Y-68302944D03*
X126802944Y-71697056D03*
X128500000Y-67600000D03*
D15*
X128500000Y-70000000D03*
D14*
X128500000Y-72400000D03*
X130197056Y-68302944D03*
X130197056Y-71697056D03*
X130900000Y-70000000D03*
%TD*%
%TO.C,H4*%
X88100000Y-70000000D03*
X88802944Y-68302944D03*
X88802944Y-71697056D03*
X90500000Y-67600000D03*
D15*
X90500000Y-70000000D03*
D14*
X90500000Y-72400000D03*
X92197056Y-68302944D03*
X92197056Y-71697056D03*
X92900000Y-70000000D03*
%TD*%
%TO.C,H3*%
X88100000Y-95000000D03*
X88802944Y-93302944D03*
X88802944Y-96697056D03*
X90500000Y-92600000D03*
D15*
X90500000Y-95000000D03*
D14*
X90500000Y-97400000D03*
X92197056Y-93302944D03*
X92197056Y-96697056D03*
X92900000Y-95000000D03*
%TD*%
D16*
%TO.C,J2*%
X96600000Y-86740000D03*
D17*
X96600000Y-84200000D03*
%TD*%
M02*
